<?xml version="1.0" encoding="UTF-8" standalone="no"?>
<!-- Created with Inkscape (http://www.inkscape.org/) -->

<svg
   width="158.17145mm"
   height="227.52159mm"
   viewBox="0 0 158.17145 227.52159"
   version="1.1"
   id="svg1"
   xml:space="preserve"
   inkscape:version="1.4 (86a8ad7, 2024-10-11)"
   sodipodi:docname="frontFacing-angry-teletubbie.svg"
   xmlns:inkscape="http://www.inkscape.org/namespaces/inkscape"
   xmlns:sodipodi="http://sodipodi.sourceforge.net/DTD/sodipodi-0.dtd"
   xmlns="http://www.w3.org/2000/svg"
   xmlns:svg="http://www.w3.org/2000/svg"><sodipodi:namedview
     id="namedview1"
     pagecolor="#ffffff"
     bordercolor="#000000"
     borderopacity="0.25"
     inkscape:showpageshadow="2"
     inkscape:pageopacity="0.0"
     inkscape:pagecheckerboard="0"
     inkscape:deskcolor="#d1d1d1"
     inkscape:document-units="mm"
     inkscape:zoom="0.70177871"
     inkscape:cx="151.04476"
     inkscape:cy="396.84874"
     inkscape:window-width="1920"
     inkscape:window-height="1027"
     inkscape:window-x="-8"
     inkscape:window-y="-8"
     inkscape:window-maximized="1"
     inkscape:current-layer="layer1" /><defs
     id="defs1" /><g
     inkscape:label="Layer 1"
     inkscape:groupmode="layer"
     id="layer1"
     transform="translate(-28.803417,-27.900115)"><g
       id="g10"><path
         id="path1"
         style="fill:#800080"
         d="m 107.47058,37.114548 c -4.75143,-0.270394 -8.664199,1.658227 -11.502659,5.669938 -1.11576,1.576949 -2.29814,4.191866 -2.73678,6.052861 -0.4148,1.759869 -0.57055,5.9117 -0.28474,7.591268 0.49485,2.908047 2.05168,6.361245 3.81475,8.462532 0.74195,0.884282 0.77642,1.053433 0.2155,1.055233 -0.22883,7.45e-4 -1.34576,0.282409 -2.48202,0.625802 -8.29631,2.507275 -14.9378,8.912441 -18.833996,18.164266 -0.545161,1.294529 -1.09647,2.807907 -1.225248,3.363102 -0.128778,0.55519 -0.279684,1.00274 -0.334864,0.99374 -0.05518,-0.009 -0.848888,-1.11756 -1.764233,-2.464451 -2.924014,-4.302569 -5.242322,-6.311417 -7.304464,-6.329847 -1.299798,-0.01161 -2.024533,0.55105 -2.664437,2.068091 -0.707912,1.678273 -0.910082,3.752184 -0.791683,8.123537 0.181776,6.71127 1.251679,11.8332 3.737757,17.89038 2.021245,4.92464 4.583582,8.48401 7.147367,9.92963 0.745102,0.42014 2.068812,0.9738 2.941423,1.23041 l 1.586466,0.46664 1.002006,1.80609 c 0.551258,0.99329 1.692365,2.61252 2.535246,3.59823 0.84288,0.9857 1.50818,1.81898 1.47898,1.85208 -0.0292,0.0331 -0.67692,0.46363 -1.439706,0.95654 -8.458313,5.46575 -16.905078,15.84087 -24.127726,29.63695 -0.795491,1.51948 -1.825476,3.62322 -2.289266,4.67516 -0.661909,1.50131 -1.231827,2.38401 -2.649451,4.10363 -3.029384,3.67472 -4.860318,7.19267 -5.429643,10.43295 -0.375885,2.13933 -0.279418,3.42274 0.381889,5.08445 0.936229,2.35253 2.320738,3.45869 4.511353,3.60443 2.397419,0.15949 4.772183,-0.71113 6.390824,-2.34353 l 1.25212,-0.30179 c 0.353401,0.30027 0.881612,0.46587 1.668632,0.52297 1.059007,0.0768 1.226011,0.0261 2.071191,-0.62787 0.529039,-0.40936 1.157111,-1.15494 1.479497,-1.75648 0.487668,-0.90994 0.564242,-1.26364 0.593762,-2.73317 l 0.03411,-1.68775 1.983342,-2.95331 c 1.090795,-1.62438 2.009849,-2.92238 2.042769,-2.88458 0.03292,0.0378 -0.105174,0.73201 -0.307475,1.54254 -0.961604,3.8527 -1.659847,9.57345 -1.659847,13.60124 0,5.83272 1.450118,14.78544 3.496945,21.58835 1.532195,5.09246 4.081867,11.20382 6.361885,15.24868 2.516677,4.32176 -5.3061,3.51827 -5.755721,10.66188 -0.214153,3.40248 2.929127,6.68522 7.731311,8.07393 2.243992,0.64893 8.320485,2.31745 10.504785,0.31936 10.9125,-9.98222 8.83341,-18.89451 11.908179,-21.70092 10.60129,-9.67603 -4.606649,18.40149 26.49826,22.00064 17.95072,0.97879 15.27421,-8.35874 9.58649,-18.45779 2.88976,-4.61025 6.35454,-13.39709 8.05894,-20.43699 1.59053,-6.56956 2.30822,-11.96536 2.30322,-17.31161 -0.004,-4.44522 -0.32304,-7.26582 -1.30741,-11.56829 -1.96938,-6.18961 0.96219,-1.51341 2.68097,0.77877 1.14626,1.5284 1.16429,1.57206 1.04231,2.50682 -0.29192,2.23717 0.45182,3.90878 2.28875,5.14594 1.01136,0.68115 2.54588,0.78076 3.45664,0.22428 0.55127,-0.33682 0.5686,-0.33074 1.6154,0.57877 3.27813,2.84817 10.2082,3.77169 11.13473,-4.07778 0.41484,-3.51456 -17.82471,-41.01386 -34.89762,-51.70279 l -1.43402,-0.89814 0.89917,-0.92914 c 1.17804,-1.21722 5.70198,-6.64662 5.70198,-6.64662 2.82068,-0.50343 4.9749,-2.17847 7.36751,-5.72834 2.48949,-3.69362 4.94641,-10.33176 5.8968,-15.93339 0.65604,-3.86678 0.97108,-9.42755 0.68678,-12.119674 -0.60086,-5.689641 -3.11283,-7.087062 -6.82543,-3.796667 -1.29204,1.145104 -4.06456,4.426444 -4.75888,5.632211 -0.50754,0.88141 -0.82966,1.12122 -0.82992,0.61805 -3.2e-4,-0.60252 -2.44272,-5.954948 -3.70934,-8.128699 -1.82512,-3.132233 -5.3299,-7.213683 -7.75508,-9.030457 -3.13774,-2.350582 -6.04388,-3.718511 -9.98595,-4.701522 -1.0679,-0.266296 -1.96208,-0.497257 -1.98748,-0.513147 -0.0254,-0.01589 0.29531,-0.451166 0.71314,-0.967383 1.75336,-2.166239 3.30954,-5.468881 3.78064,-8.023282 1.02333,-5.548789 -0.98163,-12.578266 -4.52582,-15.867766 -2.68633,-2.493292 -5.38996,-3.654729 -8.98291,-3.859196 z m -0.90328,9.252665 c 3.37446,0 5.63985,2.067223 6.36344,5.806881 0.59723,3.08663 -0.89607,6.298155 -3.65559,7.861019 -3.16191,1.790764 -7.00591,0.232248 -8.42274,-3.414779 -0.59361,-1.527991 -0.64683,-4.048328 -0.11937,-5.655985 0.88225,-2.68901 3.30397,-4.597136 5.83426,-4.597136 z m -0.58032,30.63534 c 7.34344,-0.155969 15.00403,2.301793 19.51354,6.645589 3.47112,3.343567 5.5382,7.319378 6.79545,13.068448 0.44538,2.03637 0.49637,2.65244 0.48937,5.88698 -0.006,2.88539 -0.0894,4.04868 -0.41186,5.77795 -2.45197,13.1484 -10.75893,20.64858 -24.07088,21.73304 -1.47441,0.12012 -2.80594,0.20588 -2.95848,0.19068 -0.15255,-0.0152 -1.06778,-0.10495 -2.03398,-0.19895 -5.896189,-0.57376 -11.212739,-3.38367 -15.568039,-8.22844 -3.42895,-3.8143 -5.37787,-8.03062 -6.37739,-13.79761 -0.441827,-2.54858 -0.445166,-8.1718 -0.007,-10.69805 0.85416,-4.92152 2.81641,-9.12493 5.68544,-12.177554 3.02089,-3.214189 7.36061,-5.835304 11.8339,-7.147884 2.248889,-0.65988 4.661839,-1.002209 7.109649,-1.054199 z m 21.20387,14.019297 c -0.20039,0 -1.30791,0.6078 -2.46083,1.35082 -1.15291,0.74301 -4.09305,2.62417 -6.53397,4.18063 -6.13613,3.91271 -7.44976,4.82432 -7.68738,5.33456 -0.18095,0.38858 -0.0864,0.57354 0.78238,1.5353 1.16548,1.2902 2.83125,2.35512 4.34082,2.77503 3.26395,0.90794 7.68086,-0.32528 9.77201,-2.72852 2.62572,-3.01755 3.65017,-8.69971 2.55491,-11.43858 -0.28224,-0.70573 -0.51317,-1.00924 -0.76791,-1.00924 z m -39.881799,0.0636 c -0.16649,-0.0532 -0.25445,-0.0354 -0.3452,0.005 -0.17344,0.0765 -0.49146,0.59477 -0.70693,1.15135 -1.10405,2.85183 -0.13144,8.52284 1.92133,11.20293 0.90305,1.17903 3.1909,2.51983 5.05343,2.96158 2.42135,0.57428 4.64692,0.27891 6.860569,-0.91158 1.36883,-0.73615 3.28627,-2.7502 3.18637,-3.34656 -0.0687,-0.40969 -2.82589,-2.40171 -10.138919,-7.32565 -4.12317,-2.77618 -5.33119,-3.57721 -5.83065,-3.73673 z m 31.256489,13.68289 c -137.416449,-117.20994 -137.416449,-117.20994 0,0 z M 96.362761,99.15886 c -115.21367,-111.60046 -115.21367,-111.60046 0,0 z M 126.48857,93.6455 c -0.1283,-0.007 -0.32372,0.0818 -0.67024,0.26097 -2.47751,1.28117 -12.83953,8.04447 -12.83953,8.38037 0,0.52628 1.7414,1.7305 3.18378,2.20193 0.37513,0.12261 1.47353,0.18321 2.4412,0.13488 7.35999,-0.36763 8.57815,-9.55713 8.15144,-10.66912 -0.0771,-0.20084 -0.13835,-0.30247 -0.26665,-0.30903 z m -38.808479,0.14625 c -0.47303,0.005 -0.24845,3.17701 0.37207,5.25704 0.79974,2.68082 4.67815,8.06826 11.0448,4.81883 0.942459,-0.48102 1.750489,-0.99491 1.795759,-1.14153 0.0964,-0.31237 -12.662789,-8.94008 -13.212629,-8.93434 z m 19.236029,17.76171 c -3.93735,-0.0116 -5.37906,0.28963 -7.974189,1.66759 -4.17616,2.21746 -7.97936,7.09088 -6.69003,8.57261 0.3656,0.42017 0.79439,0.29176 1.21646,-0.36432 0.70483,-1.0956 5.01867,-2.67613 8.727119,-3.19774 2.01283,-0.28311 6.86748,-0.28372 8.88576,-0.001 3.63156,0.50867 8.97531,2.36375 9.51001,3.3016 0.3181,0.55793 0.81861,0.66944 1.17358,0.26149 0.3883,-0.44625 0.24293,-1.53563 -0.35037,-2.62517 -1.73936,-3.19416 -5.14728,-5.80625 -9.20667,-7.05693 -1.60809,-0.49543 -2.11524,-0.5491 -5.29167,-0.5581 z m 0.008,54.48599 h 20.0489 l 0.10129,0.478 c 0.0558,0.26299 0.0777,5.73813 0.0496,12.1667 l -0.0512,11.68818 -20.31763,0.0537 -20.317619,0.0543 0.13591,-12.06128 c 0.0748,-6.63362 0.17309,-12.13274 0.21859,-12.22044 0.0455,-0.0877 9.10506,-0.15916 20.132109,-0.15916 z"
         sodipodi:nodetypes="ssssssssscsssssscccscssssssssccsscccsssssssssscscssssssscccssssssssssssssscsssscsscssscscssssssssssssssssssssscsscsccssscssssssscssccssccsscsscccscssssccc" /></g><path
       style="fill:#ff5555;stroke:#d2bbbc;stroke-width:0.479613;stroke-opacity:0.878788;paint-order:fill markers stroke"
       d=""
       id="path3" /><path
       style="fill:#ff2a2a;stroke:#d2bbbc;stroke-width:0.169569;stroke-opacity:0.878788;paint-order:fill markers stroke"
       d="m 116.34502,104.48096 c -0.5042,-0.12733 -1.30361,-0.49744 -1.93197,-0.89446 -0.61887,-0.39103 -1.35473,-1.06356 -1.35473,-1.23815 0,-0.44982 12.65083,-8.612207 13.34801,-8.612207 0.27686,0 0.35725,0.255709 0.33636,1.069914 -0.0397,1.545301 -0.76233,4.135175 -1.5277,5.474903 -1.12848,1.97532 -3.03246,3.5101 -5.04045,4.06305 -0.65571,0.18057 -3.28454,0.27458 -3.82952,0.13695 z"
       id="path6" /><path
       style="fill:#ff2a2a;stroke:#d2bbbc;stroke-width:0.169569;stroke-opacity:0.878788;paint-order:fill markers stroke"
       d="m 94.443054,104.79715 c -2.827729,-0.45425 -5.465096,-2.87581 -6.353053,-5.8332 -0.457023,-1.522135 -0.755796,-4.607185 -0.48727,-5.031412 0.06867,-0.108493 0.214058,-0.05703 0.776158,0.274724 2.570995,1.517426 10.98061,7.231338 12.085161,8.211268 l 0.38422,0.34086 -0.56348,0.36122 c -1.599952,1.02564 -3.279125,1.62684 -4.710682,1.68657 -0.466561,0.0195 -0.975535,0.0149 -1.131054,-0.01 z"
       id="path7" /><path
       style="fill:#c8c4b7;stroke:#d2bbbc;stroke-width:0.119903;stroke-opacity:0.878788;paint-order:fill markers stroke"
       d="m 86.511134,186.54755 c 0.166052,-14.51616 0.260371,-20.24665 0.334462,-20.32074 0.08481,-0.0848 9.995025,-0.14466 24.509944,-0.14804 14.76621,-0.003 15.5748,0.002 15.62897,0.113 0.0635,0.12962 0.11934,23.41537 0.0572,23.85182 l -0.0391,0.27507 -10.21096,0.0403 c -5.61602,0.0222 -14.73666,0.0535 -20.268089,0.0696 l -10.057138,0.0293 z"
       id="path8" /><path
       style="fill:#e3e2db;stroke:#d2bbbc;stroke-width:0.479613;stroke-opacity:0.878788;paint-order:fill markers stroke"
       d="m 101.24884,129.64619 c -3.852436,-0.79055 -6.752414,-2.16941 -10.05501,-4.7809 -5.018386,-3.96823 -8.058549,-9.01547 -9.413528,-15.62824 -0.490043,-2.39157 -0.553567,-3.42836 -0.456094,-7.44393 0.135977,-5.601734 0.585004,-7.59965 2.623206,-11.671739 3.538932,-7.070375 11.422033,-12.091127 20.152236,-12.834982 9.10862,-0.776094 18.16716,2.524482 23.06638,8.404484 1.70681,2.0485 3.73393,6.221503 4.64917,9.570728 0.65734,2.405505 0.72956,3.108632 0.7393,7.197989 0.0109,4.58847 -0.15458,5.88102 -1.22882,9.59731 -2.87071,9.93107 -10.32974,16.18129 -21.14601,17.71909 -2.5495,0.36248 -6.83543,0.30018 -8.93083,-0.12981 z m -7.572549,-8.15362 c 1.889107,-2.08885 9.175889,-3.68804 15.037119,-3.3001 4.29963,0.28457 9.80175,1.83784 11.46361,3.2362 1.73654,1.4612 2.47588,-0.18128 1.16542,-2.58903 -1.62651,-2.98843 -5.88788,-6.04599 -9.81917,-7.04531 -1.8064,-0.45918 -6.13499,-0.53126 -8.54159,-0.14224 -2.10346,0.34002 -5.486319,2.05262 -7.380278,3.73634 -3.180225,2.8272 -4.838927,6.66569 -2.880399,6.66569 0.246089,0 0.675968,-0.2527 0.955288,-0.56155 z m 4.775753,-15.18752 c 1.46008,-0.45097 2.081666,-0.83555 3.360486,-2.07917 0.86297,-0.83922 1.56904,-1.72031 1.56904,-1.95798 0,-0.49679 -2.60415,-2.447888 -9.597313,-7.190553 -5.404072,-3.664966 -6.53683,-4.325061 -6.966426,-4.059557 -1.138928,0.703895 -1.391026,5.27382 -0.477658,8.658809 0.721022,2.672141 1.853944,4.343081 3.711795,5.474511 2.778678,1.69222 5.463318,2.06101 8.400076,1.15394 z m 23.630186,-0.48474 c 3.81536,-1.46808 6.359,-5.76214 6.359,-10.734985 0,-2.149081 -0.57677,-4.222483 -1.1746,-4.222483 -0.60445,0 -14.98619,9.162708 -16.22053,10.334218 -0.40323,0.3827 -0.73313,0.87388 -0.73313,1.09152 0,0.91914 3.21778,3.37499 5.33184,4.06933 1.18209,0.38824 4.82107,0.0844 6.43742,-0.5376 z"
       id="path9" /><path
       style="fill:#e3e2db;stroke:#d2bbbc;stroke-width:0.479613;stroke-opacity:0.878788;paint-order:fill markers stroke"
       d="m 86.675292,183.17036 c 0.09572,-3.92224 0.174831,-9.32073 0.175802,-11.99665 l 0.0019,-4.8653 h 19.994416 19.9944 v 11.99664 11.99665 H 106.67155 86.501342 Z"
       id="path10" /><path
       style="fill:#ececec;fill-opacity:1;fill-rule:nonzero;stroke:#d2bbbc;stroke-width:0.760418;stroke-dasharray:none;stroke-opacity:0.878788;paint-order:fill markers stroke"
       d="m 72.863308,114.02317 c -4.817979,-3.92204 -8.088713,-13.82506 -8.045019,-24.35843 l 0.01513,-3.664133 1.878742,2.269123 c 3.72329,4.49696 8.353963,16.97318 8.757916,23.59609 0.247915,4.06469 -0.006,4.27468 -2.606844,2.15735 z"
       id="path57" /><path
       style="fill:#ececec;fill-opacity:1;fill-rule:nonzero;stroke:#d2bbbc;stroke-width:0.803338;stroke-dasharray:none;stroke-opacity:0.878788;paint-order:fill markers stroke"
       d="m 140.28107,113.12014 c 5.15253,-4.09306 8.65037,-14.42793 8.60364,-25.42062 l -0.0162,-3.823921 -2.00921,2.368073 c -3.98182,4.693058 -8.93403,17.713318 -9.36603,24.625048 -0.26513,4.24194 0.007,4.46108 2.78785,2.25141 z"
       id="path57-4" /></g></svg>
