<?xml version="1.0" encoding="UTF-8" standalone="no"?>
<!-- Created with Inkscape (http://www.inkscape.org/) -->

<svg
   width="128.90022mm"
   height="259.41486mm"
   viewBox="0 0 128.90023 259.41487"
   version="1.1"
   id="svg1"
   xml:space="preserve"
   inkscape:version="1.4 (86a8ad7, 2024-10-11)"
   sodipodi:docname="sideFacing-kind-teletubbie-Running.svg"
   xmlns:inkscape="http://www.inkscape.org/namespaces/inkscape"
   xmlns:sodipodi="http://sodipodi.sourceforge.net/DTD/sodipodi-0.dtd"
   xmlns="http://www.w3.org/2000/svg"
   xmlns:svg="http://www.w3.org/2000/svg"><sodipodi:namedview
     id="namedview1"
     pagecolor="#ffffff"
     bordercolor="#000000"
     borderopacity="0.25"
     inkscape:showpageshadow="2"
     inkscape:pageopacity="0.0"
     inkscape:pagecheckerboard="0"
     inkscape:deskcolor="#d1d1d1"
     inkscape:document-units="mm"
     inkscape:zoom="0.7349537"
     inkscape:cx="385.05827"
     inkscape:cy="505.47402"
     inkscape:window-width="1920"
     inkscape:window-height="1027"
     inkscape:window-x="-8"
     inkscape:window-y="-8"
     inkscape:window-maximized="1"
     inkscape:current-layer="layer1" /><defs
     id="defs1" /><g
     inkscape:label="Layer 1"
     inkscape:groupmode="layer"
     id="layer1"
     transform="translate(-199.76031,-7.6092249)"><path
       id="path1-8"
       style="fill:#44aa00"
       d="m 246.61264,7.6109799 c 1.19531,-0.123782 5.51921,6.2922891 14.79437,21.7948191 2.49926,4.17727 -4.95266,13.11829 -2.38859,17.1641 2.56428,4.04614 4.23361,4.32648 5.8361,5.00964 l 6.10828,1.98266 2.46652,0.78032 c 13.52061,4.27592 22.03965,14.14111 24.9623,28.90728 1.18263,5.97507 1.24034,6.08117 4.22713,7.758181 4.20491,2.36096 5.70775,5.23034 5.32732,10.17096 -0.95578,12.41287 -12.93214,22.99239 -31.58722,27.90269 -1.44019,0.37909 -1.54309,-0.0865 1.48467,6.71638 15.98952,35.92597 19.36511,55.65478 11.82925,69.1379 -15.60557,21.10857 -60.10124,26.53898 -77.78237,16.36386 -4.24915,-2.4453 0.94738,-12.55727 -0.91002,-13.00437 -5.19701,-1.25099 -9.50977,-7.17359 -10.41746,-14.30559 l -0.31057,-2.43861 0.49041,-3.54087 0.49041,-3.54035 -0.57051,-3.57756 c -3.0904,-19.38281 1.73224,-35.631 14.85439,-50.04604 4.29217,-4.71507 11.56452,-9.95089 15.46572,-11.13421 0.89366,-0.27107 0.75125,-0.60207 -1.33015,-3.08818 -5.68399,-6.78919 -9.07547,-12.98351 -10.98434,-20.06337 l -0.68058,-2.52544 -0.0145,-5.159371 -0.0145,-5.15937 0.57206,-2.24896 c 7.02803,-27.61747 29.7944,-23.15527 33.83975,-34.15847 0.85685,-2.44704 -8.85359,-9.58131 -8.54317,-14.59765 0.0945,-1.52683 1.51559,-24.9688931 2.7853,-25.1003791 z m 35.38685,59.5848191 c -1.65192,-0.0659 -2.74729,0.81422 -3.94846,1.68486 -1.60752,1.16518 -3.22833,2.62794 -4.93675,4.8 -2.44296,3.10592 -4.15275,7.16877 -5.27667,11.62802 l -0.78069,3.00876 -0.48946,3.508801 c -0.37034,2.65489 0.0368,3.69343 0.082,5.11203 0.0355,1.11464 -0.16481,2.73825 0.39813,4.63754 0.77167,2.60355 1.93731,5.33196 3.35106,7.5876 3.29073,5.25033 8.27746,7.63248 13.36385,9.43076 4.99787,1.76699 8.21038,1.09872 11.69939,-2.84674 0.0919,-0.10393 0.54335,-0.2753 0.46056,-0.39587 -0.0556,-0.0809 0.86947,-0.80132 0.76553,-0.82512 -1.77396,-0.40608 -9.05188,-2.44016 -11.25128,-5.80429 -0.82654,-1.26426 -2.28574,-2.32725 -1.7687,-2.91609 0.91804,-1.04553 1.46158,-0.98438 2.06943,-0.66768 0.27087,0.14112 0.55305,0.12217 0.73434,0.21558 0.29932,0.15422 0.3909,0.5954 1.0945,1.3392 2.56836,2.71511 4.33101,3.34158 5.85956,3.89445 1.8107,0.6549 3.22487,0.92526 4.29421,0.44666 0.20082,-0.0899 0.79888,-0.21875 0.98444,-0.29734 0.10897,-0.0461 0.42679,0.22358 0.52483,0.15962 2.51952,-1.6435 4.40063,-5.10452 3.22429,-5.03007 -0.27424,0.0174 -0.96042,-0.3021 -1.95815,-0.28013 -1.44772,0.0319 -3.57415,0.0175 -6.29497,-1.13626 -1.05814,-0.44869 7.47922,-2.72931 7.71298,-2.80544 l 2.14369,-0.93713 0.10977,-1.52212 -0.19302,-1.20392 -0.54436,-1.32832 c -0.34707,-0.84691 -1.57866,-1.55699 -3.04931,-2.45754 -7.35962,-4.506701 -5.52916,-16.101571 -9.67984,-22.234801 -1.44548,-2.1359 -3.5638,-4.68984 -7.17365,-4.92412 z m -52.47034,16.92423 -0.17931,1.5844 c -0.83677,7.396131 4.55491,18.443411 10.48256,21.478281 0.48064,0.24609 1.19018,0.52383 1.57665,0.61753 l 0.7028,0.17053 0.20102,-0.61805 c 2.22069,-6.81864 -5.485,-21.522881 -12.0897,-23.069911 z m 56.50663,0.98753 c 0.336,-0.008 0.6921,0.0604 1.0635,0.21653 2.47843,1.0421 3.04074,7.166901 0.85835,9.349301 -1.33427,1.33427 -3.35281,0.39285 -4.23954,-1.97714 -1.39322,-3.723731 -0.0343,-7.531791 2.31769,-7.588691 z m -50.23414,36.811711 c -23.63257,6.46647 -35.39526,34.35282 -31.87041,58.07243 l 0.66353,4.46433 -0.39894,2.47788 c -1.271,7.89852 1.18184,15.00642 6.00893,17.41186 5.13441,2.55859 8.91317,-1.60852 9.79114,-10.79728 0.0408,-0.4268 0.32219,-0.92814 0.63768,-1.13636 l 0.56431,-0.37259 0.39584,0.39584 c 0.21759,0.21759 0.48076,0.96709 0.58498,1.66553 0.51758,3.46881 1.88268,4.67789 2.85202,2.52647 l 0.56637,-1.25678 -0.0289,-2.38125 -0.0289,-2.38125 -0.9307,-3.0427 c -2.60599,-8.52149 -2.0746,-15.01614 1.87173,-22.87613 4.68419,-9.3296 16.6923,-21.28098 17.90433,-17.8201 l 0.24856,0.71055 -4.5098,4.44883 c -7.42661,7.32537 -11.46521,13.47868 -13.35422,20.34759 l -0.57516,2.09238 v 3.83646 3.83646 l 0.56792,1.98437 c 0.31244,1.0914 0.82721,2.87734 1.1436,3.96875 l 0.57516,1.98438 0.017,3.04271 0.0171,3.0427 -0.5979,1.50534 c -1.04626,2.63362 -3.25064,3.93994 -5.09581,3.01945 -1.05015,-0.52391 -1.0325,-0.52511 -1.0325,0.0465 0,2.01824 -3.01583,5.85528 -5.36039,6.81974 -0.68856,0.28325 -1.15136,0.7545 -1.15191,0.85462 -5.5e-4,0.10011 0.13773,0.16854 0.34866,1.08708 0.61652,2.68484 0.69707,6.07687 0.35934,8.64163 17.15694,17.19216 66.12174,5.68413 72.73614,-20.11091 0.42163,-1.64428 0.73884,-3.28805 0.96687,-4.95836 -1.1822,1.22658 -2.05107,2.1958 -9.52707,2.80943 -3.57751,0.29365 -17.69011,0.27856 -18.37821,-0.0897 l -0.50332,-0.26923 -0.14573,-7.74785 c -0.16687,-8.90075 -0.62418,-12.85444 -2.58744,-22.36194 -0.45558,-2.20625 -0.54754,-3.16125 -0.35708,-3.70417 l 0.25631,-0.73122 2.50786,-0.0579 c 4.8694,-0.11191 14.19357,-0.62943 17.71106,-0.9834 3.20427,-0.32246 4.77611,-0.42184 5.26221,0.0868 -2.52486,-6.99806 -5.80377,-15.05117 -10.14666,-24.90701 l -2.30167,-5.22397 -0.70125,0.19172 c -4.96075,1.35558 -19.95629,0.5686 -34.97468,-8.16173 z m 48.29524,38.59248 c -0.15243,1.31905 -7.26529,2.44455 -19.04896,2.83704 l -4.23334,0.14107 0.0522,0.46561 c 0.0285,0.25606 0.35267,1.9521 0.72037,3.76928 1.59313,7.87327 2.37138,15.58581 2.22622,22.0586 l -0.0884,3.93774 6.61458,-0.15038 c 6.51852,-0.14842 10.02476,-0.49242 15.15774,-1.48569 2.26589,-0.43847 3.84296,-0.43712 4.29431,0.15038 0.96762,-8.36233 -0.68291,-17.71793 -5.69475,-31.72365 z"
       sodipodi:nodetypes="ssscccssssscsscccccssscccccssscssccssssssssssssssssssssccccsssccscccccsscssccccssccsscccccscccccccccccccssssssscscccscccscccccccccscccsccssc" /><path
       style="fill:#a7ac93;fill-opacity:0.738292;stroke:#d2d1bc;stroke-width:0.370091;stroke-opacity:0.876033;paint-order:fill markers stroke"
       d="m 277.72577,193.013 c 1.584,-0.16448 4.4718,-0.56451 6.41733,-0.88897 1.94553,-0.32445 4.01103,-0.52039 4.59,-0.43541 l 1.05267,0.1545 v -4.0516 c 0,-4.70361 -0.43126,-8.23029 -1.6319,-13.34502 -0.73237,-3.1199 -3.54894,-12.38175 -3.99807,-13.14703 -0.0802,-0.13659 -0.6936,-0.0194 -1.36318,0.26033 -1.81233,0.75724 -8.94889,1.59589 -15.77276,1.85353 -3.31875,0.1253 -6.03409,0.26548 -6.03409,0.31152 0,0.046 0.32934,1.68104 0.73186,3.63334 1.31808,6.39283 2.14814,14.23827 2.14814,20.3034 v 5.74623 l 5.49,-0.0479 c 3.0195,-0.0263 6.786,-0.18245 8.37,-0.34693 z"
       id="path6-8" /><path
       style="fill:#a7ac93;fill-opacity:0.738292;stroke:#d2d1bc;stroke-width:0.370091;stroke-opacity:0.876033;paint-order:fill markers stroke"
       d="m 242.21889,107.44784 c 0.49568,-1.2071 0.41342,-5.24677 -0.39361,-7.90376 -1.97668,-6.50778 -6.19668,-12.660221 -10.22789,-14.716791 -0.77861,-0.39722 -1.89475,-0.49947 -1.97472,-0.49947 -0.45889,0 -0.48655,3.92066 -0.067,6.324011 1.1925,6.8308 5.40429,13.66375 9.7778,16.1722 2.15857,1.23807 2.54391,1.45542 2.8854,0.62381 z"
       id="path7-2"
       sodipodi:nodetypes="sssssss" /><path
       style="fill:#e2e3db;fill-opacity:0.738292;stroke:#d2d1bc;stroke-width:0.370091;stroke-opacity:0.876033;paint-order:fill markers stroke"
       d="m 291.20362,119.1225 c 2.29375,-1.31187 4.45847,-3.31619 5.16433,-4.10271 0.62995,-0.70195 0.61056,-0.71915 -1.01759,-0.90267 -2.39617,-0.27008 -6.6719,-2.51928 -9.14921,-4.81284 -2.45749,-2.2752 -2.91065,-3.19446 -1.93803,-3.93145 1.11411,-0.8442 1.86979,-0.59239 3.01599,1.00499 2.15867,3.00838 5.56313,4.73316 9.34666,4.73522 3.18429,0.002 3.76755,-0.28627 5.19217,-2.56383 0.70831,-1.13238 1.28783,-2.26643 1.28783,-2.52013 0,-0.33714 -0.84765,-0.47092 -3.15,-0.49715 -3.826,-0.0436 -4.91808,-0.31142 -5.0513,-1.23887 -0.0882,-0.61383 0.3551,-0.81237 3.42,-1.5318 1.93671,-0.4546 4.0478,-1.05428 4.6913,-1.33262 1.08762,-0.47043 1.17,-0.62794 1.17,-2.23712 0,-1.9832 -0.67612,-2.91228 -3.50595,-4.81763 -3.79514,-2.55531 -4.31444,-3.43059 -5.64066,-9.507301 -1.78908,-8.19752 -2.34373,-9.77264 -4.62884,-13.14536 -14.53727,-21.45627 -42.4874,37.497211 -5.55864,47.115921 2.81629,0.73355 4.64058,1.26412 6.35194,0.28535 z m -6.45635,-24.6578 c -2.60344,-2.60344 -2.12868,-8.938301 0.70123,-9.356721 2.4278,-0.35896 3.95441,1.66457 3.96936,5.2614 0.0181,4.350851 -2.34395,6.421971 -4.67059,4.095321 z"
       id="path8-4"
       sodipodi:nodetypes="sssssscssssssssssssssss" /><path
       style="fill:#ececec;fill-opacity:0.738292;stroke:#d2d1bc;stroke-width:0.370091;stroke-opacity:0.876033;paint-order:fill markers stroke"
       d="m 276.10577,192.7937 c 0.891,-0.0706 4.09425,-0.45451 7.11834,-0.85319 3.02409,-0.39868 5.65659,-0.62707 5.85,-0.50754 0.5469,0.338 0.42301,-7.42359 -0.18262,-11.44157 -0.56496,-3.74805 -1.56066,-7.73002 -3.53165,-14.12358 -1.39835,-4.53602 -0.80074,-4.21799 -6.19407,-3.29632 -3.50685,0.59929 -11.99932,1.31632 -15.59036,1.31632 -1.2263,0 -2.22964,0.0704 -2.22964,0.15646 0,0.0861 0.23611,1.27891 0.5247,2.65079 1.44017,6.84634 2.3553,15.36131 2.3553,21.91527 v 4.43748 l 5.13,-0.0629 c 2.8215,-0.0346 5.859,-0.12064 6.75,-0.19122 z"
       id="path9-5" /><path
       style="fill:#44aa00;fill-opacity:0.738292;stroke:#d2d1bc;stroke-width:0.370091;stroke-opacity:0.876033;paint-order:fill markers stroke"
       d="m 285.21875,95.14573 c -1.35853,-0.82835 -1.75763,-1.49832 -2.27936,-3.82639 -0.7279,-3.248021 0.78713,-6.631521 2.96938,-6.631521 1.06547,0 2.68349,1.08452 3.15195,2.11268 1.2004,2.63459 0.67695,7.026541 -0.99412,8.341001 -1.11535,0.87734 -1.41521,0.87778 -2.84785,0.004 z"
       id="path10-5"
       sodipodi:nodetypes="sssssss" /><path
       style="fill:#ececec;fill-opacity:0.738292;stroke:#d2c5bc;stroke-width:0.0925229;stroke-opacity:0.876033;paint-order:fill markers stroke"
       d="m 241.83802,107.30032 c 0.37493,-0.47238 0.46023,-2.82992 0.17177,-4.7475 -0.78991,-5.25107 -3.77691,-11.21931 -7.43217,-14.850001 -0.65232,-0.64794 -1.47594,-1.3587 -1.94223,-1.6761 -0.82792,-0.56355 -2.36877,-1.3839 -2.59937,-1.3839 -0.19347,0 -0.27182,0.73779 -0.25806,2.43 0.0202,2.48466 0.37442,4.474871 1.28141,7.200001 1.39046,4.17767 3.66519,7.96924 6.24706,10.41272 1.00572,0.95181 1.83372,1.54109 3.12762,2.22592 0.96566,0.51109 1.24545,0.58859 1.40397,0.38886 z"
       id="path12-1"
       sodipodi:nodetypes="ssssssssss" /><path
       id="path13-7"
       style="fill:#44aa00;fill-opacity:0.738292;stroke:#d2c5bc;stroke-width:0.185046;stroke-opacity:0.876033;paint-order:fill markers stroke"
       d="m 235.71953,122.02457 -1.6769,0.47956 c -3.25838,0.93171 -6.33666,2.3513 -9.0656,4.18114 -11.5879,7.77002 -19.80695,23.17746 -21.33203,39.98826 -0.34726,3.82786 -0.121,10.08135 0.51831,14.31437 l 0.51677,3.41994 -0.32195,2.07016 c -1.39303,8.96153 1.51973,16.47648 7.05384,18.19889 1.32749,0.41316 1.80119,0.42298 3.00963,0.0641 2.59292,-0.77001 4.51847,-4.37627 5.32991,-9.98337 0.24983,-1.72639 0.32191,-1.93362 0.83561,-2.39727 0.53231,-0.48044 0.58033,-0.49169 0.89865,-0.20361 0.37674,0.34094 0.58693,0.92824 0.89917,2.51096 0.26477,1.34208 0.82398,2.56167 1.28829,2.81017 0.4639,0.24827 0.9709,-0.19636 1.42576,-1.25006 0.2734,-0.63334 0.33693,-1.23358 0.33693,-3.19412 0,-2.30356 -0.0336,-2.52383 -0.72451,-4.80022 -1.31214,-4.32324 -1.67087,-6.45592 -1.6893,-10.03556 -0.0177,-3.43864 0.1568,-4.76457 1.00252,-7.62124 1.8797,-6.34921 6.44878,-13.46176 12.56461,-19.55902 3.88868,-3.87686 6.71235,-5.5641 7.60729,-4.54494 0.79535,0.90573 0.83434,0.84872 -3.8561,5.59449 -2.41374,2.44222 -5.10111,5.3318 -5.97224,6.4208 -3.78763,4.73491 -6.07884,8.98573 -7.48327,13.88494 -0.53805,1.87692 -0.54932,1.99777 -0.54932,5.89576 v 3.97961 l 1.0542,3.68969 c 1.04982,3.67438 1.05522,3.7031 1.18598,6.86418 l 0.13125,3.17449 -0.5488,1.30638 c -0.30188,0.71847 -0.76096,1.612 -1.02009,1.98592 -1.10258,1.59103 -2.86523,2.16715 -4.46536,1.45934 l -0.83716,-0.37052 v 0.59583 c 0,1.78977 -2.76931,5.30994 -5.13147,6.5226 -0.8198,0.42086 -1.34725,0.80343 -1.34772,0.97772 -0.17291,-0.24473 0.53398,0.87794 0.39222,2.07016 -0.75783,6.37355 0.2991,9.56862 1.73102,11.58242 -1.47322,0.13502 -4.1719,1.15053 -5.47808,2.38934 -2.96577,2.81279 -5.16757,7.17732 -7.28792,14.44563 -1.54947,5.31138 -2.23256,9.64926 -2.24586,14.26269 -0.009,3.0077 0.0202,3.38053 0.33486,4.32428 0.72029,2.16004 1.7375,2.8681 4.25866,2.9652 4.39277,0.16923 7.94063,-1.6188 11.12593,-5.60741 1.81358,-2.27095 2.94553,-4.43258 4.1088,-7.84603 l 0.62993,-1.84795 2.17041,0.78806 c 3.31521,1.20358 7.17331,2.35576 9.35344,2.79363 1.71702,0.34481 2.31881,0.39488 4.75681,0.39688 2.34491,0.002 3.04795,-0.0517 4.40025,-0.33383 4.94508,-1.03152 8.58731,-3.05076 12.49898,-6.9293 l 1.60662,-1.59267 2.63601,0.87747 c 5.86724,1.95368 9.76296,3.71243 13.6679,6.16965 5.5255,3.47695 8.91524,6.8066 12.63179,12.40906 2.07169,3.12293 2.61248,3.84736 3.66283,4.90668 1.08078,1.08999 2.21093,1.81738 3.22357,2.07481 1.03129,0.26217 1.82355,0.24093 3.17759,-0.0858 2.35914,-0.56923 4.88078,-1.91934 9.01288,-4.82554 2.16648,-1.52373 5.89768,-4.42878 7.90805,-6.15725 8.32631,-7.15873 13.05076,-11.85571 14.34434,-14.26011 0.9558,-1.77655 0.78574,-2.69253 -0.76223,-4.10156 -2.68486,-2.44388 -5.48467,-3.58231 -8.81651,-3.58531 -2.59657,-0.002 -4.65118,0.48551 -7.2347,1.71669 -2.43936,1.16248 -4.10562,2.27909 -7.34632,4.92373 -0.87852,0.71692 -1.62448,1.27784 -1.65778,1.24644 -0.0333,-0.0314 -0.31281,-0.61469 -0.62116,-1.29656 -0.82181,-1.81725 -3.16632,-6.04442 -4.26588,-7.69101 -2.20566,-3.30298 -5.19262,-6.48691 -8.10597,-8.6403 l -0.4284,-0.31677 c 0,0 -6.95316,-4.38307 -9.08523,-5.40949 -0.15767,-0.0745 -0.60503,-0.82737 -0.75378,-0.89673 -1.13537,-0.8339 3.73367,-6.82609 7.2034,-12.98052 3.08775,-5.4769 4.86871,-11.24118 3.37975,-11.16807 -2.14785,0.10546 -1.92751,3.2562 -20.25664,2.9676 -5.17489,-0.006 -7.48511,-0.15739 -7.84138,-0.51367 -0.11947,-0.11946 -0.2403,-2.55768 -0.32815,-6.62957 -0.22045,-10.2178 -0.51459,-13.02732 -2.34456,-22.37124 -0.69831,-3.56557 -0.81607,-5.17727 -0.40669,-5.57847 0.0882,-0.0865 2.3883,-0.24594 5.1108,-0.3545 5.45922,-0.21768 12.43537,-0.63581 15.18357,-0.91002 0.97574,-0.0974 2.49447,-0.17674 3.37498,-0.17674 0.88051,0 1.60094,-0.0711 1.60094,-0.15813 0,-0.21626 -2.01511,-5.52616 -3.59461,-9.47177 -1.2257,-3.06179 -5.49997,-13.09312 -7.59592,-17.8263 l -0.95912,-2.16576 -0.99012,0.24288 c -1.64292,0.40303 -6.21291,0.47601 -9.16481,0.14676 -8.07908,-0.9011 -17.03637,-3.66344 -23.44818,-7.23108 z m 44.1234,99.504 c 2.02274,1.04515 4.03203,2.2127 5.60379,3.30988 6.6142,4.61708 10.04183,8.94565 14.40998,18.19889 0.76112,1.61232 1.22509,2.1208 1.93425,2.1208 0.37999,0 0.76178,-0.26666 2.04535,-1.42782 3.78609,-3.425 6.31374,-5.20105 8.94364,-6.28489 1.625,-0.66968 4.10625,-1.21168 5.52886,-1.20768 2.16369,0.006 4.23264,0.74264 6.1743,2.19832 1.364,1.02261 1.51273,1.35021 0.98909,2.17713 -1.18535,1.87193 -5.9944,6.62254 -11.76569,11.62306 -7.4543,6.45878 -13.20365,10.49978 -16.56643,11.64322 -2.0727,0.70477 -2.92037,0.66366 -4.11913,-0.19896 -0.79583,-0.57267 -1.43234,-1.36762 -3.3445,-4.17804 -2.52377,-3.70931 -3.17539,-4.60379 -4.4819,-6.15207 -3.98329,-4.72036 -10.36916,-9.17596 -17.52658,-12.22872 -2.29522,-0.97897 -3.23465,-1.31035 -8.847,-3.1228 -6.04057,-1.95074 -8.93816,-2.66483 -12.48193,-5.04827 -5.98733,-4.02692 -13.27723,-6.55888 -10.66125,-6.50876 5.27367,0.10104 7.74787,-0.49559 10.33196,-0.71921 10.28123,-0.88972 24.01381,-6.71172 33.83319,-4.19408 z m -63.11708,3.58893 c 1.15824,0 1.98127,0.22254 4.88188,1.32034 3.16672,1.19851 3.92909,1.37172 6.04717,1.37872 1.90114,0.006 2.77869,-0.1824 4.18631,-0.89555 l 0.69815,-0.35347 1.70532,1.5596 c 4.31168,3.94229 11.23103,7.8846 18.72289,10.66756 0.83148,0.30887 1.51205,0.60743 1.51205,0.66353 0,0.0561 -0.78518,0.81898 -1.74459,1.6955 -2.4919,2.27664 -4.65596,3.55024 -7.53495,4.43436 -2.06629,0.63455 -3.4153,0.81235 -6.07094,0.79995 -3.76461,-0.0175 -6.42842,-0.63479 -13.89838,-3.22099 -1.71703,-0.59446 -3.27282,-1.08056 -3.45715,-1.08056 -0.43199,0 -1.05506,0.58934 -1.18494,1.12086 -0.56153,2.29789 -1.66372,5.28547 -2.63602,7.14427 -1.66044,3.17437 -4.91452,6.32707 -7.48791,7.25486 -0.97083,0.35002 -3.56646,0.52823 -4.16151,0.28577 -0.40256,-0.16404 -0.88845,-1.01375 -1.04541,-1.82832 -0.0612,-0.31787 -0.10784,-1.64245 -0.10284,-2.94297 0.0286,-7.8471 2.98186,-18.63654 6.68383,-24.41866 1.60686,-2.50976 3.07232,-3.5848 4.88704,-3.5848 z"
       sodipodi:nodetypes="ccsscccscsssssssssssssssscscccsccsscscsssssscccscscccssssssssscsssssccscsscssscscsssccsscccsssssssssssssssssscsccccsssscssssssscsss" /><path
       style="fill:#43aa00;fill-opacity:0.741176;stroke:#d2c5bc;stroke-width:0.49454;stroke-opacity:0.876033;paint-order:fill markers stroke"
       d="m 195.06793,920.15744 c -2.03505,-0.30483 -3.43707,-1.79623 -4.6145,-4.90865 -0.96523,-2.55147 -1.00386,-3.30485 -0.76683,-14.95375 0.25492,-12.52851 0.96036,-19.21192 3.24961,-30.78754 3.52151,-17.80653 10.25719,-38.21445 16.82772,-50.98497 5.63678,-10.95571 11.22966,-17.8681 16.5726,-20.48255 2.51911,-1.23267 3.40657,-1.41004 6.9753,-1.39409 3.72461,0.0167 4.79627,0.26686 12.02639,2.80791 20.15495,7.08352 18.60518,6.68873 27.19763,6.92834 8.61142,0.24014 11.50145,-0.23505 16.98873,-2.79336 l 3.05614,-1.42484 5.1218,4.60259 c 16.82518,15.11954 39.80531,28.65381 66.86811,39.38231 10.37768,4.11402 10.66705,4.26517 9.86407,5.15244 -1.93462,2.13774 -11.12207,9.99698 -14.56785,12.46181 -6.96646,4.98324 -14.72962,8.443 -24.57129,10.95052 -4.82568,1.22951 -5.58775,1.28615 -17.07746,1.2691 -11.16985,-0.0166 -12.45515,-0.1093 -18.04661,-1.30216 -8.04374,-1.716 -15.06378,-3.79111 -32.19561,-9.51694 -7.89264,-2.63789 -15.09204,-4.79616 -15.99868,-4.79616 -2.75795,0 -3.97846,1.79907 -6.18809,9.12142 -4.0061,13.27559 -8.44524,22.94691 -13.81931,30.10744 -6.27259,8.35775 -15.84886,16.46015 -22.31267,18.87858 -3.23687,1.21107 -11.42926,2.15588 -14.5892,1.68255 z"
       id="path2"
       transform="matrix(0.26458333,0,0,0.26458333,155.12031,14.449225)" /><path
       style="fill:#43aa00;fill-opacity:0.741176;stroke:#d2c5bc;stroke-width:0.49454;stroke-opacity:0.876033;paint-order:fill markers stroke"
       d="m 526.51505,944.07884 c -4.9643,-1.11234 -8.5735,-4.8277 -18.00911,-18.53883 -9.07561,-13.18801 -12.84452,-18.29575 -17.38546,-23.56128 -16.13438,-18.70893 -41.60782,-35.8845 -70.4376,-47.49285 -2.6458,-1.06533 -12.42664,-2.98436 -23.81394,-6.759 -71.18577,-23.59643 -108.20006,-48.55395 -91.0495,-47.36062 50.29856,3.49976 75.54169,-15.96785 138.38976,-19.80913 8.65717,-0.52913 16.17824,-0.72674 27.33448,2.33354 l 4.76151,2.6596 c 17.97773,10.04166 32.37331,21.23434 42.70986,33.20728 8.69941,10.07663 15.56674,20.90842 24.39817,38.48307 3.05795,6.08535 6.07868,11.75024 6.71273,12.58864 0.63406,0.83841 1.91788,1.77686 2.85293,2.08546 2.29115,0.75614 3.36273,0.0847 12.10354,-7.58401 20.58622,-18.06124 33.8788,-24.80186 50.25056,-25.4819 5.57953,-0.23176 6.44494,-0.14688 10.58322,1.03797 5.08642,1.45632 10.19133,4.03747 14.41883,7.29046 3.40451,2.6197 4.48908,4.1102 4.10483,5.64117 -0.58622,2.3357 -5.65002,8.16548 -16.37961,18.85725 -29.2535,29.1504 -66.33854,58.84521 -84.67562,67.80161 -7.4522,3.63989 -13.63492,5.32638 -16.86958,4.6016 z"
       id="path3"
       transform="matrix(0.26458333,0,0,0.26458333,155.12031,14.449225)"
       sodipodi:nodetypes="ssssssscssssssssssssss" /></g></svg>
