<?xml version="1.0" encoding="UTF-8" standalone="no"?>
<!-- Created with Inkscape (http://www.inkscape.org/) -->

<svg
   width="126.92516mm"
   height="253.58606mm"
   viewBox="0 0 126.92517 253.58607"
   version="1.1"
   id="svg1"
   xml:space="preserve"
   inkscape:version="1.4 (86a8ad7, 2024-10-11)"
   sodipodi:docname="sideFacing-angry-teletubbie-Running-other side.svg"
   xmlns:inkscape="http://www.inkscape.org/namespaces/inkscape"
   xmlns:sodipodi="http://sodipodi.sourceforge.net/DTD/sodipodi-0.dtd"
   xmlns="http://www.w3.org/2000/svg"
   xmlns:svg="http://www.w3.org/2000/svg"><sodipodi:namedview
     id="namedview1"
     pagecolor="#ffffff"
     bordercolor="#000000"
     borderopacity="0.25"
     inkscape:showpageshadow="2"
     inkscape:pageopacity="0.0"
     inkscape:pagecheckerboard="0"
     inkscape:deskcolor="#d1d1d1"
     inkscape:document-units="mm"
     inkscape:zoom="0.51969074"
     inkscape:cx="376.18527"
     inkscape:cy="372.33682"
     inkscape:window-width="1920"
     inkscape:window-height="1027"
     inkscape:window-x="-8"
     inkscape:window-y="1072"
     inkscape:window-maximized="1"
     inkscape:current-layer="layer1" /><defs
     id="defs1" /><g
     inkscape:label="Layer 1"
     inkscape:groupmode="layer"
     id="layer1"
     transform="translate(-373.12629,-13.271158)"><path
       style="fill:#800080;fill-opacity:1;stroke-width:0.590729"
       d="m 459.81565,91.660041 c 1.48034,-0.37644 2.78763,-1.1214 2.55752,-1.45742 -0.0565,-0.0824 -0.0239,-0.10592 0.0723,-0.0523 0.20909,0.11663 0.91751,-0.61123 1.36449,-1.40193 0.34886,-0.61713 0.44602,-1.11694 0.14161,-0.72849 -0.13643,0.17411 -0.16087,0.17695 -0.11195,0.013 0.0344,-0.11536 0.1939,-0.22714 0.35442,-0.2484 0.57333,-0.0759 0.71444,-0.19262 1.07867,-0.89193 0.45035,-0.86462 0.65927,-2.75624 0.34247,-3.10073 -0.47086,-0.51202 -0.78285,-0.26984 -1.23668,0.95998 -0.24077,0.65247 -0.48747,1.21359 -0.54822,1.24695 -0.0988,0.0542 -4.23975,-1.64249 -9.12605,-3.73931 -4.23941,-1.81923 -4.40133,-1.84433 -4.73542,-0.73404 -0.20161,0.67004 -0.10995,2.56456 0.19762,4.0844 0.22089,1.09155 1.24754,3.05115 2.01292,3.84214 1.77449,1.83386 5.20592,2.82608 7.63626,2.20806 z m -1.07269,-0.17892 c 0.15836,-0.0373 0.41749,-0.0373 0.57584,0 0.15836,0.0374 0.0288,0.0679 -0.28792,0.0679 -0.31671,0 -0.44627,-0.0306 -0.28792,-0.0679 z m -1.97088,0.0126 c 0,0.0698 0.19657,-0.0546 0.31534,-0.0117 0.13125,0.0474 0.0923,0.0826 -0.0994,0.0897 -0.17344,0.007 -0.21594,-0.14778 -0.21594,-0.078 z m 4.72669,-0.70876 c 0,-0.0308 0.12956,-0.14776 0.28792,-0.25983 0.26095,-0.1847 0.26677,-0.17944 0.0621,0.0561 -0.21493,0.24733 -0.35004,0.32598 -0.35004,0.20378 z m -4.71363,-0.74497 c -2.46089,-0.59133 -3.91009,-1.95921 -4.65392,-4.39278 -0.34877,-1.14105 -0.45941,-2.82411 -0.18565,-2.82411 0.0846,0 1.58385,0.62204 3.33165,1.3823 1.7478,0.76027 4.12336,1.77224 5.27901,2.24882 2.35799,0.97243 2.32089,0.91661 1.40833,2.119 -0.59168,0.77961 -1.60737,1.32989 -2.77798,1.50507 -1.27948,0.19148 -1.45697,0.18865 -2.40144,-0.0383 z m 7.83962,-2.73411 c 0.0732,0 0.11226,-0.2498 0.24946,-0.40832 0.23133,-0.26726 0.23539,-0.25853 0.0558,0.1201 -0.19371,0.40854 -0.55537,0.28822 -0.30531,0.28822 z m -13.93256,-0.9471 c 0.14137,0 0.0915,-0.0833 0.0994,0.0897 0.007,0.15653 -0.0317,0.24422 -0.0864,0.19488 -0.0547,-0.0493 -0.14091,-0.28458 -0.013,-0.28458 z m 13.58309,-0.60567 c 0.16249,-0.14555 0.18139,-0.1285 0.0921,0.0831 -0.0618,0.14643 -0.15378,0.22884 -0.20443,0.18312 -0.0507,-0.0457 -1.1e-4,-0.16552 0.11233,-0.26624 z m -13.90871,-0.73993 c 0.0456,-0.10208 0.083,-0.0186 0.083,0.1856 0,0.20416 -0.0373,0.28768 -0.083,0.1856 -0.0456,-0.10208 -0.0456,-0.26912 0,-0.3712 z m 10.05842,-0.0827 c 0.0507,-0.0457 0.18341,-1e-4 0.29501,0.10138 0.16128,0.14664 0.14238,0.16369 -0.0921,0.0831 -0.16226,-0.0558 -0.25357,-0.13878 -0.20291,-0.1845 z m -1.89516,-0.6751 c 0,-0.0989 0.27334,-0.0596 0.43748,0.0234 0.25563,0.12911 0.23602,0.14683 -0.14028,0.12674 -0.24149,-0.0129 -0.2972,-0.0512 -0.2972,-0.1501 z m -8.33284,-0.64995 c -0.16542,0 0.0786,-0.0622 0.0819,0.18277 0.003,0.24499 -0.0308,0.36319 -0.0758,0.26267 -0.0451,-0.10053 0.15933,-0.44544 -0.006,-0.44544 z m 14.83472,0.13721 c 0.0507,-0.0457 0.18341,-1e-4 0.29502,0.10138 0.16128,0.14664 0.14238,0.1637 -0.0921,0.0831 -0.16226,-0.0558 -0.25357,-0.13878 -0.20292,-0.1845 z m -14.83309,-0.79892 c 0.14136,0 0.0915,-0.0833 0.0994,0.0897 0.007,0.15652 -0.0317,0.24422 -0.0864,0.19488 -0.0547,-0.0493 -0.14092,-0.28459 -0.013,-0.28459 z m 2.25122,-1.39317 c 0,-0.0408 0.14808,-0.003 0.32905,0.0847 0.18098,0.0874 0.32905,0.19234 0.32905,0.23317 0,0.0408 -0.14807,0.003 -0.32905,-0.0847 -0.18097,-0.0874 -0.32905,-0.19234 -0.32905,-0.23317 z m -2.25122,0.0568 c 0.14136,0 0.0915,-0.0833 0.0994,0.0897 0.007,0.15652 -0.0317,0.24422 -0.0864,0.19488 -0.0547,-0.0493 -0.14092,-0.28459 -0.013,-0.28459 z m 1.01293,-0.5374 c 0.0507,-0.0457 0.18341,-1e-4 0.29501,0.10138 0.16128,0.14664 0.14238,0.16369 -0.0921,0.0831 -0.16226,-0.0558 -0.25357,-0.13879 -0.20291,-0.1845 z"
       id="path1"
       sodipodi:nodetypes="sccsscssssssssssscssscsssssssscssssssccsssssssssssccssssscsscsssssssssscsscsssssscscssssssssss" /><path
       id="path1-9"
       style="fill:#800080"
       d="m 426.91899,13.271175 c 2.8426,9.22e-4 3.14653,0.03593 4.56613,0.525549 10.9906,3.790687 11.84531,12.40147 9.88165,19.868796 -1.92958,7.337727 -6.61558,13.549446 -3.14615,15.457211 l 6.10816,1.98231 2.46651,0.78031 c 13.52062,4.27592 22.03966,14.14111 24.9623,28.90728 1.18264,5.97508 1.24034,6.08118 4.22713,7.75819 4.2049,2.36096 5.70776,5.23034 5.32733,10.17096 -0.95578,12.412869 -12.93215,22.992389 -31.58722,27.902689 -1.44019,0.37909 -1.5431,-0.0865 1.48466,6.71638 15.98952,35.92597 19.36511,55.65478 11.82925,69.1379 l -0.66404,1.18856 c -5.01347,6.88056 -9.25086,10.25689 -13.41176,12.44864 -5.37092,2.82914 -10.61437,3.68458 -17.23495,7.55531 l -1.52134,0.14989 -3.41414,0.60551 -4.89337,1.22897 c -6.17693,0.93372 -8.81688,3.27166 -13.37657,2.67141 -1.22892,-0.16178 -0.54253,0.42754 -1.94958,0.89646 -1.07323,0.35767 -4.26929,0.61866 -5.11927,0.58002 -1.08392,-0.0493 1.3687,0.15673 0.25518,0.17598 -1.53301,0.0265 -6.60576,-0.13006 -7.79578,-0.24504 -7.2839,-0.70376 -10.43963,-2.95233 -8.65674,-10.89185 1.07416,-4.78341 0.94738,-12.55727 -0.91002,-13.00437 -5.19701,-1.25099 -9.50976,-7.17359 -10.41745,-14.30559 l -0.31058,-2.43861 0.49041,-3.54087 0.49041,-3.54035 -0.57051,-3.57756 c -3.0904,-19.38281 1.73224,-35.631 14.85439,-50.04604 4.29217,-4.71507 11.56453,-9.95089 15.46573,-11.13421 0.89366,-0.27107 0.75125,-0.60207 -1.33015,-3.08818 -5.68399,-6.78919 -9.07548,-12.98352 -10.98435,-20.063379 l -0.68057,-2.52542 -0.0145,-5.15938 -0.0145,-5.15938 0.57205,-2.24896 c 3.28272,-18.46417 17.54874,-27.23173 29.90072,-30.42839 0.11605,-0.03 0.1304,-0.14599 0.0721,-0.21967 -1.40269,-8.751452 -12.70714,-12.105061 -9.14314,-24.273651 1.37431,-4.692252 5.26843,-8.869274 9.60975,-10.308414 1.41861,-0.470265 1.773,-0.509936 4.58267,-0.509013 z m -0.0951,9.474357 c -1.86969,0.009 -3.75357,1.241285 -4.71186,3.082499 -0.65911,1.266428 -0.81233,3.66119 -0.33848,5.287533 0.43925,1.5076 2.21259,3.277847 3.72794,3.721736 1.36491,0.399822 1.97844,0.368427 3.30368,-0.168982 1.37925,-0.559315 2.44059,-1.55021 3.1197,-2.914034 0.44936,-0.902382 0.51418,-1.257925 0.51418,-2.819466 0,-1.641095 -0.0514,-1.889599 -0.62683,-3.043225 -1.03437,-2.073605 -2.75204,-3.156854 -4.98833,-3.146061 z m 30.06897,41.834139 -1.52704,0.15916 c -1.65192,-0.0659 -2.74743,0.81402 -3.9486,1.68466 -1.60752,1.16517 -3.22823,2.62816 -4.93665,4.80022 -2.44296,3.10592 -4.15276,7.16846 -5.27668,11.62771 l -0.78083,3.00913 -0.48937,3.50883 c -0.37034,2.65489 0.0364,3.69324 0.0816,5.11183 0.0355,1.11464 -0.1645,2.73815 0.39843,4.63744 0.77168,2.603549 1.93746,5.332009 3.35122,7.587649 3.29073,5.25033 8.27713,7.63267 13.36352,9.43095 4.99787,1.76699 8.21054,1.09861 11.69955,-2.84685 0.0919,-0.10393 0.54321,-0.27528 0.46043,-0.39585 -0.0556,-0.0809 0.86511,-0.7877 0.76533,-0.82527 -1.6402,-0.61751 -8.18961,-6.18832 -12.5556,-6.72707 -1.84153,-0.22724 -4.01367,3.46712 -4.24428,2.77667 -1.11206,-3.32961 2.36323,-4.99051 3.08215,-4.56016 0.26206,0.15687 2.66803,-0.12541 2.84932,-0.032 0.29932,0.15422 0.7495,0.47861 1.747,0.70945 2.65588,0.61461 4.70129,2.99694 6.3546,3.91683 1.53036,0.85148 2.72997,0.75293 3.79931,0.42399 0.20082,-0.0899 0.79887,-0.21855 0.98443,-0.29714 0.10897,-0.0461 0.42648,0.22364 0.52452,0.15968 2.51952,-1.6435 4.40095,-5.10463 3.22461,-5.03018 -0.27424,0.0174 -0.96081,-0.30206 -1.95854,-0.28009 -1.44772,0.0319 -3.57388,0.0174 -6.29471,-1.13637 -1.05813,-0.44869 7.47894,-2.729379 7.71271,-2.805509 l 2.14406,-0.93689 0.10955,-1.52239 -0.19275,-1.20354 -0.54467,-1.32861 c -0.34707,-0.84691 -1.57878,-1.55665 -3.04943,-2.45721 -7.35962,-4.5067 -5.52883,-16.10159 -9.67951,-22.23482 -1.44548,-2.1359 -3.56387,-4.68998 -7.17372,-4.92425 z m -47.72526,54.882439 -2.04535,0.55966 c -19.54002,5.34596 -33.55977,32.38087 -29.82505,57.51277 l 0.66352,4.46432 -0.39894,2.47789 c -1.271,7.89852 1.18185,15.00642 6.00894,17.41186 5.13441,2.55859 8.91316,-1.60852 9.79113,-10.79728 0.0408,-0.4268 0.3222,-0.92814 0.63769,-1.13636 l 0.56431,-0.37259 0.39584,0.39584 c 0.21759,0.21759 0.48075,0.96709 0.58497,1.66553 0.51758,3.46881 1.88269,4.67788 2.85203,2.52646 l 0.56637,-1.25677 -0.0289,-2.38125 -0.0289,-2.38125 -0.93069,-3.04271 c -2.60599,-8.52149 -2.07461,-15.01613 1.87172,-22.87612 4.68419,-9.3296 16.6923,-21.28098 17.90433,-17.8201 l 0.24857,0.71055 -4.50981,4.44883 c -7.42661,7.32537 -11.46521,13.47868 -13.35422,20.34759 l -0.57516,2.09238 v 3.83646 3.83646 l 0.56793,1.98437 c 0.31244,1.0914 0.82721,2.87734 1.1436,3.96875 l 0.57515,1.98438 0.0171,3.0427 0.0171,3.04271 -0.5979,1.50534 c -1.04626,2.63362 -3.25064,3.93994 -5.09581,3.01945 -1.05015,-0.52391 -1.03249,-0.5251 -1.03249,0.0465 0,2.01824 -3.01584,5.85528 -5.3604,6.81974 -0.68856,0.28325 -1.2526,0.59699 -1.25315,0.69711 -5.5e-4,0.10011 0.17147,0.93355 0.3824,1.85209 0.61652,2.68484 0.76458,5.46937 0.42685,8.03413 -2.59696,4.27718 -2.38079,6.5939 -1.30439,8.60083 4.30867,8.03341 31.86493,0.28688 39.48967,-11.1676 2.00531,-3.06091 2.66831,-3.50264 3.43338,-2.28771 0.42527,0.67533 -1.39664,5.15943 -3.13986,7.72821 l -0.69918,1.03094 2.73161,-0.15916 c 14.40596,-0.83726 29.11442,-11.72605 32.22491,-23.85643 0.42163,-1.64428 0.73883,-3.28804 0.96686,-4.95835 -1.1822,1.22658 -7.10915,2.33916 -14.58515,2.95279 -3.57751,0.29365 -12.63202,0.1352 -13.32012,-0.23306 l -0.50333,-0.26923 -0.14572,-7.74785 c -0.16687,-8.90075 -0.62418,-12.85444 -2.58744,-22.36194 -0.45558,-2.20625 -0.54754,-3.16125 -0.35709,-3.70417 l 0.25632,-0.73122 2.50785,-0.0579 c 4.8694,-0.11191 14.19357,-0.62943 17.71107,-0.9834 3.20427,-0.32246 4.77611,-0.42182 5.26221,0.0868 -2.52486,-6.99806 -5.80377,-15.05117 -10.14667,-24.90701 l -2.30167,-5.22397 -0.70125,0.19172 c -7.18313,1.96287 -23.62626,-1.56546 -33.1835,-7.1205 z m 48.29525,38.59248 c -0.15243,1.31905 -7.26529,2.44454 -19.04897,2.83703 l -4.23333,0.14108 0.0522,0.46561 c 0.0285,0.25606 0.35267,1.95209 0.72037,3.76927 1.59313,7.87327 2.37138,15.58582 2.22622,22.05861 l -0.0884,3.93774 6.61458,-0.15038 c 6.51852,-0.14842 10.02476,-0.49242 15.15773,-1.48569 2.2659,-0.43847 3.84296,-0.43713 4.29431,0.15037 0.96761,-8.36233 -0.6829,-17.71792 -5.69474,-31.72364 z"
       sodipodi:nodetypes="csscccsssscccsccccssssssscccccssscccccscssscssssssscscscccsssssccssssssscccsscccccssccscccssccsscccccscccccccccccccsssssssccsccscscccscccsccccccccccscccsccsscc" /><path
       style="fill:#a7ac93;fill-opacity:0.738292;stroke:#d2d1bc;stroke-width:0.370091;stroke-opacity:0.876033;paint-order:fill markers stroke"
       d="m 451.09186,190.55594 c 1.584,-0.16448 4.4718,-0.56451 6.41733,-0.88897 1.94553,-0.32445 4.01103,-0.52039 4.59,-0.43541 l 1.05267,0.1545 v -4.0516 c 0,-4.70361 -0.43126,-8.23029 -1.6319,-13.34502 -0.73237,-3.1199 -3.54895,-12.38176 -3.99808,-13.14703 -0.0802,-0.13659 -0.69359,-0.0194 -1.36317,0.26033 -1.81233,0.75724 -8.94889,1.59589 -15.77276,1.85353 -3.31875,0.12529 -6.03409,0.26548 -6.03409,0.31152 0,0.046 0.32934,1.68104 0.73186,3.63334 1.31808,6.39283 2.14814,14.23827 2.14814,20.30339 v 5.74624 l 5.49,-0.0479 c 3.0195,-0.0263 6.786,-0.18246 8.37,-0.34693 z"
       id="path6" /><path
       style="fill:#a7ac93;fill-opacity:0.738292;stroke:#d2d1bc;stroke-width:0.370091;stroke-opacity:0.876033;paint-order:fill markers stroke"
       d="m 415.55316,104.64076 c 0.49567,-1.2071 0.19068,-4.992209 -0.61636,-7.649199 -1.97667,-6.50778 -6.0694,-12.34203 -10.10061,-14.3986 -0.77861,-0.39721 -1.48108,-0.72221 -1.56106,-0.72221 -0.45889,0 -0.51836,3.6343 -0.0988,6.03764 1.1925,6.8308 5.34065,13.791029 9.71415,16.299479 2.15857,1.23806 2.32118,1.2645 2.66267,0.43289 z"
       id="path7" /><path
       style="fill:#e2e3e3;fill-opacity:0.738292;stroke:#d2d1bc;stroke-width:0.370091;stroke-opacity:0.876033;paint-order:fill markers stroke"
       d="m 464.06059,117.17455 c 2.29375,-1.31186 4.45847,-3.31618 5.16433,-4.10271 0.62995,-0.70195 -2.63057,-1.19048 -1.01759,-0.90266 0.56701,0.10118 -6.83556,-5.11831 -9.82024,-5.78194 -0.85724,-0.1906 -1.46639,-0.51105 -2.09884,-0.27683 -1.92641,0.71345 -3.01541,3.14898 -3.48816,2.44448 -0.59704,-0.88971 -0.20133,-6.07745 7.33599,-4.12501 3.58442,0.9285 5.56313,4.73316 9.34666,4.73522 3.18429,0.002 3.76755,-0.28627 5.19217,-2.56383 0.70831,-1.13238 1.28783,-2.26643 1.28783,-2.52013 0,-0.33714 -0.84765,-0.47092 -3.15,-0.49715 -3.826,-0.0436 -4.91808,-0.31143 -5.0513,-1.23887 -0.0882,-0.61383 0.3551,-0.81237 3.41999,-1.5318 1.93672,-0.4546 4.04781,-1.054282 4.69131,-1.332622 1.08762,-0.47043 1.17,-0.62794 1.17,-2.23712 0,-1.9832 -0.67612,-2.91227 -3.50595,-4.81763 -3.79514,-2.55531 -4.31444,-3.43059 -5.64066,-9.5073 -1.78908,-8.19752 -2.34373,-9.77265 -4.62884,-13.14536 -14.53727,-21.456273 -42.4874,37.497212 -5.55864,47.115922 2.81629,0.73355 4.64058,1.26412 6.35194,0.28534 z"
       id="path8"
       sodipodi:nodetypes="ssssssscssssssssssss" /><path
       style="fill:#ececec;fill-opacity:0.738292;stroke:#d2d1bc;stroke-width:0.370091;stroke-opacity:0.876033;paint-order:fill markers stroke"
       d="m 449.47186,190.33664 c 0.891,-0.0706 4.09425,-0.45452 7.11834,-0.8532 3.02408,-0.39867 5.65658,-0.62707 5.85,-0.50753 0.5469,0.338 0.42301,-7.4236 -0.18263,-11.44157 -0.56495,-3.74806 -1.56065,-7.73002 -3.53164,-14.12358 -1.39835,-4.53602 -0.80074,-4.21799 -6.19407,-3.29632 -3.50685,0.59928 -11.99932,1.31632 -15.59036,1.31632 -1.22631,0 -2.22964,0.0704 -2.22964,0.15646 0,0.0861 0.23611,1.27891 0.52469,2.65079 1.44018,6.84634 2.35531,15.36131 2.35531,21.91527 v 4.43748 l 5.13,-0.0629 c 2.8215,-0.0346 5.859,-0.12064 6.75,-0.19122 z"
       id="path9" /><path
       style="fill:#ececec;fill-opacity:0.738292;stroke:#d2c5bc;stroke-width:0.0925229;stroke-opacity:0.876033;paint-order:fill markers stroke"
       d="m 415.20411,104.84326 c 0.37492,-0.47238 0.46022,-2.82993 0.17176,-4.7475 -0.7899,-5.251069 -3.7769,-11.219309 -7.43217,-14.850009 -0.65231,-0.64793 -1.47594,-1.3587 -1.94222,-1.67609 -0.82792,-0.56356 -2.36878,-1.38391 -2.59938,-1.38391 -0.19347,0 -0.27182,0.73779 -0.25805,2.43 0.0202,2.48467 0.37441,4.47488 1.28141,7.20001 1.39045,4.17766 3.66519,7.96924 6.24706,10.412719 1.00571,0.9518 1.83372,1.54109 3.12762,2.22591 0.96566,0.5111 1.24545,0.58859 1.40397,0.38887 z"
       id="path12"
       sodipodi:nodetypes="ssssssssss" /><path
       style="fill:#800080;fill-opacity:0.738292;stroke:#d2c5bc;stroke-width:0.185046;stroke-opacity:0.876033;paint-order:fill markers stroke"
       d="m 425.87345,215.25075 c 6.19733,-9.82845 6.12476,-2.9432 1.75488,3.8443 l -0.27317,0.4243 1.78835,-0.12349 c 2.82129,-0.19482 5.28171,-0.59778 7.6752,-1.25705 11.39257,-3.13796 21.31932,-11.54856 24.59629,-20.83958 0.52973,-1.50192 1.58049,-6.02485 1.43376,-6.17157 -0.0386,-0.0386 -0.59363,0.11987 -1.2335,0.35206 -3.81046,1.3827 -11.24458,2.26399 -19.02328,2.25514 -5.17489,-0.006 -7.48516,-0.15714 -7.84144,-0.51342 -0.11946,-0.11946 -0.24007,-2.55793 -0.32792,-6.62982 -0.22045,-10.2178 -0.5149,-13.02694 -2.34486,-22.37086 -0.69831,-3.56557 -0.81569,-5.17719 -0.40631,-5.57839 0.0882,-0.0865 2.38791,-0.24602 5.11041,-0.35458 5.45922,-0.21768 12.43587,-0.63581 15.18407,-0.91002 0.97574,-0.0974 2.49449,-0.17701 3.375,-0.17701 0.88051,0 1.60093,-0.0712 1.60093,-0.15826 0,-0.21626 -2.01519,-5.52613 -3.5947,-9.47174 -1.22569,-3.0618 -5.50019,-13.09286 -7.59614,-17.82604 l -0.95916,-2.16604 -0.99,0.24286 c -1.64292,0.40303 -6.21292,0.47641 -9.16482,0.14717 -8.07909,-0.90111 -17.03644,-3.6634 -23.44825,-7.23104 l -2.10307,-1.17018 -1.67693,0.4795 c -3.25838,0.93172 -6.33649,2.35144 -9.06543,4.18127 -11.5879,7.77003 -19.8073,23.17763 -21.33237,39.98842 -0.34727,3.82786 -0.12071,10.08106 0.51859,14.31408 l 0.51653,3.41999 -0.32178,2.07001 c -1.39302,8.96153 1.5198,16.47657 7.0539,18.19897 1.32749,0.41317 1.80121,0.42331 3.00966,0.0644 2.59292,-0.77002 4.51811,-4.37631 5.32954,-9.98342 0.24984,-1.72638 0.3222,-1.93393 0.83589,-2.39758 0.53232,-0.48044 0.58036,-0.49131 0.89869,-0.20323 0.37673,0.34094 0.58703,0.9281 0.89927,2.51082 0.26476,1.34207 0.82375,2.56156 1.28806,2.81005 0.46389,0.24827 0.97099,-0.19628 1.42584,-1.24998 0.2734,-0.63334 0.33668,-1.23366 0.33668,-3.1942 0,-2.30356 -0.0332,-2.52369 -0.72411,-4.80008 -1.31213,-4.32324 -1.67124,-6.45615 -1.68967,-10.03579 -0.0177,-3.43864 0.15667,-4.76445 1.0024,-7.62112 1.8797,-6.34921 6.44889,-13.46198 12.56472,-19.55923 3.88868,-3.87687 6.71253,-5.56381 7.60747,-4.54465 0.79534,0.90573 0.83455,0.84884 -3.8559,5.59461 -2.41374,2.44221 -5.10136,5.33138 -5.97249,6.42039 -3.78764,4.73491 -6.07869,8.98607 -7.48313,13.88528 -0.53805,1.87692 -0.54929,1.99763 -0.54929,5.89562 v 3.97947 l 1.05423,3.68982 c 1.04983,3.67438 1.05478,3.70308 1.18555,6.86416 l 0.13131,3.17435 -0.54886,1.30632 c -0.30187,0.71848 -0.76087,1.61226 -1.02,1.98619 -1.10259,1.59103 -2.86521,2.16704 -4.46534,1.45923 l -0.83689,-0.3702 v 0.59569 c 0,1.78977 -2.76955,5.31002 -5.13171,6.52269 -0.81981,0.42086 -1.34705,0.80341 -1.34752,0.9777 -5.3e-4,0.15748 0.17595,1.08898 0.39194,2.07 0.56572,2.56947 0.0212,6.48858 -0.55,9.14973 -2.77867,2.9438 -2.07758,5.98954 -0.57956,7.82266 3.49121,4.27215 15.29917,4.35101 26.04912,-1.65252 3.71184,-2.07295 9.39363,-4.25749 11.83932,-8.13616 z"
       id="path13"
       sodipodi:nodetypes="sscssssscsssssssssscssscsssscssssssssssssssssssscsscssscsscscsss" /><g
       id="g2"
       transform="matrix(-0.71937082,0,0,0.70958651,540.51607,0.32586537)" /><path
       style="fill:#ff2a2a;fill-opacity:1;stroke:#d2c5bc;stroke-width:0.523388;stroke-opacity:0.876033;paint-order:fill markers stroke"
       d="m 460.6486,89.498581 c 2.46051,-1.24488 3.90059,-2.11635 -1.57728,-3.98678 l -7.24455,-2.47365 0.18668,1.31043 c 0.0411,0.28833 0.11009,0.52864 0.17727,0.80179 0.45194,1.83752 1.32625,3.76323 3.62074,4.47258 0.68159,0.21071 1.24762,0.3589 1.75348,0.43809 1.12247,0.17573 1.94866,0.0118 3.08366,-0.56246 z"
       id="path2-5"
       sodipodi:nodetypes="sscsssss" /><path
       style="fill:#ffffff;fill-opacity:0.738292;stroke:#d2c5bc;stroke-width:0.0462613;stroke-opacity:0.876033;paint-order:fill markers stroke"
       d="m 427.62096,35.024015 c 0.76142,-0.159909 1.85469,-0.649909 2.47309,-1.108427 0.94719,-0.702291 1.74275,-1.7985 2.11582,-2.915399 0.125,-0.374232 0.14572,-0.513368 0.18898,-1.269224 0.0553,-0.966402 -0.002,-2.221447 -0.1229,-2.67547 -0.0773,-0.291078 -0.56832,-1.343292 -0.79799,-1.709999 -0.85932,-1.372047 -2.01485,-2.183683 -3.53407,-2.482321 -0.26741,-0.05257 -0.6064,-0.07653 -1.06694,-0.07543 -0.58118,0.0013 -0.73626,0.01791 -1.11573,0.118841 -0.94286,0.250782 -1.73321,0.704143 -2.4687,1.416089 -1.25239,1.21231 -1.74977,2.523906 -1.75303,4.622816 -0.002,1.464649 0.24387,2.462466 0.81728,3.312985 0.67633,1.003184 1.57672,1.816312 2.54018,2.293983 0.84376,0.418327 2.01337,0.620797 2.72401,0.471551 z"
       id="path3-7" /><path
       style="fill:#ffffff;fill-opacity:0.738292;stroke:#d2c5bc;stroke-width:0.0462613;stroke-opacity:0.876033;paint-order:fill markers stroke"
       d="m 427.53092,35.000769 c 0.61941,-0.113917 1.7493,-0.596805 2.40603,-1.028285 0.44607,-0.293066 1.16344,-1.028586 1.50173,-1.539711 0.32835,-0.496099 0.63261,-1.108922 0.76445,-1.539676 0.17863,-0.583624 0.2306,-2.47414 0.095,-3.455102 -0.0522,-0.377586 -0.1571,-0.676759 -0.4627,-1.319672 -0.81091,-1.705991 -1.92444,-2.68681 -3.56346,-3.138774 -0.29413,-0.08111 -0.51643,-0.102994 -1.215,-0.119623 -0.77108,-0.01836 -0.89254,-0.01074 -1.2375,0.07747 -1.80885,0.462632 -3.38979,1.943 -3.93384,3.683577 -0.22049,0.705408 -0.27135,1.145238 -0.2714,2.347018 -4e-5,1.162299 0.041,1.520232 0.24829,2.164234 0.46431,1.442587 2.00058,3.01889 3.46454,3.554806 0.73002,0.267243 1.70331,0.405792 2.20388,0.313733 z"
       id="path4" /><path
       d="m 378.60285,253.04754 c 5.88769,-3.58841 5.88769,-3.58841 0,0 z m -1.82075,0.15467 c 7.70844,-3.74308 7.70844,-3.74308 0,0 z"
       style="fill:#44aa00;fill-opacity:0.738292;stroke:#d2c5bc;stroke-width:0.00317777;stroke-opacity:0.876033;paint-order:fill markers stroke"
       id="path1-92"
       sodipodi:nodetypes="sscc" /><path
       style="fill:#7f007f;fill-opacity:0.741176;stroke:#d2c5bc;stroke-width:0.370091;stroke-opacity:0.876033;paint-order:fill markers stroke"
       d="m 468.18641,263.85993 c 2.60374,-0.79489 7.59897,-4.03099 12.95998,-8.39595 4.94988,-4.0302 12.55062,-11.0396 14.46372,-13.33841 2.04216,-2.45391 1.99392,-2.64654 -1.0821,-4.32072 -4.72728,-2.57291 -9.98355,-1.13282 -17.02456,4.66437 -2.02755,1.66937 -3.93515,2.98733 -4.2391,2.9288 -0.67186,-0.12939 -1.37951,-1.21591 -4.17795,-6.41476 -1.18798,-2.20703 -3.16133,-5.26569 -4.38518,-6.79703 -2.05994,-2.57751 -15.30832,-16.82903 -17.57162,-15.7109 -4.56938,2.25738 -10.77579,4.94231 -16.13675,6.7035 -4.36335,1.43346 -8.34893,2.13346 -8.95588,2.47964 -0.42971,0.24508 -2.61257,0.60448 -4.79057,0.92139 -4.19875,0.61092 -6.16358,1.10476 -6.48872,1.63085 -0.10933,0.17689 0.81991,0.83498 2.06496,1.46242 1.24508,0.62744 3.10888,1.68044 4.14179,2.33999 3.39215,2.16601 5.57453,3.08957 13.99016,5.92045 9.00443,3.02895 12.973,4.8377 18.01728,8.21177 4.51908,3.02277 7.68101,6.25008 11.7783,12.02184 4.0709,5.7346 4.99126,6.43917 7.43624,5.69275 z"
       id="path5"
       sodipodi:nodetypes="sssssssssssssssssss" /><path
       style="fill:#7f007f;fill-opacity:0.741176;stroke:#d2c5bc;stroke-width:0.370091;stroke-opacity:0.876033;paint-order:fill markers stroke"
       d="m 382.81244,256.99014 c 3.45003,-1.56554 6.92438,-6.32589 8.53458,-11.69357 0.35637,-1.188 0.94324,-2.47974 1.30419,-2.87053 0.65085,-0.70467 0.69892,-0.69643 5.82112,0.99738 2.84067,0.93935 6.28293,1.94477 7.64945,2.23428 6.70391,1.42024 12.83912,-0.0961 17.74214,-4.3852 l 1.89307,-1.65599 -3.1753,-1.33492 c -4.96609,-2.08779 -8.79845,-4.12229 -12.52717,-6.65036 l -3.43501,-2.32894 -2.06655,0.40678 c -2.90592,0.57199 -9.94627,0.54847 -12.32657,-0.0412 -2.38471,-0.59075 -4.67529,-1.61805 -5.66618,-2.54119 -0.71641,-0.66743 -0.74345,-0.66272 -1.63809,0.28562 -2.34299,2.48367 -5.30421,9.81886 -6.71298,16.62875 -1.00531,4.85956 -1.37639,11.06569 -0.75184,12.57354 0.41706,1.00688 0.60023,1.10128 2.12278,1.09406 0.91649,-0.004 2.37103,-0.32769 3.23236,-0.71853 z"
       id="path10" /><path
       style="fill:#800080;fill-opacity:1;stroke:#d2c5bc;stroke-width:0.370091;stroke-opacity:0.876033;paint-order:fill markers stroke"
       d="m 469.28623,266.16107 c 3.04777,-0.93925 9.81615,-5.56055 16.50307,-11.2679 9.09318,-7.7611 14.07711,-13.1321 14.07711,-15.17038 0,-2.03096 -4.67649,-5.12907 -8.45471,-5.60113 -4.09459,-0.51158 -8.97935,1.3328 -14.28277,5.39287 -1.69695,1.29912 -3.1842,2.36204 -3.30496,2.36204 -0.12075,0 -0.55086,-0.72722 -0.95578,-1.61605 -2.5577,-5.61451 -6.83493,-11.55172 -10.55047,-14.64504 -1.94035,-1.6154 -10.89422,-9.69643 -12.72715,-9.88478 -0.60425,-0.0621 -2.40413,-0.60411 -1.28884,0.67122 1.57975,1.80645 6.67542,5.585 8.07286,7.24965 l 0.40635,0.26764 2.36847,2.13302 c 4.51787,4.06879 7.57084,7.09185 11.3765,14.38434 1.23238,2.36153 2.41319,4.18655 2.74871,4.24836 0.32353,0.0596 1.70053,-0.84594 3.06001,-2.01229 5.18049,-4.44456 8.52707,-6.13791 12.77361,-6.46337 2.93872,-0.22523 5.41472,0.51749 7.37547,2.21242 1.28344,1.10947 1.3521,1.2645 0.95041,2.14614 -1.09704,2.40777 -11.75121,12.26165 -19.76456,18.27996 -4.87818,3.6637 -8.10101,5.39085 -10.48705,5.62012 -2.27135,0.21824 -3.11497,-0.49556 -6.5794,-5.56695 -4.9971,-7.31501 -11.47934,-12.84803 -19.39118,-16.55166 -1.86698,-0.87395 -7.08787,-2.80999 -11.602,-4.3023 -7.07745,-2.33972 -8.87362,-2.82591 -12.05778,-5.04811 -6.01821,-4.20007 -7.53197,-4.933 -9.15935,-4.56615 l -1.33529,0.30102 2.52573,1.92869 c 3.10269,2.36924 8.47614,5.18618 12.74252,6.926 1.95834,0.79861 3.68991,1.57951 3.84789,1.73533 0.44974,0.44353 -3.81759,4.1777 -5.98725,5.23921 -2.95302,1.44478 -5.46479,1.98486 -9.24,1.98679 -3.87336,0.002 -6.96687,-0.6508 -13.39148,-2.82583 -3.1219,-1.05692 -4.30014,-1.31733 -4.55425,-1.00658 -0.18854,0.23056 -0.76584,1.68396 -1.28289,3.22978 -1.42671,4.26537 -2.60966,6.31603 -5.0279,8.71585 -2.48094,2.46205 -3.88914,3.22912 -6.58378,3.58635 -1.60047,0.21217 -1.96501,0.14191 -2.60999,-0.50308 -0.66765,-0.66763 -0.74969,-1.17803 -0.74969,-4.66254 0,-4.562 0.65727,-8.80583 2.18178,-14.08716 1.21383,-4.20497 4.10792,-10.44999 5.54553,-11.96639 0.78751,-0.83068 0.88879,-1.16524 0.64156,-2.11928 l -0.29355,-1.13288 -1.6396,1.82362 c -2.8798,3.20303 -5.41766,8.97654 -7.39137,16.81493 -0.68609,2.72481 -0.95396,4.91961 -1.10173,9.02801 -0.27318,7.59487 0.37505,8.792 4.76081,8.792 2.38345,0 5.37575,-1.07277 7.31676,-2.62311 2.76357,-2.20735 5.67907,-6.65511 6.89382,-10.5169 0.24911,-0.792 0.57563,-1.57414 0.72557,-1.7381 0.14994,-0.16395 2.52458,0.42703 5.27696,1.31331 2.7524,0.88627 6.29451,1.80697 7.87138,2.046 7.02326,1.0646 13.59559,-1.07639 19.10836,-6.22472 l 2.68471,-2.50723 3.8595,1.34382 c 12.02288,4.18617 19.39248,9.55443 25.70848,18.72692 4.45285,6.46675 6.09152,7.42945 10.39084,6.1045 z"
       id="path11"
       sodipodi:nodetypes="ssssssssssccsssssssssssssscsssscsssssssssscsssssssssscsss" /></g></svg>
