<?xml version="1.0" encoding="UTF-8" standalone="no"?>
<!-- Created with Inkscape (http://www.inkscape.org/) -->

<svg
   width="126.98555mm"
   height="250.5136mm"
   viewBox="0 0 126.98555 250.5136"
   version="1.1"
   id="svg1"
   xml:space="preserve"
   inkscape:version="1.4 (86a8ad7, 2024-10-11)"
   sodipodi:docname="sideFacing-kind-teletubbie-other direction.svg"
   xmlns:inkscape="http://www.inkscape.org/namespaces/inkscape"
   xmlns:sodipodi="http://sodipodi.sourceforge.net/DTD/sodipodi-0.dtd"
   xmlns="http://www.w3.org/2000/svg"
   xmlns:svg="http://www.w3.org/2000/svg"><sodipodi:namedview
     id="namedview1"
     pagecolor="#ffffff"
     bordercolor="#000000"
     borderopacity="0.25"
     inkscape:showpageshadow="2"
     inkscape:pageopacity="0.0"
     inkscape:pagecheckerboard="0"
     inkscape:deskcolor="#d1d1d1"
     inkscape:document-units="mm"
     inkscape:zoom="0.51969074"
     inkscape:cx="204.92957"
     inkscape:cy="560.91051"
     inkscape:window-width="1920"
     inkscape:window-height="1027"
     inkscape:window-x="-8"
     inkscape:window-y="1072"
     inkscape:window-maximized="1"
     inkscape:current-layer="layer1" /><defs
     id="defs1" /><g
     inkscape:label="Layer 1"
     inkscape:groupmode="layer"
     id="layer1"
     transform="translate(-27.659906,-11.301409)"><path
       id="path1"
       style="fill:#44aa00"
       d="m 90.701848,11.303164 c 1.19531,-0.123782 5.51921,6.292291 14.794372,21.79482 2.49926,4.177267 -4.95266,13.118292 -2.38859,17.164102 2.56428,4.046142 4.23361,4.326476 5.8361,5.009634 l 6.10828,1.982666 2.46652,0.780315 c 13.52061,4.275921 22.03965,14.14111 24.9623,28.907279 1.18263,5.975075 1.24034,6.081169 4.22713,7.758183 4.20491,2.360959 5.70775,5.23034 5.32732,10.170957 -0.95578,12.41287 -12.93214,22.99239 -31.58722,27.90269 -1.44019,0.37909 -1.54309,-0.0865 1.48467,6.71638 15.98952,35.92597 19.36511,55.65478 11.82925,69.1379 l -0.66404,1.18856 1.17202,4.01578 c 1.84477,6.32114 3.14704,12.69213 4.28242,20.9491 l 0.21808,1.5875 2.127,0.17622 c 5.27373,0.43761 10.76354,4.10663 12.90309,8.62325 l 0.84491,1.78387 v 2.11666 2.11667 l -0.71417,1.21543 c -2.18216,3.71189 -8.43318,5.70622 -19.97811,6.37481 l -5.34644,0.31005 -4.04627,-0.31264 c -9.22612,-0.71223 -11.41074,-1.8288 -12.09435,-6.18257 -1.25335,-7.98232 -5.79994,-18.31953 -10.01489,-22.77018 l -0.68885,-0.72761 h -3.161563 -3.161049 l -2.8174,2.71198 c -3.26479,3.14254 -6.80381,5.73055 -10.27431,7.51376 -2.86446,1.47181 -2.81765,1.36348 -1.12706,2.60449 9.44455,6.93294 9.24802,17.41175 -0.36793,19.60139 -1.14855,0.26141 -2.87182,0.33755 -5.97948,0.26355 l -4.36563,-0.10439 -2.77812,-0.65939 c -9.52072,-2.25957 -18.42425,-7.67645 -20.90726,-12.72016 l -0.86506,-1.75648 0.0196,-2.17919 c 0.033,-3.72594 1.32567,-6.51543 5.34954,-11.54297 2.92059,-3.64908 3.76548,-5.07118 4.65295,-7.83363 1.49952,-4.66757 0.94738,-12.55727 -0.91002,-13.00437 -5.19701,-1.25099 -9.50977,-7.17359 -10.41746,-14.30559 l -0.31057,-2.43861 0.49041,-3.54087 0.49041,-3.54035 -0.57051,-3.57756 c -3.0904,-19.38281 1.73224,-35.631 14.85439,-50.04604 4.29217,-4.71507 11.56452,-9.95089 15.46572,-11.13421 0.89366,-0.27107 0.75125,-0.60207 -1.33015,-3.08818 -5.68399,-6.78919 -9.07547,-12.98351 -10.98434,-20.06337 l -0.68058,-2.525432 -0.0145,-5.159375 -0.0145,-5.159375 0.57206,-2.248958 c 7.02803,-27.617469 29.7944,-23.15527 33.83975,-34.158466 0.85685,-2.44704 -8.85359,-9.581313 -8.54317,-14.597653 0.0945,-1.526828 1.51559,-24.968891 2.7853,-25.100377 z M 126.0887,70.887985 c -1.65192,-0.06593 -2.74729,0.814222 -3.94846,1.684861 -1.60752,1.165176 -3.22833,2.627939 -4.93675,4.799995 -2.44296,3.105923 -4.15275,7.168776 -5.27667,11.628026 l -0.78069,3.008757 -0.48946,3.508795 c -0.37034,2.654897 0.0368,3.693438 0.082,5.112031 0.0355,1.11464 -0.16481,2.73825 0.39813,4.63754 0.77167,2.60355 1.93731,5.33196 3.35106,7.5876 3.29073,5.25033 8.27746,7.63248 13.36385,9.43076 4.99787,1.76699 8.21038,1.09872 11.69939,-2.84674 0.0919,-0.10393 0.54335,-0.2753 0.46056,-0.39587 -0.0556,-0.0809 0.86947,-0.80132 0.76553,-0.82512 -1.77396,-0.40608 -9.05188,-2.44016 -11.25128,-5.80429 -0.82654,-1.26426 -2.28574,-2.32725 -1.7687,-2.91609 0.91804,-1.04553 1.46158,-0.98438 2.06943,-0.66768 0.27087,0.14112 0.55305,0.12217 0.73434,0.21558 0.29932,0.15422 0.3909,0.5954 1.0945,1.3392 2.56836,2.71511 4.33101,3.34158 5.85956,3.89445 1.8107,0.6549 3.22487,0.92526 4.29421,0.44666 0.20082,-0.0899 0.79888,-0.21875 0.98444,-0.29734 0.10897,-0.0461 0.42679,0.22358 0.52483,0.15962 2.51952,-1.6435 4.40063,-5.10452 3.22429,-5.03007 -0.27424,0.0174 -0.96042,-0.3021 -1.95815,-0.28013 -1.44772,0.0319 -3.57415,0.0175 -6.29497,-1.13626 -1.05814,-0.44869 7.47922,-2.72931 7.71298,-2.80544 l 2.14369,-0.93713 0.10977,-1.52212 -0.19302,-1.20392 -0.54436,-1.32832 c -0.34707,-0.846904 -1.57866,-1.556983 -3.04931,-2.457542 -7.35962,-4.506692 -5.52916,-16.101564 -9.67984,-22.234797 -1.44548,-2.135902 -3.5638,-4.689842 -7.17365,-4.924115 z m -52.470342,16.924226 -0.17931,1.5844 c -0.83677,7.39613 4.55491,18.443409 10.48256,21.478279 0.48064,0.24609 1.19018,0.52383 1.57665,0.61753 l 0.7028,0.17053 0.20102,-0.61805 c 2.22069,-6.81864 -5.485,-21.522879 -12.0897,-23.069908 z m 56.506632,0.987537 c 0.336,-0.0081 0.6921,0.06036 1.0635,0.216524 2.47843,1.042101 3.04074,7.166906 0.85835,9.3493 -1.33427,1.334273 -3.35281,0.392852 -4.23954,-1.97714 -1.39322,-3.723733 -0.0343,-7.531789 2.31769,-7.588684 z M 79.890848,125.61145 c -23.63257,6.46647 -35.39526,34.35282 -31.87041,58.07243 l 0.66353,4.46433 -0.39894,2.47788 c -1.271,7.89852 1.18184,15.00642 6.00893,17.41186 5.13441,2.55859 8.91317,-1.60852 9.79114,-10.79728 0.0408,-0.4268 0.32219,-0.92814 0.63768,-1.13636 l 0.56431,-0.37259 0.39584,0.39584 c 0.21759,0.21759 0.48076,0.96709 0.58498,1.66553 0.51758,3.46881 1.88268,4.67789 2.85202,2.52647 l 0.56637,-1.25678 -0.0289,-2.38125 -0.0289,-2.38125 -0.9307,-3.0427 c -2.60599,-8.52149 -2.0746,-15.01614 1.87173,-22.87613 4.68419,-9.3296 16.6923,-21.28098 17.90433,-17.8201 l 0.24856,0.71055 -4.5098,4.44883 c -7.42661,7.32537 -11.46521,13.47868 -13.35422,20.34759 l -0.57516,2.09238 v 3.83646 3.83646 l 0.56792,1.98437 c 0.31244,1.0914 0.82721,2.87734 1.1436,3.96875 l 0.57516,1.98438 0.017,3.04271 0.0171,3.0427 -0.5979,1.50534 c -1.04626,2.63362 -3.25064,3.93994 -5.09581,3.01945 -1.05015,-0.52391 -1.0325,-0.52511 -1.0325,0.0465 0,2.01824 -3.01583,5.85528 -5.36039,6.81974 -0.68856,0.28325 -1.25261,0.597 -1.25316,0.69712 -5.5e-4,0.10011 0.17148,0.93354 0.38241,1.85208 0.61652,2.68484 0.76457,5.46937 0.42684,8.03413 -0.72479,5.50414 -1.83478,7.71274 -7.57266,15.0673 -6.99574,8.96682 0.53975,17.99199 17.44648,20.89537 h 5.2e-4 c 6.30861,1.08337 12.67498,0.16403 14.30145,-2.06499 l 0.54622,-0.74828 -0.0279,-1.52549 c -0.074,-4.0318 -3.56773,-8.02441 -9.50277,-10.85877 -1.48437,-0.70888 -2.77149,-1.47849 -2.86029,-1.70997 -0.22039,-0.57432 0.25436,-1.73891 0.709,-1.73891 6.66188,0 17.98479,-8.95329 25.14523,-19.88302 2.005312,-3.06091 2.668312,-3.50265 3.433382,-2.28772 0.42528,0.67533 -1.39663,5.15943 -3.139859,7.72821 l -0.699183,1.03095 2.731622,-0.15917 c 14.40595,-0.83726 29.11441,-11.72604 32.2249,-23.85642 0.42163,-1.64428 0.73884,-3.28805 0.96687,-4.95836 -1.1822,1.22658 -7.10916,2.33916 -14.58516,2.95279 -3.57751,0.29365 -12.63202,0.1352 -13.32012,-0.23306 l -0.50332,-0.26923 -0.14573,-7.74785 c -0.16687,-8.90075 -0.62418,-12.85444 -2.58744,-22.36194 -0.45558,-2.20625 -0.54754,-3.16125 -0.35708,-3.70417 l 0.25631,-0.73122 2.50786,-0.0579 c 4.8694,-0.11191 14.19357,-0.62943 17.71106,-0.9834 3.20427,-0.32246 4.77611,-0.42184 5.26221,0.0868 -2.52486,-6.99806 -5.80377,-15.05117 -10.14666,-24.90701 l -2.30167,-5.22397 -0.70125,0.19172 c -4.96075,1.35558 -19.956292,0.5686 -34.974682,-8.16173 z m 48.295242,38.59248 c -0.15243,1.31905 -7.26529,2.44455 -19.04896,2.83704 l -4.23334,0.14107 0.0522,0.46561 c 0.0285,0.25606 0.35267,1.9521 0.72037,3.76928 1.59313,7.87327 2.37138,15.58581 2.22622,22.0586 l -0.0884,3.93774 6.61458,-0.15038 c 6.51852,-0.14842 10.02476,-0.49242 15.15774,-1.48569 2.26589,-0.43847 3.84296,-0.43712 4.29431,0.15038 0.96762,-8.36233 -0.68291,-17.71793 -5.69475,-31.72365 z m 2.19005,49.73857 c -0.38092,0.0598 -1.02991,0.76988 -2.45463,2.20968 -5.68539,5.74558 -12.2897,9.48709 -21.06952,11.93674 l -1.2268,0.34261 1.65934,2.29857 c 3.85675,5.34192 6.55981,11.71507 8.26719,19.49287 l 0.71779,3.2706 0.66714,0.262 c 0.36694,0.14401 1.7387,0.4975 3.04839,0.78548 l 2.38125,0.52348 6.35,0.0801 c 6.98588,0.0882 7.68614,0.0567 11.86853,-0.53588 5.01786,-0.71091 9.13123,-2.38158 10.2495,-4.16254 l 0.53279,-0.84801 -0.14521,-1.1529 c -0.60784,-4.81477 -6.77921,-8.73177 -13.33563,-8.4646 l -2.26756,0.0925 -0.33848,-0.66146 c -0.19237,-0.37594 -0.3399,-1.59791 -0.3421,-2.83083 -0.009,-4.87282 -1.65884,-14.17585 -3.71553,-20.94704 -0.35259,-1.16081 -0.46554,-1.75117 -0.84646,-1.69137 z"
       sodipodi:nodetypes="ssscccsssssccccccccccccccscccccsscccscccssscccccssscccccssscssccssssssssssssssssssssccccsssccscccccsscssccccssccsscccccscccccccccccccssssssscccccscssscccscscccscccscccccccccscccsccsscccccccccscccccscsscsc" /><path
       style="fill:#a7ac93;fill-opacity:0.738292;stroke:#d2d1bc;stroke-width:0.370091;stroke-opacity:0.876033;paint-order:fill markers stroke"
       d="m 121.81498,196.70518 c 1.584,-0.16448 4.4718,-0.56451 6.41733,-0.88897 1.94553,-0.32445 4.01103,-0.52039 4.59,-0.43541 l 1.05267,0.1545 v -4.0516 c 0,-4.70361 -0.43126,-8.23029 -1.6319,-13.34502 -0.73237,-3.1199 -3.54894,-12.38175 -3.99807,-13.14703 -0.0802,-0.13659 -0.6936,-0.0194 -1.36318,0.26033 -1.81233,0.75724 -8.94889,1.59589 -15.77276,1.85353 -3.31875,0.1253 -6.03409,0.26548 -6.03409,0.31152 0,0.046 0.32934,1.68104 0.73186,3.63334 1.31808,6.39283 2.14814,14.23827 2.14814,20.3034 V 197.1 l 5.49,-0.0479 c 3.0195,-0.0263 6.786,-0.18245 8.37,-0.34693 z"
       id="path6" /><path
       style="fill:#a7ac93;fill-opacity:0.738292;stroke:#d2d1bc;stroke-width:0.370091;stroke-opacity:0.876033;paint-order:fill markers stroke"
       d="m 86.308098,111.14002 c 0.495676,-1.2071 0.413423,-5.24677 -0.393615,-7.90376 C 83.937808,96.728483 79.717807,90.576042 75.686594,88.51947 74.907986,88.122254 73.791852,88.02 73.711876,88.02 c -0.458893,0 -0.486545,3.920665 -0.06698,6.324013 1.1925,6.830797 5.404294,13.663747 9.777798,16.172197 2.158569,1.23807 2.543908,1.45542 2.8854,0.62381 z"
       id="path7"
       sodipodi:nodetypes="sssssss" /><path
       style="fill:#e2e3db;fill-opacity:0.738292;stroke:#d2d1bc;stroke-width:0.370091;stroke-opacity:0.876033;paint-order:fill markers stroke"
       d="m 135.29283,122.81468 c 2.29375,-1.31187 4.45847,-3.31619 5.16433,-4.10271 0.62995,-0.70195 0.61056,-0.71915 -1.01759,-0.90267 -2.39617,-0.27008 -6.6719,-2.51928 -9.14921,-4.81284 -2.45749,-2.2752 -2.91065,-3.19446 -1.93803,-3.93145 1.11411,-0.8442 1.86979,-0.59239 3.01599,1.00499 2.15867,3.00838 5.56313,4.73316 9.34666,4.73522 3.18429,0.002 3.76755,-0.28627 5.19217,-2.56383 0.70831,-1.13238 1.28783,-2.26643 1.28783,-2.52013 0,-0.33714 -0.84765,-0.47092 -3.15,-0.49715 -3.826,-0.0436 -4.91808,-0.31142 -5.0513,-1.23887 -0.0882,-0.61383 0.3551,-0.81237 3.42,-1.5318 1.93671,-0.4546 4.0478,-1.05428 4.6913,-1.33262 1.08762,-0.47043 1.17,-0.62794 1.17,-2.23712 0,-1.9832 -0.67612,-2.912273 -3.50595,-4.817624 -3.79514,-2.555312 -4.31444,-3.430593 -5.64066,-9.507302 -1.78908,-8.197522 -2.34373,-9.772645 -4.62884,-13.14536 -14.53727,-21.456271 -42.487399,37.497206 -5.55864,47.115916 2.81629,0.73355 4.64058,1.26412 6.35194,0.28535 z m -6.45635,-24.657794 c -2.60344,-2.603447 -2.12868,-8.938305 0.70123,-9.356725 2.4278,-0.35896 3.95441,1.66457 3.96936,5.261401 0.0181,4.350856 -2.34395,6.421968 -4.67059,4.095324 z"
       id="path8"
       sodipodi:nodetypes="sssssscssssssssssssssss" /><path
       style="fill:#ececec;fill-opacity:0.738292;stroke:#d2d1bc;stroke-width:0.370091;stroke-opacity:0.876033;paint-order:fill markers stroke"
       d="m 120.19498,196.48588 c 0.891,-0.0706 4.09425,-0.45451 7.11834,-0.85319 3.02409,-0.39868 5.65659,-0.62707 5.85,-0.50754 0.5469,0.338 0.42301,-7.42359 -0.18262,-11.44157 -0.56496,-3.74805 -1.56066,-7.73002 -3.53165,-14.12358 -1.39835,-4.53602 -0.80074,-4.21799 -6.19407,-3.29632 -3.50685,0.59929 -11.99932,1.31632 -15.59036,1.31632 -1.2263,0 -2.22964,0.0704 -2.22964,0.15646 0,0.0861 0.23611,1.27891 0.5247,2.65079 1.44017,6.84634 2.3553,15.36131 2.3553,21.91527 V 196.74 l 5.13,-0.0629 c 2.8215,-0.0346 5.859,-0.12064 6.75,-0.19122 z"
       id="path9" /><path
       style="fill:#44aa00;fill-opacity:0.738292;stroke:#d2d1bc;stroke-width:0.370091;stroke-opacity:0.876033;paint-order:fill markers stroke"
       d="m 129.30796,98.837918 c -1.35853,-0.828355 -1.75763,-1.498327 -2.27936,-3.826399 -0.7279,-3.248014 0.78713,-6.631519 2.96938,-6.631519 1.06547,0 2.68349,1.084527 3.15195,2.112687 1.2004,2.634584 0.67695,7.02654 -0.99412,8.341 -1.11535,0.877332 -1.41521,0.877779 -2.84785,0.0042 z"
       id="path10"
       sodipodi:nodetypes="sssssss" /><path
       style="fill:#ececec;fill-opacity:0.738292;stroke:#d2c5bc;stroke-width:0.0925229;stroke-opacity:0.876033;paint-order:fill markers stroke"
       d="m 85.927231,110.9925 c 0.374925,-0.47238 0.460221,-2.82992 0.171765,-4.7475 C 85.309087,100.99393 82.322087,95.025693 78.666823,91.394999 78.014509,90.747068 77.190885,90.0363 76.724597,89.718903 75.896678,89.155351 74.355822,88.335 74.125224,88.335 c -0.193469,0 -0.27182,0.73779 -0.258056,2.429999 0.02021,2.484663 0.374415,4.474877 1.281414,7.2 1.390452,4.177671 3.665188,7.969241 6.247059,10.412721 1.005713,0.95181 1.833718,1.54109 3.127621,2.22592 0.965655,0.51109 1.245446,0.58859 1.403969,0.38886 z"
       id="path12"
       sodipodi:nodetypes="ssssssssss" /><path
       style="fill:#44aa00;fill-opacity:0.738292;stroke:#d2c5bc;stroke-width:0.185046;stroke-opacity:0.876033;paint-order:fill markers stroke"
       d="m 77.984979,258.02429 c 2.995763,-0.36296 5.214646,-1.20285 6.138394,-2.32352 0.466937,-0.56648 0.521608,-0.76657 0.521608,-1.90911 0,-4.1717 -3.207962,-7.93879 -9.481566,-11.13415 -3.035684,-1.54618 -3.275338,-1.81389 -2.670654,-2.98322 0.232741,-0.45007 0.403508,-0.53421 1.304999,-0.643 4.511881,-0.54449 10.532226,-4.2549 16.337219,-10.06884 2.749984,-2.75421 4.330631,-4.60416 6.461593,-7.56245 0.855758,-1.188 1.977631,-2.74341 2.493052,-3.45647 1.005136,-1.39055 1.504946,-1.77727 2.066586,-1.59901 0.6114,0.19405 0.78573,0.86499 0.50461,1.94211 -0.48313,1.85118 -1.788,4.59455 -3.309373,6.95766 l -0.273161,0.4243 1.788346,-0.12349 c 2.821288,-0.19481 5.281708,-0.59778 7.675198,-1.25704 11.39257,-3.13797 21.31932,-11.54856 24.59629,-20.83959 0.52973,-1.50191 1.58049,-6.02485 1.43377,-6.17157 -0.0386,-0.0386 -0.59364,0.11987 -1.23351,0.35206 -3.81045,1.3827 -11.24458,2.26399 -19.02328,2.25515 -5.17489,-0.006 -7.48516,-0.15715 -7.84143,-0.51343 -0.11947,-0.11946 -0.24008,-2.55793 -0.32793,-6.62982 -0.22045,-10.2178 -0.51489,-13.02694 -2.34486,-22.37086 -0.69831,-3.56557 -0.81569,-5.17719 -0.40631,-5.57839 0.0882,-0.0865 2.38791,-0.24602 5.11041,-0.35458 5.45922,-0.21768 12.43587,-0.63581 15.18407,-0.91002 0.97574,-0.0974 2.49449,-0.17701 3.375,-0.17701 0.88051,0 1.60093,-0.0712 1.60093,-0.15826 0,-0.21626 -2.01519,-5.52613 -3.59469,-9.47174 -1.2257,-3.06179 -5.5002,-13.09286 -7.59615,-17.82604 l -0.95916,-2.16603 -0.99,0.24285 c -1.64292,0.40303 -6.21292,0.47642 -9.16482,0.14717 -8.079087,-0.9011 -17.036437,-3.6634 -23.448248,-7.23104 l -2.103073,-1.17018 -1.676929,0.47951 c -3.258383,0.93171 -6.336485,2.35143 -9.065427,4.18127 -11.5879,7.77002 -19.8073,23.17762 -21.332375,39.98842 -0.347265,3.82786 -0.12071,10.08105 0.518597,14.31407 l 0.516522,3.42 -0.321773,2.07 c -1.393023,8.96153 1.519796,16.47657 7.053898,18.19898 1.327491,0.41316 1.801212,0.4233 3.009656,0.0644 2.592922,-0.77001 4.51811,-4.37631 5.329545,-9.98341 0.249835,-1.72639 0.322196,-1.93394 0.835892,-2.39759 0.532316,-0.48044 0.580359,-0.49131 0.898681,-0.20323 0.376738,0.34094 0.587034,0.9281 0.899272,2.51082 0.264765,1.34208 0.823751,2.56156 1.288063,2.81006 0.463894,0.24827 0.970989,-0.19629 1.425845,-1.24999 0.273399,-0.63334 0.336674,-1.23366 0.336674,-3.1942 0,-2.30356 -0.0332,-2.52369 -0.724106,-4.80008 -1.312133,-4.32324 -1.671238,-6.45615 -1.689672,-10.03579 -0.0177,-3.43864 0.156673,-4.76445 1.002395,-7.62112 1.879701,-6.34921 6.448896,-13.46197 12.564729,-19.55923 3.888677,-3.87686 6.712524,-5.56381 7.607464,-4.54465 0.795343,0.90573 0.834551,0.84884 -3.855895,5.59461 -2.41374,2.44222 -5.101365,5.33139 -5.972497,6.42039 -3.787635,4.73491 -6.078688,8.98607 -7.483126,13.88528 -0.538046,1.87692 -0.549291,1.99763 -0.549291,5.89562 v 3.97947 l 1.054233,3.68982 c 1.049826,3.67438 1.054782,3.70308 1.185545,6.86416 l 0.13131,3.17436 -0.548857,1.30632 c -0.301871,0.71847 -0.760873,1.61226 -1.020004,1.98618 -1.102584,1.59103 -2.865207,2.16704 -4.465338,1.45923 l -0.83689,-0.3702 v 0.59569 c 0,1.78977 -2.769553,5.31003 -5.131713,6.52269 -0.819804,0.42086 -1.347044,0.80341 -1.347515,0.9777 -5.29e-4,0.15748 0.175948,1.08898 0.391941,2.07 0.565721,2.56947 0.561207,7.11858 -0.0097,9.77973 -0.811284,3.78158 -1.843767,5.75153 -5.815197,11.09527 -1.381226,1.85851 -2.662296,3.67504 -2.846822,4.03674 -1.158279,2.27041 -1.430684,4.91524 -0.722704,7.01685 1.840722,5.46409 9.058818,9.73498 19.456612,11.5123 2.485032,0.42478 6.21221,0.594 8.085103,0.36708 z"
       id="path13"
       sodipodi:nodetypes="sssssssssssscsssssssssssssssscssscsssscssssssssssssssssssscsscssscsscssssssss" /><path
       style="fill:#44aa00;fill-opacity:0.738292;stroke:#d2c5bc;stroke-width:0.185046;stroke-opacity:0.876033;paint-order:fill markers stroke"
       d="m 135.85498,255.04334 c 8.47142,-0.7791 13.43194,-2.36442 14.95684,-4.78002 0.40166,-0.63628 0.44077,-0.83972 0.33073,-1.72049 -0.31994,-2.56067 -2.58087,-5.25989 -5.68643,-6.78877 -2.53724,-1.24908 -4.03798,-1.58611 -7.23901,-1.62568 l -2.67787,-0.0331 -0.27076,-0.51676 c -0.18355,-0.35032 -0.3194,-1.43488 -0.42181,-3.3674 -0.26911,-5.07864 -1.17777,-10.72588 -2.66641,-16.57151 -1.03476,-4.06331 -1.46232,-5.3892 -1.76954,-5.48742 -0.12334,-0.0394 -1.29784,0.96819 -2.61,2.23916 -1.31216,1.27096 -3.07424,2.84679 -3.91574,3.50185 -4.4256,3.44504 -9.67835,6.09657 -15.50732,7.82791 -1.22247,0.36311 -2.27964,0.70966 -2.34926,0.77012 -0.0696,0.0605 0.52528,1.04117 1.322,2.17936 4.02589,5.75134 6.40304,11.34692 8.26078,19.4451 0.41944,1.82837 0.78446,3.3504 0.81117,3.38228 0.0267,0.0319 1.29147,0.36582 2.81059,0.74208 l 2.76204,0.68412 6.57,0.0927 c 3.6135,0.051 6.894,0.0629 7.29,0.0265 z"
       id="path14" /></g></svg>
