<?xml version="1.0" encoding="UTF-8" standalone="no"?>
<!-- Created with Inkscape (http://www.inkscape.org/) -->

<svg
   width="126.98555mm"
   height="250.5136mm"
   viewBox="0 0 126.98555 250.5136"
   version="1.1"
   id="svg1"
   xml:space="preserve"
   inkscape:version="1.4 (86a8ad7, 2024-10-11)"
   sodipodi:docname="sideFacing-angry-teletubbie.svg"
   xmlns:inkscape="http://www.inkscape.org/namespaces/inkscape"
   xmlns:sodipodi="http://sodipodi.sourceforge.net/DTD/sodipodi-0.dtd"
   xmlns="http://www.w3.org/2000/svg"
   xmlns:svg="http://www.w3.org/2000/svg"><sodipodi:namedview
     id="namedview1"
     pagecolor="#ffffff"
     bordercolor="#000000"
     borderopacity="0.25"
     inkscape:showpageshadow="2"
     inkscape:pageopacity="0.0"
     inkscape:pagecheckerboard="0"
     inkscape:deskcolor="#d1d1d1"
     inkscape:document-units="mm"
     inkscape:zoom="8.3150519"
     inkscape:cx="341.06822"
     inkscape:cy="332.10857"
     inkscape:window-width="1920"
     inkscape:window-height="1027"
     inkscape:window-x="-8"
     inkscape:window-y="-8"
     inkscape:window-maximized="1"
     inkscape:current-layer="layer1" /><defs
     id="defs1" /><g
     inkscape:label="Layer 1"
     inkscape:groupmode="layer"
     id="layer1"
     transform="translate(-27.659906,-11.301409)"><path
       id="path1"
       style="fill:#44aa00"
       d="m 107.79313,11.303164 c -1.19531,-0.123782 -5.51921,6.292291 -14.794375,21.79482 -2.499254,4.177267 4.952667,13.118292 2.388597,17.164102 -2.56428,4.046142 -4.233616,4.326476 -5.836102,5.009634 l -6.108281,1.982666 -2.466516,0.780315 c -13.520618,4.275921 -22.039655,14.14111 -24.962301,28.907279 -1.182638,5.975075 -1.240341,6.081169 -4.227132,7.758183 -4.204907,2.360959 -5.707749,5.23034 -5.327324,10.170957 0.955783,12.41287 12.932147,22.99239 31.58722,27.90269 1.440191,0.37909 1.543096,-0.0865 -1.484664,6.71638 -15.989525,35.92597 -19.365114,55.65478 -11.829252,69.1379 l 0.664042,1.18856 -1.172022,4.01578 c -1.844776,6.32114 -3.147039,12.69213 -4.282426,20.9491 l -0.218074,1.5875 -2.127002,0.17622 c -5.273729,0.43761 -10.763542,4.10663 -12.903088,8.62325 l -0.84491,1.78387 v 2.11666 2.11667 l 0.714168,1.21543 c 2.182156,3.71189 8.433178,5.70622 19.978109,6.37481 l 5.346444,0.31005 4.046264,-0.31264 c 9.226128,-0.71223 11.41074,-1.8288 12.094352,-6.18257 1.253354,-7.98232 5.79994,-18.31953 10.014893,-22.77018 l 0.688847,-0.72761 h 3.161564 3.161049 l 2.8174,2.71198 c 3.26479,3.14254 6.80381,5.73055 10.27431,7.51376 2.86446,1.47181 2.81765,1.36348 1.12706,2.60449 -9.44455,6.93294 -9.24802,17.41175 0.36793,19.60139 1.14855,0.26141 2.87182,0.33755 5.97948,0.26355 l 4.36563,-0.10439 2.77812,-0.65939 c 9.52072,-2.25957 18.42425,-7.67645 20.90726,-12.72016 l 0.86506,-1.75648 -0.0196,-2.17919 c -0.033,-3.72594 -1.32567,-6.51543 -5.34954,-11.54297 -2.92059,-3.64908 -3.76548,-5.07118 -4.65295,-7.83363 -1.49952,-4.66757 -0.94738,-12.55727 0.91002,-13.00437 5.19701,-1.25099 9.50977,-7.17359 10.41746,-14.30559 l 0.31057,-2.43861 -0.49041,-3.54087 -0.49041,-3.54035 0.57051,-3.57756 c 3.0904,-19.38281 -1.73224,-35.631 -14.85439,-50.04604 -4.29217,-4.71507 -11.56452,-9.95089 -15.46572,-11.13421 -0.89366,-0.27107 -0.75125,-0.60207 1.33015,-3.08818 5.68399,-6.78919 9.07547,-12.98351 10.98434,-20.06337 l 0.68058,-2.525432 0.0145,-5.159375 0.0145,-5.159375 -0.57206,-2.248958 c -7.02803,-27.617469 -29.7944,-23.15527 -33.83975,-34.158466 -0.85685,-2.44704 8.85359,-9.581313 8.54317,-14.597653 -0.0945,-1.526828 -1.51559,-24.968891 -2.7853,-25.100377 z M 72.406274,70.887985 c 1.651923,-0.06593 2.747298,0.814222 3.948465,1.684861 1.607522,1.165176 3.228327,2.627939 4.936752,4.799995 2.442955,3.105923 4.152747,7.168776 5.27667,11.628026 l 0.780692,3.008757 0.489456,3.508795 c 0.370342,2.654897 -0.03681,3.693438 -0.08204,5.112031 -0.03554,1.11464 0.16481,2.73825 -0.398126,4.63754 -0.771676,2.60355 -1.93731,5.33196 -3.351068,7.5876 -3.290726,5.25033 -8.277458,7.63248 -13.363844,9.43076 -4.997872,1.76699 -8.210383,1.09872 -11.699392,-2.84674 -0.0919,-0.10393 -0.543346,-0.2753 -0.460564,-0.39587 0.05556,-0.0809 -0.869462,-0.80132 -0.765525,-0.82512 1.773957,-0.40608 9.051881,-2.44016 11.251274,-5.80429 0.826544,-1.26426 2.28574,-2.32725 1.768706,-2.91609 -0.918044,-1.04553 -1.461585,-0.98438 -2.069431,-0.66768 -0.270867,0.14112 -0.553047,0.12217 -0.734339,0.21558 -0.299326,0.15422 -0.390901,0.5954 -1.094499,1.3392 -2.568367,2.71511 -4.331009,3.34158 -5.859565,3.89445 -1.810693,0.6549 -3.224866,0.92526 -4.294207,0.44666 -0.200819,-0.0899 -0.798884,-0.21875 -0.984444,-0.29734 -0.108966,-0.0461 -0.426787,0.22358 -0.524825,0.15962 -2.519523,-1.6435 -4.400631,-5.10452 -3.224292,-5.03007 0.274238,0.0174 0.960418,-0.3021 1.958154,-0.28013 1.447716,0.0319 3.574148,0.0175 6.294971,-1.13626 1.058135,-0.44869 -7.47922,-2.72931 -7.712989,-2.80544 l -2.143687,-0.93713 -0.109769,-1.52212 0.193019,-1.20392 0.54436,-1.32832 c 0.34707,-0.846904 1.578665,-1.556983 3.049315,-2.457542 7.359616,-4.506692 5.529154,-16.101564 9.679838,-22.234797 1.445477,-2.135902 3.563802,-4.689842 7.173649,-4.924115 z m 52.470346,16.924226 0.17931,1.5844 c 0.83677,7.39613 -4.55491,18.443409 -10.48256,21.478279 -0.48064,0.24609 -1.19018,0.52383 -1.57665,0.61753 l -0.7028,0.17053 -0.20102,-0.61805 c -2.22069,-6.81864 5.485,-21.522879 12.0897,-23.069908 z m -56.506633,0.987537 c -0.335999,-0.0081 -0.6921,0.06036 -1.063501,0.216524 -2.478429,1.042101 -3.040741,7.166906 -0.858346,9.3493 1.334272,1.334273 3.352807,0.392852 4.239535,-1.97714 1.393227,-3.723733 0.03431,-7.531789 -2.317688,-7.588684 z m 50.234143,36.811702 c 23.63257,6.46647 35.39526,34.35282 31.87041,58.07243 l -0.66353,4.46433 0.39894,2.47788 c 1.271,7.89852 -1.18184,15.00642 -6.00893,17.41186 -5.13441,2.55859 -8.91317,-1.60852 -9.79114,-10.79728 -0.0408,-0.4268 -0.32219,-0.92814 -0.63768,-1.13636 l -0.56431,-0.37259 -0.39584,0.39584 c -0.21759,0.21759 -0.48076,0.96709 -0.58498,1.66553 -0.51758,3.46881 -1.88268,4.67789 -2.85202,2.52647 l -0.56637,-1.25678 0.0289,-2.38125 0.0289,-2.38125 0.9307,-3.0427 c 2.60599,-8.52149 2.0746,-15.01614 -1.87173,-22.87613 -4.68419,-9.3296 -16.6923,-21.28098 -17.90433,-17.8201 l -0.24856,0.71055 4.5098,4.44883 c 7.42661,7.32537 11.46521,13.47868 13.35422,20.34759 l 0.57516,2.09238 v 3.83646 3.83646 l -0.56792,1.98437 c -0.31244,1.0914 -0.82721,2.87734 -1.1436,3.96875 l -0.57516,1.98438 -0.017,3.04271 -0.0171,3.0427 0.5979,1.50534 c 1.04626,2.63362 3.25064,3.93994 5.09581,3.01945 1.05015,-0.52391 1.0325,-0.52511 1.0325,0.0465 0,2.01824 3.01583,5.85528 5.36039,6.81974 0.68856,0.28325 1.25261,0.597 1.25316,0.69712 5.5e-4,0.10011 -0.17148,0.93354 -0.38241,1.85208 -0.61652,2.68484 -0.76457,5.46937 -0.42684,8.03413 0.72479,5.50414 1.83478,7.71274 7.57266,15.0673 6.99574,8.96682 -0.53975,17.99199 -17.44648,20.89537 h -5.2e-4 c -6.30861,1.08337 -12.67498,0.16403 -14.30145,-2.06499 l -0.54622,-0.74828 0.0279,-1.52549 c 0.074,-4.0318 3.56773,-8.02441 9.50277,-10.85877 1.48437,-0.70888 2.77149,-1.47849 2.86029,-1.70997 0.22039,-0.57432 -0.25436,-1.73891 -0.709,-1.73891 -6.66188,0 -17.98479,-8.95329 -25.14523,-19.88302 -2.005308,-3.06091 -2.668314,-3.50265 -3.433383,-2.28772 -0.425274,0.67533 1.396636,5.15943 3.13986,7.72821 l 0.699183,1.03095 -2.731617,-0.15917 c -14.405955,-0.83726 -29.114417,-11.72604 -32.224907,-23.85642 -0.421628,-1.64428 -0.738842,-3.28805 -0.966866,-4.95836 1.1822,1.22658 7.10916,2.33916 14.585157,2.95279 3.577513,0.29365 12.632022,0.1352 13.320117,-0.23306 l 0.503328,-0.26923 0.145728,-7.74785 c 0.166864,-8.90075 0.624178,-12.85444 2.587439,-22.36194 0.45558,-2.20625 0.547535,-3.16125 0.357084,-3.70417 l -0.256315,-0.73122 -2.507858,-0.0579 c -4.869405,-0.11191 -14.193567,-0.62943 -17.711063,-0.9834 -3.204271,-0.32246 -4.776107,-0.42184 -5.262211,0.0868 2.524858,-6.99806 5.803772,-15.05117 10.146667,-24.90701 l 2.301668,-5.22397 0.70125,0.19172 c 4.960751,1.35558 19.956289,0.5686 34.974679,-8.16173 z m -48.295243,38.59248 c 0.152431,1.31905 7.265294,2.44455 19.048966,2.83704 l 4.233334,0.14107 -0.05219,0.46561 c -0.02854,0.25606 -0.35267,1.9521 -0.720369,3.76928 -1.593126,7.87327 -2.371379,15.58581 -2.226221,22.0586 l 0.08837,3.93774 -6.614583,-0.15038 c -6.518515,-0.14842 -10.024756,-0.49242 -15.157732,-1.48569 -2.265897,-0.43847 -3.842965,-0.43712 -4.294311,0.15038 -0.967619,-8.36233 0.682905,-17.71793 5.694743,-31.72365 z M 68.11884,213.9425 c 0.380922,0.0598 1.029908,0.76988 2.45463,2.20968 5.685393,5.74558 12.289698,9.48709 21.069515,11.93674 l 1.226799,0.34261 -1.659331,2.29857 c -3.856753,5.34192 -6.559814,11.71507 -8.267195,19.49287 l -0.717786,3.2706 -0.667143,0.262 c -0.366945,0.14401 -1.738705,0.4975 -3.048392,0.78548 l -2.38125,0.52348 -6.35,0.0801 c -6.98588,0.0882 -7.68614,0.0567 -11.868527,-0.53588 -5.017861,-0.71091 -9.131235,-2.38158 -10.249503,-4.16254 l -0.532784,-0.84801 0.14521,-1.1529 c 0.607839,-4.81477 6.779203,-8.73177 13.335621,-8.4646 l 2.267561,0.0925 0.338481,-0.66146 c 0.192372,-0.37594 0.339898,-1.59791 0.342098,-2.83083 0.0088,-4.87282 1.658848,-14.17585 3.715536,-20.94704 0.352585,-1.16081 0.465537,-1.75117 0.84646,-1.69137 z"
       sodipodi:nodetypes="ssscccsssssccccccccccccccscccccsscccscccssscccccssscccccssscssccssssssssssssssssssssccccsssccscccccsscssccccssccsscccccscccccccccccccssssssscccccscssscccscscccscccscccccccccscccsccsscccccccccscccccscsscsc" /><path
       style="fill:#a7ac93;fill-opacity:0.738292;stroke:#d2d1bc;stroke-width:1.39877;stroke-opacity:0.876033;paint-order:fill markers stroke"
       d="m 289.81417,743.45265 c -5.98677,-0.62164 -16.90128,-2.13357 -24.25447,-3.35986 -7.3532,-1.22628 -15.15981,-1.96683 -17.34804,-1.64566 l -3.97859,0.58393 v -15.31314 c 0,-17.7774 1.62996,-31.10659 6.16781,-50.43785 2.76801,-11.79175 13.41333,-46.79719 15.11083,-49.68956 0.30298,-0.51625 2.62145,-0.0735 5.15215,0.9839 6.84977,2.86202 33.82257,6.03172 59.61359,7.00547 12.54331,0.47357 22.80601,1.00341 22.80601,1.17742 0,0.17401 -1.24474,6.35354 -2.76609,13.73229 -4.9817,24.1619 -8.11894,53.81395 -8.11894,76.73725 v 21.71804 l -20.74961,-0.18098 c -11.41228,-0.0995 -25.64788,-0.6896 -31.63465,-1.31125 z"
       id="path6"
       transform="scale(0.26458333)" /><path
       style="fill:#a7ac93;fill-opacity:0.738292;stroke:#d2d1bc;stroke-width:1.39877;stroke-opacity:0.876033;paint-order:fill markers stroke"
       d="m 424.01341,420.05676 c -1.87342,-4.56225 -1.56254,-19.83031 1.48768,-29.87247 7.4709,-24.59632 23.42051,-47.84964 38.65659,-55.62251 2.94277,-1.50129 7.16123,-1.88776 7.4635,-1.88776 1.7344,0 1.83891,14.81826 0.25314,23.90178 -4.50709,25.8172 -20.42568,51.64252 -36.95546,61.12328 -8.15837,4.67929 -9.61477,5.50078 -10.90545,2.35768 z"
       id="path7"
       transform="scale(0.26458333)"
       sodipodi:nodetypes="sssssss" /><path
       style="fill:#e2e3db;fill-opacity:0.738292;stroke:#d2d1bc;stroke-width:1.39877;stroke-opacity:0.876033;paint-order:fill markers stroke"
       d="m 238.87426,464.18146 c -8.66928,-4.95824 -16.85092,-12.5336 -19.51873,-15.50631 -2.38091,-2.65304 -2.30764,-2.71804 3.84601,-3.41163 9.05638,-1.02079 25.21662,-9.52171 34.5797,-18.19027 9.28816,-8.59919 11.00088,-12.07357 7.32484,-14.85904 -4.2108,-3.19066 -7.06691,-2.23894 -11.39901,3.79839 -8.15875,11.37027 -21.02603,17.8891 -35.32597,17.89689 -12.03513,0.007 -14.23956,-1.08195 -19.62396,-9.69006 -2.67706,-4.27985 -4.86738,-8.56604 -4.86738,-9.52489 0,-1.27423 3.20371,-1.77985 11.90552,-1.87899 14.46045,-0.16473 18.58802,-1.17705 19.09153,-4.68235 0.33325,-2.32 -1.34213,-3.07039 -12.92598,-5.78947 -7.31987,-1.71819 -15.29878,-3.9847 -17.73091,-5.03668 -4.1107,-1.77802 -4.42205,-2.37333 -4.42205,-8.45527 0,-7.49554 2.55542,-11.00701 13.25082,-18.20834 14.34384,-9.65787 16.30657,-12.96602 21.31905,-35.93311 6.76188,-30.98276 8.85817,-36.93598 17.49483,-49.68325 54.944,-81.09457 160.58229,141.72173 21.00904,178.07592 -10.64427,2.77247 -17.53921,4.77778 -24.00735,1.07846 z m 24.40196,-93.1948 c 9.83979,-9.8398 8.04542,-33.78257 -2.65033,-35.364 -9.17591,-1.3567 -14.94579,6.29129 -15.00231,19.88561 -0.0684,16.44418 8.85902,24.272 17.65264,15.47839 z"
       id="path8"
       transform="scale(0.26458333)"
       sodipodi:nodetypes="sssssscssssssssssssssss" /><path
       style="fill:#ececec;fill-opacity:0.738292;stroke:#d2d1bc;stroke-width:1.39877;stroke-opacity:0.876033;paint-order:fill markers stroke"
       d="m 295.93701,742.62382 c -3.36756,-0.26675 -15.47434,-1.71786 -26.90396,-3.22468 -11.42962,-1.50682 -21.37923,-2.37003 -22.11024,-1.91824 -2.06703,1.27749 -1.5988,-28.05769 0.69023,-43.24372 2.13526,-14.16589 5.89854,-29.21583 13.34794,-53.38049 5.2851,-17.14399 3.02642,-15.94198 23.41067,-12.45852 13.25422,2.26502 45.35177,4.97506 58.92421,4.97506 4.63484,0 8.42697,0.26611 8.42697,0.59136 0,0.32525 -0.89239,4.83368 -1.9831,10.01873 -5.44317,25.87593 -8.90193,58.0585 -8.90193,82.82937 v 16.77156 l -19.38898,-0.23771 c -10.66394,-0.13074 -22.14425,-0.45596 -25.51181,-0.72272 z"
       id="path9"
       transform="scale(0.26458333)" /><path
       style="fill:#44aa00;fill-opacity:0.738292;stroke:#d2d1bc;stroke-width:1.39877;stroke-opacity:0.876033;paint-order:fill markers stroke"
       d="m 261.49426,373.56064 c 5.1346,-3.13079 6.643,-5.66297 8.6149,-14.46198 2.7511,-12.27596 -2.97498,-25.06401 -11.22288,-25.06401 -4.02695,0 -10.14231,4.099 -11.91287,7.98496 -4.53694,9.95748 -2.55853,26.557 3.7573,31.52504 4.2155,3.3159 5.34882,3.31759 10.76355,0.016 z"
       id="path10"
       transform="scale(0.26458333)"
       sodipodi:nodetypes="sssssss" /><path
       style="fill:#ececec;fill-opacity:0.738292;stroke:#d2c5bc;stroke-width:0.349693;stroke-opacity:0.876033;paint-order:fill markers stroke"
       d="m 425.45291,419.49921 c -1.41704,-1.78537 -1.73942,-10.69577 -0.64919,-17.9433 2.98548,-19.84656 14.27493,-42.40368 28.0901,-56.12599 2.46544,-2.44887 5.57835,-5.13524 7.3407,-6.33485 3.12914,-2.12996 8.95285,-5.2305 9.8244,-5.2305 0.73122,0 1.02735,2.7885 0.97533,9.18425 -0.0764,9.39085 -1.41511,16.91292 -4.84314,27.2126 -5.25525,15.78961 -13.85268,30.11998 -23.61093,39.35517 -3.80112,3.59737 -6.93059,5.8246 -11.82093,8.41291 -3.64972,1.93169 -4.7072,2.22459 -5.30634,1.46971 z"
       id="path12"
       transform="scale(0.26458333)"
       sodipodi:nodetypes="ssssssssss" /><path
       style="fill:#44aa00;fill-opacity:0.738292;stroke:#d2c5bc;stroke-width:0.699385;stroke-opacity:0.876033;paint-order:fill markers stroke"
       d="m 455.47087,975.20994 c -11.32257,-1.37182 -19.7089,-4.54623 -23.20023,-8.78182 -1.7648,-2.14101 -1.97143,-2.89726 -1.97143,-7.21555 0,-15.76703 12.12458,-30.00486 35.83584,-42.08183 11.47345,-5.84383 12.37923,-6.85563 10.09381,-11.27515 -0.87965,-1.70105 -1.52507,-2.01907 -4.93228,-2.43024 -17.05278,-2.05789 -39.80684,-16.08151 -61.74697,-38.05544 -10.39364,-10.40964 -16.36774,-17.40155 -24.42177,-28.58251 -3.23436,-4.49008 -7.47451,-10.36879 -9.42256,-13.0638 -3.79893,-5.25562 -5.68797,-6.71725 -7.81073,-6.04352 -2.31078,0.73342 -2.96966,3.26926 -1.90718,7.34027 1.826,6.99657 6.7578,17.36523 12.50787,26.29668 l 1.03242,1.60365 -6.7591,-0.46673 c -10.66313,-0.73632 -19.96238,-2.25935 -29.00864,-4.75105 -43.05852,-11.86003 -80.57696,-43.6481 -92.96235,-78.7638 -2.00213,-5.67652 -5.97349,-22.77106 -5.41895,-23.3256 0.14573,-0.14572 2.24366,0.45306 4.66207,1.33062 14.40172,5.22595 42.49921,8.55681 71.89902,8.52338 19.55864,-0.0222 28.29036,-0.59395 29.63691,-1.9405 0.45151,-0.45151 0.90736,-9.66778 1.2394,-25.0576 0.83319,-38.61844 1.94606,-49.23566 8.86248,-84.55129 2.63925,-13.47615 3.0829,-19.56733 1.53563,-21.08367 -0.33344,-0.32677 -9.02515,-0.92983 -19.31492,-1.34013 -20.63329,-0.82274 -47.00172,-2.40307 -57.38862,-3.43945 -3.68783,-0.36797 -9.42799,-0.66903 -12.7559,-0.66903 -3.32791,0 -6.05075,-0.26916 -6.05075,-0.59814 0,-0.81735 7.61647,-20.88617 13.58624,-35.79871 4.63254,-11.57213 20.78813,-49.48483 28.70983,-67.374 l 3.62519,-8.18659 3.74173,0.91788 c 6.20946,1.52325 23.48189,1.80062 34.63867,0.55624 30.53515,-3.40576 64.3897,-13.84592 88.62332,-27.32992 l 7.94862,-4.42273 6.338,1.8123 c 12.31515,3.52144 23.94892,8.88731 34.26303,15.80322 43.79679,29.36702 74.86224,87.60048 80.6263,151.13734 1.3125,14.4675 0.45623,38.10163 -1.96005,54.10043 l -1.95221,12.92598 1.21615,7.82363 c 5.26497,33.87037 -5.74411,62.27365 -26.6604,68.78354 -5.01729,1.56156 -6.80773,1.59989 -11.37508,0.24353 -9.80002,-2.91029 -17.07632,-16.54039 -20.14316,-37.73259 -0.94426,-6.52492 -1.21775,-7.30937 -3.15928,-9.06173 -2.0119,-1.81586 -2.19348,-1.85693 -3.39659,-0.76813 -1.42389,1.28861 -2.21871,3.50779 -3.39882,9.48971 -1.00069,5.07242 -3.11339,9.6815 -4.86827,10.62069 -1.7533,0.93834 -3.66988,-0.74185 -5.38902,-4.72434 -1.03332,-2.39374 -1.27247,-4.66267 -1.27247,-12.07258 0,-8.70638 0.1255,-9.53835 2.73678,-18.14202 4.95924,-16.33983 6.31649,-24.40121 6.38616,-37.93057 0.0669,-12.99643 -0.59215,-18.00737 -3.78858,-28.80421 -7.10438,-23.99704 -24.37378,-50.87992 -47.48874,-73.92466 -14.69736,-14.65272 -25.37017,-21.02859 -28.75262,-17.17664 -3.00602,3.42325 -3.15421,3.20823 14.57346,21.145 9.1228,9.23041 19.28075,20.15011 22.57322,24.26602 14.31547,17.89574 22.97457,33.96311 28.28268,52.47982 2.03356,7.09386 2.07606,7.5501 2.07606,22.28266 v 15.04052 l -3.9845,13.94575 c -3.96785,13.88744 -3.98658,13.9959 -4.4808,25.9433 l -0.49629,11.99756 2.07442,4.93727 c 1.14093,2.71551 2.87574,6.09358 3.85513,7.50685 4.16725,6.01334 10.82913,8.19037 16.87687,5.51518 l 3.16305,-1.39917 v 2.25144 c 0,6.76448 10.4676,20.06937 19.39545,24.65267 3.09847,1.59066 5.09119,3.0365 5.09297,3.69526 0.002,0.5952 -0.665,4.11583 -1.48135,7.82362 -2.13816,9.71136 -2.1211,26.90486 0.0367,36.96275 3.06627,14.29257 6.96857,21.73807 21.9787,41.93489 5.22038,7.02427 10.06222,13.88989 10.75964,15.25695 4.37775,8.5811 5.40731,18.57728 2.73148,26.52037 -6.95706,20.65171 -34.23805,36.79363 -73.5368,43.51107 -9.39225,1.60545 -23.47922,2.24502 -30.55787,1.3874 z"
       id="path13"
       transform="scale(0.26458333)"
       sodipodi:nodetypes="sssssssssssscsssssssssssssssscssscsssscssssssssssssssssssscsscssscsscssssssss" /><path
       style="fill:#44aa00;fill-opacity:0.738292;stroke:#d2c5bc;stroke-width:0.699385;stroke-opacity:0.876033;paint-order:fill markers stroke"
       d="m 236.74961,963.94336 c -32.01799,-2.94464 -50.76638,-8.9364 -56.52981,-18.06625 -1.51809,-2.40482 -1.6659,-3.17373 -1.24998,-6.50261 1.2092,-9.67815 9.75445,-19.87993 21.49202,-25.65835 9.58954,-4.72095 15.26165,-5.99475 27.36003,-6.14432 l 10.12108,-0.12513 1.02333,-1.95309 c 0.69374,-1.32405 1.20721,-5.4232 1.59425,-12.72721 1.01713,-19.19485 4.45144,-40.53874 10.07778,-62.63245 3.91089,-15.35741 5.52688,-20.36866 6.68801,-20.73986 0.46618,-0.14902 4.90523,3.6593 9.86457,8.46294 4.95934,4.80364 11.61919,10.75954 14.79966,13.23534 16.72666,13.02064 36.57958,23.04216 58.61035,29.58582 4.62037,1.37236 8.61595,2.68217 8.87908,2.91069 0.26312,0.22852 -1.98532,3.93513 -4.99653,8.23693 -15.21598,21.73737 -24.20047,42.886 -31.22186,73.49331 -1.58526,6.91038 -2.96488,12.66293 -3.06582,12.78342 -0.10094,0.12049 -4.88116,1.38261 -10.62272,2.80471 l -10.43919,2.58564 -24.8315,0.35037 c -13.65732,0.1927 -26.05606,0.23775 -27.55275,0.1001 z"
       id="path14"
       transform="scale(0.26458333)" /></g></svg>
