<?xml version="1.0" encoding="UTF-8"?>
<svg id="Layer_2" data-name="Layer 2" xmlns="http://www.w3.org/2000/svg" viewBox="0 0 420.59 410.14">
  <defs>
    <style>
      .cls-1 {
        fill: #f15a24;
        stroke-width: 4px;
      }

      .cls-1, .cls-2, .cls-3, .cls-4, .cls-5, .cls-6 {
        stroke-miterlimit: 10;
      }

      .cls-1, .cls-2, .cls-3, .cls-5, .cls-6 {
        stroke: #733b09;
      }

      .cls-2, .cls-3 {
        fill: none;
      }

      .cls-2, .cls-5 {
        stroke-width: 3px;
      }

      .cls-3, .cls-4 {
        stroke-width: 2px;
      }

      .cls-7, .cls-8, .cls-9, .cls-10, .cls-11 {
        stroke-width: 0px;
      }

      .cls-4 {
        stroke: #dba052;
      }

      .cls-4, .cls-5 {
        fill: gold;
      }

      .cls-8 {
        fill: #fff;
      }

      .cls-9 {
        fill: #fde983;
      }

      .cls-10 {
        fill: #4d8faf;
      }

      .cls-6 {
        fill: #733b09;
      }

      .cls-11 {
        fill: rgba(255, 211, 182, .8);
      }
    </style>
  </defs>
  <g id="Sun">
    <g id="Rays_Group" data-name="Rays Group">
      <g id="Rays">
        <path id="Rays_outer" data-name="Rays outer" class="cls-5" d="M119.47,145.97c-4.54-1.56-2.97-7.58-11-14-6.74-5.39-10.51-3.29-17-9-5.74-5.06-8.06-11.35-9-14-2.97-8.36-.16-10.24-3-21-1.5-5.69-2.79-10.58-7-15-3.82-4.01-9.72-7.29-11-8-4.91-2.73-7.03-2.97-7-4,.07-2.44,11.98-4.96,23-4,3.77.33,9.06.84,15,4,5.65,3,9.08,6.91,10,8,3.33,3.93,2.57,4.96,6,9,1.41,1.66,4.67,5.42,10,8,2.65,1.28,5.43,1.85,11,3,7.38,1.52,8.14,1.02,11,2,5.94,2.04,10.37,6.87,12,10,8.02,15.44-21.28,49.04-33,45Z"/>
        <path class="cls-4" d="M132.99,124.47c.48,0,.89-.17.97-.43.1-.33-.28-.9-1.07-1.11-.26-.24-.65-.61-1.07-1.11-1.2-1.43-1.44-2.4-2.13-3.34-.31-.42-.78-.94-3.2-2.23-3.07-1.63-4.54-1.98-7.47-3.34-1.11-.51-2.16-1.09-4.27-2.23-4.26-2.31-6.39-3.46-7.47-4.46-3.56-3.27-4.38-7.42-4.8-7.24-.3.13-.05,2.38,1.07,4.46.46.85,1.57,2.62,6.4,5.57,2.36,1.44,4.24,2.33,6.4,3.34,4.35,2.04,4.67,1.84,7.47,3.34,3.42,1.83,5.13,2.74,6.4,4.46,1.37,1.84,1.96,3.84,2.76,4.33Z"/>
      </g>
      <g id="Rays-2" data-name="Rays">
        <path id="Rays_outer-2" data-name="Rays outer" class="cls-5" d="M100.39,186.44c-4.71.91-6.37-5.08-16.53-6.62-8.53-1.3-10.75,2.41-19.22.71-7.5-1.51-12.65-5.8-14.79-7.62-6.75-5.75-5.26-8.78-13.1-16.69-4.15-4.18-7.71-7.77-13.56-9.49-5.31-1.56-12.06-1.45-13.53-1.43-5.62.09-7.57.95-8.06.04-1.16-2.15,7.9-10.28,17.92-14.96,3.43-1.6,8.27-3.8,14.99-4.04,6.39-.22,11.32,1.45,12.66,1.93,4.85,1.74,4.71,3.01,9.7,4.79,2.05.73,6.75,2.36,12.66,1.93,2.94-.22,5.63-1.11,11.03-2.9,7.15-2.37,7.56-3.19,10.53-3.77,6.17-1.2,12.42.76,15.39,2.66,14.66,9.36,6.09,53.11-6.08,55.47Z"/>
        <path class="cls-4" d="M101.35,161.07c.42-.23.69-.6.62-.86-.08-.33-.7-.64-1.48-.43-.34-.08-.87-.21-1.48-.43-1.75-.64-2.45-1.36-3.52-1.83-.48-.21-1.15-.42-3.89-.33-3.48.12-4.93.55-8.14.84-1.22.11-2.41.14-4.81.2-4.84.13-7.26.19-8.7-.12-4.72-1.05-7.51-4.23-7.78-3.87-.2.26,1.15,2.09,3.15,3.33.82.51,2.67,1.48,8.33,1.62,2.76.07,4.84-.1,7.22-.31,4.78-.41,4.97-.74,8.14-.84,3.88-.12,5.81-.19,7.77.66,2.11.91,3.62,2.35,4.56,2.37Z"/>
      </g>
      <g id="Rays-3" data-name="Rays">
        <path id="Rays_outer-3" data-name="Rays outer" class="cls-5" d="M113.89,233.3c-3.62,3.15-8.05-1.22-17.62,2.53-8.03,3.14-8.1,7.46-16.29,10.22-7.25,2.44-13.86,1.3-16.62.79-8.72-1.6-8.94-4.98-19.69-7.9-5.68-1.54-10.56-2.87-16.49-1.44-5.38,1.3-11.17,4.77-12.43,5.53-4.82,2.89-6.08,4.6-6.96,4.06-2.08-1.28,1.7-12.86,8.04-21.92,2.17-3.1,5.26-7.43,10.96-10.99,5.43-3.39,10.53-4.41,11.93-4.66,5.07-.92,5.59.25,10.79-.7,2.14-.39,7.03-1.33,11.93-4.66,2.44-1.66,4.32-3.78,8.1-8.03,5-5.63,4.95-6.54,7.23-8.53,4.74-4.12,11.13-5.55,14.66-5.39,17.38.77,31.83,42.95,22.47,51.08Z"/>
        <path class="cls-4" d="M102.03,210.85c.24-.41.3-.86.11-1.06-.23-.25-.93-.21-1.5.37-.34.11-.85.25-1.5.37-1.84.33-2.8.05-3.96.18-.52.06-1.21.21-3.53,1.66-2.95,1.84-3.99,2.94-6.63,4.8-1,.7-2.02,1.33-4.06,2.58-4.13,2.53-6.19,3.8-7.59,4.24-4.62,1.45-8.62.09-8.67.54-.04.33,2.04,1.24,4.39,1.3.96.03,3.06-.05,8.02-2.76,2.43-1.32,4.14-2.51,6.1-3.87,3.94-2.75,3.93-3.12,6.63-4.8,3.29-2.05,4.94-3.07,7.06-3.32,2.28-.27,4.31.23,5.14-.23Z"/>
      </g>
      <g id="Rays-4" data-name="Rays">
        <path id="Rays_outer-4" data-name="Rays outer" class="cls-5" d="M134.32,274.58c-1.56,4.54-7.58,2.97-14,11-5.39,6.74-3.29,10.51-9,17-5.06,5.74-11.35,8.06-14,9-8.36,2.97-10.24.16-21,3-5.69,1.5-10.58,2.79-15,7-4.01,3.82-7.29,9.72-8,11-2.73,4.91-2.97,7.03-4,7-2.44-.07-4.96-11.98-4-23,.33-3.77.84-9.06,4-15,3-5.65,6.91-9.08,8-10,3.93-3.33,4.96-2.57,9-6,1.66-1.41,5.42-4.67,8-10,1.28-2.65,1.85-5.43,3-11,1.52-7.38,1.02-8.14,2-11,2.04-5.94,6.87-10.37,10-12,15.44-8.02,49.04,21.28,45,33Z"/>
        <path class="cls-4" d="M112.82,261.07c0-.48-.17-.89-.43-.97-.33-.1-.9.28-1.11,1.07-.24.26-.61.65-1.11,1.07-1.43,1.2-2.4,1.44-3.34,2.13-.42.31-.94.78-2.23,3.2-1.63,3.07-1.98,4.54-3.34,7.47-.51,1.11-1.09,2.16-2.23,4.27-2.31,4.26-3.46,6.39-4.46,7.47-3.27,3.56-7.42,4.38-7.24,4.8.13.3,2.38.05,4.46-1.07.85-.46,2.62-1.57,5.57-6.4,1.44-2.36,2.33-4.24,3.34-6.4,2.04-4.35,1.84-4.67,3.34-7.47,1.83-3.42,2.74-5.13,4.46-6.4,1.84-1.37,3.84-1.96,4.33-2.76Z"/>
      </g>
      <g id="Rays-5" data-name="Rays">
        <path id="Rays_outer-5" data-name="Rays outer" class="cls-5" d="M172.94,297.05c.91,4.71-5.08,6.37-6.62,16.53-1.3,8.53,2.41,10.75.71,19.22-1.51,7.5-5.8,12.65-7.62,14.79-5.75,6.75-8.78,5.26-16.69,13.1-4.18,4.15-7.77,7.71-9.49,13.56-1.56,5.31-1.45,12.06-1.43,13.53.09,5.62.95,7.57.04,8.06-2.15,1.16-10.28-7.9-14.96-17.92-1.6-3.43-3.8-8.27-4.04-14.99-.22-6.39,1.45-11.32,1.93-12.66,1.74-4.85,3.01-4.71,4.79-9.7.73-2.05,2.36-6.75,1.93-12.66-.22-2.94-1.11-5.63-2.9-11.03-2.37-7.15-3.19-7.56-3.77-10.53-1.2-6.17.76-12.42,2.66-15.39,9.36-14.66,53.11-6.09,55.47,6.08Z"/>
        <path class="cls-4" d="M147.57,296.1c-.23-.42-.6-.69-.86-.62-.33.08-.64.7-.43,1.48-.08.34-.21.87-.43,1.48-.64,1.75-1.36,2.45-1.83,3.52-.21.48-.42,1.15-.33,3.89.12,3.48.55,4.93.84,8.14.11,1.22.14,2.41.2,4.81.13,4.84.19,7.26-.12,8.7-1.05,4.72-4.23,7.51-3.87,7.78.26.2,2.09-1.15,3.33-3.15.51-.82,1.48-2.67,1.62-8.33.07-2.76-.1-4.84-.31-7.22-.41-4.78-.74-4.97-.84-8.14-.12-3.88-.19-5.81.66-7.77.91-2.11,2.35-3.62,2.37-4.56Z"/>
      </g>
      <g id="Rays-6" data-name="Rays">
        <path id="Rays_outer-6" data-name="Rays outer" class="cls-5" d="M220.79,301.96c3.15,3.62-1.22,8.05,2.53,17.62,3.14,8.03,7.46,8.1,10.22,16.29,2.44,7.25,1.3,13.86.79,16.62-1.6,8.72-4.98,8.94-7.9,19.69-1.54,5.68-2.87,10.56-1.44,16.49,1.3,5.38,4.77,11.17,5.53,12.43,2.89,4.82,4.6,6.08,4.06,6.96-1.28,2.08-12.86-1.7-21.92-8.04-3.1-2.17-7.43-5.26-10.99-10.96-3.39-5.43-4.41-10.53-4.66-11.93-.92-5.07.25-5.59-.7-10.79-.39-2.14-1.33-7.03-4.66-11.93-1.66-2.44-3.78-4.32-8.03-8.1-5.63-5-6.54-4.95-8.53-7.23-4.12-4.74-5.55-11.13-5.39-14.66.77-17.38,42.95-31.83,51.08-22.47Z"/>
        <path class="cls-4" d="M198.34,313.82c-.41-.24-.86-.3-1.06-.11-.25.23-.21.93.37,1.5.11.34.25.85.37,1.5.33,1.84.05,2.8.18,3.96.06.52.21,1.21,1.66,3.53,1.84,2.95,2.94,3.99,4.8,6.63.7,1,1.33,2.02,2.58,4.06,2.53,4.13,3.8,6.19,4.24,7.59,1.45,4.62.09,8.62.54,8.67.33.04,1.24-2.04,1.3-4.39.03-.96-.05-3.06-2.76-8.02-1.32-2.43-2.51-4.14-3.87-6.1-2.75-3.94-3.12-3.93-4.8-6.63-2.05-3.29-3.07-4.94-3.32-7.06-.27-2.28.23-4.31-.23-5.14Z"/>
      </g>
      <g id="Rays-7" data-name="Rays">
        <path id="Rays_outer-7" data-name="Rays outer" class="cls-5" d="M266.41,289.24c4.54,1.56,2.97,7.58,11,14,6.74,5.39,10.51,3.29,17,9,5.74,5.06,8.06,11.35,9,14,2.97,8.36.16,10.24,3,21,1.5,5.69,2.79,10.58,7,15,3.82,4.01,9.72,7.29,11,8,4.91,2.73,7.03,2.97,7,4-.07,2.44-11.98,4.96-23,4-3.77-.33-9.06-.84-15-4-5.65-3-9.08-6.91-10-8-3.33-3.93-2.57-4.96-6-9-1.41-1.66-4.67-5.42-10-8-2.65-1.28-5.43-1.85-11-3-7.38-1.52-8.14-1.02-11-2-5.94-2.04-10.37-6.87-12-10-8.02-15.44,21.28-49.04,33-45Z"/>
        <path class="cls-4" d="M252.9,310.74c-.48,0-.89.17-.97.43-.1.33.28.9,1.07,1.11.26.24.65.61,1.07,1.11,1.2,1.43,1.44,2.4,2.13,3.34.31.42.78.94,3.2,2.23,3.07,1.63,4.54,1.98,7.47,3.34,1.11.51,2.16,1.09,4.27,2.23,4.26,2.31,6.39,3.46,7.47,4.46,3.56,3.27,4.38,7.42,4.8,7.24.3-.13.05-2.38-1.07-4.46-.46-.85-1.57-2.62-6.4-5.57-2.36-1.44-4.24-2.33-6.4-3.34-4.35-2.04-4.67-1.84-7.47-3.34-3.42-1.83-5.13-2.74-6.4-4.46-1.37-1.84-1.96-3.84-2.76-4.33Z"/>
      </g>
      <g id="Rays-8" data-name="Rays">
        <path id="Rays_outer-8" data-name="Rays outer" class="cls-5" d="M297.74,255.78c4.71-.91,6.37,5.08,16.53,6.62,8.53,1.3,10.75-2.41,19.22-.71,7.5,1.51,12.65,5.8,14.79,7.62,6.75,5.75,5.26,8.78,13.1,16.69,4.15,4.18,7.71,7.77,13.56,9.49,5.31,1.56,12.06,1.45,13.53,1.43,5.62-.09,7.57-.95,8.06-.04,1.16,2.15-7.9,10.28-17.92,14.96-3.43,1.6-8.27,3.8-14.99,4.04-6.39.22-11.32-1.45-12.66-1.93-4.85-1.74-4.71-3.01-9.7-4.79-2.05-.73-6.75-2.36-12.66-1.93-2.94.22-5.63,1.11-11.03,2.9-7.15,2.37-7.56,3.19-10.53,3.77-6.17,1.2-12.42-.76-15.39-2.66-14.66-9.36-6.09-53.11,6.08-55.47Z"/>
        <path class="cls-4" d="M296.78,281.16c-.42.23-.69.6-.62.86.08.33.7.64,1.48.43.34.08.87.21,1.48.43,1.75.64,2.45,1.36,3.52,1.83.48.21,1.15.42,3.89.33,3.48-.12,4.93-.55,8.14-.84,1.22-.11,2.41-.14,4.81-.2,4.84-.13,7.26-.19,8.7.12,4.72,1.05,7.51,4.23,7.78,3.87.2-.26-1.15-2.09-3.15-3.33-.82-.51-2.67-1.48-8.33-1.62-2.76-.07-4.84.1-7.22.31-4.78.41-4.97.74-8.14.84-3.88.12-5.81.19-7.77-.66-2.11-.91-3.62-2.35-4.56-2.37Z"/>
      </g>
      <g id="Rays-9" data-name="Rays">
        <path id="Rays_outer-9" data-name="Rays outer" class="cls-5" d="M312.41,208.66c3.62-3.15,8.05,1.22,17.62-2.53,8.03-3.14,8.1-7.46,16.29-10.22,7.25-2.44,13.86-1.3,16.62-.79,8.72,1.6,8.94,4.98,19.69,7.9,5.68,1.54,10.56,2.87,16.49,1.44,5.38-1.3,11.17-4.77,12.43-5.53,4.82-2.89,6.08-4.6,6.96-4.06,2.08,1.28-1.7,12.86-8.04,21.92-2.17,3.1-5.26,7.43-10.96,10.99-5.43,3.39-10.53,4.41-11.93,4.66-5.07.92-5.59-.25-10.79.7-2.14.39-7.03,1.33-11.93,4.66-2.44,1.66-4.32,3.78-8.1,8.03-5,5.63-4.95,6.54-7.23,8.53-4.74,4.12-11.13,5.55-14.66,5.39-17.38-.77-31.83-42.95-22.47-51.08Z"/>
        <path class="cls-4" d="M324.27,231.12c-.24.41-.3.86-.11,1.06.23.25.93.21,1.5-.37.34-.11.85-.25,1.5-.37,1.84-.33,2.8-.05,3.96-.18.52-.06,1.21-.21,3.53-1.66,2.95-1.84,3.99-2.94,6.63-4.8,1-.7,2.02-1.33,4.06-2.58,4.13-2.53,6.19-3.8,7.59-4.24,4.62-1.45,8.62-.09,8.67-.54.04-.33-2.04-1.24-4.39-1.3-.96-.03-3.06.05-8.02,2.76-2.43,1.32-4.14,2.51-6.1,3.87-3.94,2.75-3.93,3.12-6.63,4.8-3.29,2.05-4.94,3.07-7.06,3.32-2.28.27-4.31-.23-5.14.23Z"/>
      </g>
      <g id="Rays-10" data-name="Rays">
        <path id="Rays_outer-10" data-name="Rays outer" class="cls-5" d="M301.36,161.23c1.56-4.54,7.58-2.97,14-11,5.39-6.74,3.29-10.51,9-17,5.06-5.74,11.35-8.06,14-9,8.36-2.97,10.24-.16,21-3,5.69-1.5,10.58-2.79,15-7,4.01-3.82,7.29-9.72,8-11,2.73-4.91,2.97-7.03,4-7,2.44.07,4.96,11.98,4,23-.33,3.77-.84,9.06-4,15-3,5.65-6.91,9.08-8,10-3.93,3.33-4.96,2.57-9,6-1.66,1.41-5.42,4.67-8,10-1.28,2.65-1.85,5.43-3,11-1.52,7.38-1.02,8.14-2,11-2.04,5.94-6.87,10.37-10,12-15.44,8.02-49.04-21.28-45-33Z"/>
        <path class="cls-4" d="M322.86,174.75c0,.48.17.89.43.97.33.1.9-.28,1.11-1.07.24-.26.61-.65,1.11-1.07,1.43-1.2,2.4-1.44,3.34-2.13.42-.31.94-.78,2.23-3.2,1.63-3.07,1.98-4.54,3.34-7.47.51-1.11,1.09-2.16,2.23-4.27,2.31-4.26,3.46-6.39,4.46-7.47,3.27-3.56,7.42-4.38,7.24-4.8-.13-.3-2.38-.05-4.46,1.07-.85.46-2.62,1.57-5.57,6.4-1.44,2.36-2.33,4.24-3.34,6.4-2.04,4.35-1.84,4.67-3.34,7.47-1.83,3.42-2.74,5.13-4.46,6.4-1.84,1.37-3.84,1.96-4.33,2.76Z"/>
      </g>
      <g id="Rays-11" data-name="Rays">
        <path id="Rays_outer-11" data-name="Rays outer" class="cls-5" d="M263.44,130.98c-.91-4.71,5.08-6.37,6.62-16.53,1.3-8.53-2.41-10.75-.71-19.22,1.51-7.5,5.8-12.65,7.62-14.79,5.75-6.75,8.78-5.26,16.69-13.1,4.18-4.15,7.77-7.71,9.49-13.56,1.56-5.31,1.45-12.06,1.43-13.53-.09-5.62-.95-7.57-.04-8.06,2.15-1.16,10.28,7.9,14.96,17.92,1.6,3.43,3.8,8.27,4.04,14.99.22,6.39-1.45,11.32-1.93,12.66-1.74,4.85-3.01,4.71-4.79,9.7-.73,2.05-2.36,6.75-1.93,12.66.22,2.94,1.11,5.63,2.9,11.03,2.37,7.15,3.19,7.56,3.77,10.53,1.2,6.17-.76,12.42-2.66,15.39-9.36,14.66-53.11,6.09-55.47-6.08Z"/>
        <path class="cls-4" d="M288.82,131.93c.23.42.6.69.86.62.33-.08.64-.7.43-1.48.08-.34.21-.87.43-1.48.64-1.75,1.36-2.45,1.83-3.52.21-.48.42-1.15.33-3.89-.12-3.48-.55-4.93-.84-8.14-.11-1.22-.14-2.41-.2-4.81-.13-4.84-.19-7.26.12-8.7,1.05-4.72,4.23-7.51,3.87-7.78-.26-.2-2.09,1.15-3.33,3.15-.51.82-1.48,2.67-1.62,8.33-.07,2.76.1,4.84.31,7.22.41,4.78.74,4.97.84,8.14.12,3.88.19,5.81-.66,7.77-.91,2.11-2.35,3.62-2.37,4.56Z"/>
      </g>
      <g id="Rays-12" data-name="Rays">
        <path id="Rays_outer-12" data-name="Rays outer" class="cls-5" d="M221.2,108.19c-3.15-3.62,1.22-8.05-2.53-17.62-3.14-8.03-7.46-8.1-10.22-16.29-2.44-7.25-1.3-13.86-.79-16.62,1.6-8.72,4.98-8.94,7.9-19.69,1.54-5.68,2.87-10.56,1.44-16.49-1.3-5.38-4.77-11.17-5.53-12.43-2.89-4.82-4.6-6.08-4.06-6.96,1.28-2.08,12.86,1.7,21.92,8.04,3.1,2.17,7.43,5.26,10.99,10.96,3.39,5.43,4.41,10.53,4.66,11.93.92,5.07-.25,5.59.7,10.79.39,2.14,1.33,7.03,4.66,11.93,1.66,2.44,3.78,4.32,8.03,8.1,5.63,5,6.54,4.95,8.53,7.23,4.12,4.74,5.55,11.13,5.39,14.66-.77,17.38-42.95,31.83-51.08,22.47Z"/>
        <path class="cls-4" d="M243.66,96.32c.41.24.86.3,1.06.11.25-.23.21-.93-.37-1.5-.11-.34-.25-.85-.37-1.5-.33-1.84-.05-2.8-.18-3.96-.06-.52-.21-1.21-1.66-3.53-1.84-2.95-2.94-3.99-4.8-6.63-.7-1-1.33-2.02-2.58-4.06-2.53-4.13-3.8-6.19-4.24-7.59-1.45-4.62-.09-8.62-.54-8.67-.33-.04-1.24,2.04-1.3,4.39-.03.96.05,3.06,2.76,8.02,1.32,2.43,2.51,4.14,3.87,6.1,2.75,3.94,3.12,3.93,4.8,6.63,2.05,3.29,3.07,4.94,3.32,7.06.27,2.28-.23,4.31.23,5.14Z"/>
      </g>
      <g id="Rays-13" data-name="Rays">
        <path id="Rays_outer-13" data-name="Rays outer" class="cls-5" d="M172.37,115.91c-4.54-1.56-2.97-7.58-11-14-6.74-5.39-10.51-3.29-17-9-5.74-5.06-8.06-11.35-9-14-2.97-8.36-.16-10.24-3-21-1.5-5.69-2.79-10.58-7-15-3.82-4.01-9.72-7.29-11-8-4.91-2.73-7.03-2.97-7-4,.07-2.44,11.98-4.96,23-4,3.77.33,9.06.84,15,4,5.65,3,9.08,6.91,10,8,3.33,3.93,2.57,4.96,6,9,1.41,1.66,4.67,5.42,10,8,2.65,1.28,5.43,1.85,11,3,7.38,1.52,8.14,1.02,11,2,5.94,2.04,10.37,6.87,12,10,8.02,15.44-21.28,49.04-33,45Z"/>
        <path class="cls-4" d="M185.89,94.41c.48,0,.89-.17.97-.43.1-.33-.28-.9-1.07-1.11-.26-.24-.65-.61-1.07-1.11-1.2-1.43-1.44-2.4-2.13-3.34-.31-.42-.78-.94-3.2-2.23-3.07-1.63-4.54-1.98-7.47-3.34-1.11-.51-2.16-1.09-4.27-2.23-4.26-2.31-6.39-3.46-7.47-4.46-3.56-3.27-4.38-7.42-4.8-7.24-.3.13-.05,2.38,1.07,4.46.46.85,1.57,2.62,6.4,5.57,2.36,1.44,4.24,2.33,6.4,3.34,4.35,2.04,4.67,1.84,7.47,3.34,3.42,1.83,5.13,2.74,6.4,4.46,1.37,1.84,1.96,3.84,2.76,4.33Z"/>
      </g>
    </g>
    <path id="Circle" class="cls-5" d="M339.48,205.47c0,69.31-56.19,125.5-125.5,125.5s-125.5-56.19-125.5-125.5c0-4.07-.7-23.17,8.56-45.66,0,0,4.77-11.71,12.19-22.47,11.58-16.81,51.22-57.51,104.75-57.37,59.93.16,125.5,51.49,125.5,125.5Z"/>
    <ellipse class="cls-11" cx="155.47" cy="223.97" rx="22.5" ry="17.5" transform="translate(-17.4 13.14) rotate(-4.58)"/>
    <ellipse class="cls-11" cx="264.47" cy="223.97" rx="17.5" ry="22.5" transform="translate(.85 448.94) rotate(-80.74)"/>
    <g id="Eyes">
      <g id="Right_Eye" data-name="Right Eye">
        <path class="cls-9" d="M242.97,203.47c1.37,1.53,3.38,3.65,6,6,2.2,1.97,3.35,3,5,4,4.13,2.5,8.19,2.86,10,3,6.78.53,11.8-1.9,14-3,3.6-1.8,7.03-3.52,8-7,.58-2.08.01-3.83-1-7-.78-2.44-1.88-5.87-5-9-3.14-3.15-6.58-4.24-9-5-2.87-.9-6.61-2.08-11-1-4.64,1.14-7.41,4.17-10,7-3.69,4.03-5.79,8.39-7,12Z"/>
        <ellipse class="cls-10" cx="265.47" cy="200.47" rx="16.5" ry="15"/>
        <circle class="cls-7" cx="268.47" cy="199.97" r="5.5"/>
        <circle class="cls-8" cx="264.97" cy="195.47" r="4"/>
        <path class="cls-2" d="M242.47,202.97c-.27-.21.59-1.72.63-1.8,3.79-6.62,10.02-17.51,21.19-17.62,10.91-.11,17.44,10.16,21.19,16.08,0,0,1.32,2.07.99,2.34-.94.78-10.91-17.18-22.18-17-11.35.19-20.89,18.73-21.82,18Z"/>
      </g>
      <g id="Left_Eye" data-name="Left Eye">
        <path class="cls-9" d="M141.97,204.47c1.37,1.53,3.38,3.65,6,6,2.2,1.97,3.35,3,5,4,4.13,2.5,8.19,2.86,10,3,6.78.53,11.8-1.9,14-3,3.6-1.8,7.03-3.52,8-7,.58-2.08.01-3.83-1-7-.78-2.44-1.88-5.87-5-9-3.14-3.15-6.58-4.24-9-5-2.87-.9-6.61-2.08-11-1-4.64,1.14-7.41,4.17-10,7-3.69,4.03-5.79,8.39-7,12Z"/>
        <ellipse class="cls-10" cx="164.47" cy="201.47" rx="16.5" ry="15"/>
        <circle class="cls-7" cx="167.47" cy="200.97" r="5.5"/>
        <circle class="cls-8" cx="163.97" cy="196.47" r="4"/>
        <path class="cls-2" d="M141.47,203.97c-.27-.21.59-1.72.63-1.8,3.79-6.62,10.02-17.51,21.19-17.62,10.91-.11,17.44,10.16,21.19,16.08,0,0,1.32,2.07.99,2.34-.94.78-10.91-17.18-22.18-17-11.35.19-20.89,18.73-21.82,18Z"/>
      </g>
      <g id="Eye_Brow" data-name="Eye Brow">
        <path class="cls-5" d="M133.98,172.97c.28.37,2.45-1.27,8-4,5.73-2.82,8.65-3.65,10-4,2.58-.66,4.62-.87,6.07-.93.4-.02,1.37-.05,2.61,0,2.22.1,3.65.42,6.32.93,4.31.82,6.17,1.54,9,1,1.47-.28,3.02-.68,3-1-.03-.38-2.29-.23-6-1-1.58-.33-1.49-.42-4-1-2.36-.55-3.54-.82-5-1-3.05-.38-5.59-.17-7,0-1.21.15-2.47.43-5,1-1.9.43-2.84.64-4,1-1.95.61-3.37,1.25-5,2-2.02.92-3.02,1.38-4,2-2.94,1.85-5.32,4.58-5,5Z"/>
        <path class="cls-5" d="M248.95,166.94c.16.43,2.71-.51,8.81-1.53,6.3-1.05,9.33-1.01,10.73-.96,2.67.11,4.68.5,6.09.86.39.1,1.32.34,2.5.75,2.36.82,3.66,1.6,5.78,2.71,5.36,2.79,5.96,2.43,8.12,4.2,2.04,1.67,2.87,3.1,3,3,.21-.16-1.56-3.86-5.08-6.44-.62-.45-1.6-1-3.54-2.11-2.11-1.2-3.16-1.8-4.5-2.4-2.82-1.24-5.3-1.77-6.7-2.01-1.2-.2-2.49-.3-5.08-.48-1.94-.14-2.91-.21-4.12-.19-2.04.02-3.58.23-5.36.48-2.2.3-3.29.46-4.41.77-3.34.93-6.41,2.85-6.23,3.35Z"/>
      </g>
    </g>
    <g id="Mouth_Parts" data-name="Mouth Parts">
      <path class="cls-1" d="M214.74,282.47c6.17.9,10.57-.47,12.7-1.32,2.76-1.11,4.89-2.61,6.75-3.94,3.33-2.39,5.45-4.65,6-5.25,1.96-2.14,1.66-2.34,3.75-4.6,2.38-2.57,4.65-4.96,6.75-4.6,1.63.29,2.78,1.57,3,1.31.09-.11-.05-.41-.94-1.61-1.16-1.57-2.32-2.95-4-4-.36-.22-.73-.43-1.06-.3-.55.21-.5,1.13-.75,1.97-.49,1.62-2.27,2.53-3.75,3.28-1.36.69-2.64,1.01-4.5,1.31-3.11.5-5.05.51-8.25.66-5.72.27-5.79.55-10.5.66-.4,0-.68.01-.94.01-.84,0-1.45,0-1.66,0-.63-.01-1.66-.02-3.41,0"/>
      <path class="cls-1" d="M222.74,282.47h-7c-1.98,0-1.98,0-2,0-5.22-.02-9.21-.03-13.23-1.54-2.48-.93-4.11-2.09-6.75-4.01-3.33-2.44-5.45-4.74-6-5.35-1.96-2.18-1.66-2.39-3.75-4.68-2.38-2.62-4.65-5.06-6.75-4.68-1.63.29-2.78,1.6-3,1.34-.09-.11.05-.41.94-1.64,1.16-1.6,2.32-3,4-4.08.36-.23.73-.44,1.06-.31.55.22.5,1.15.75,2.01.49,1.65,2.27,2.58,3.75,3.35,1.36.7,2.64,1.03,4.5,1.34,3.11.51,5.05.52,8.25.67,5.72.27,5.79.56,10.5.67.4,0,.68.01.94.01.84,0,1.45,0,1.66,0,1.92-.04,2.88-.05,3.41,0,1.31.12,1.45.39,2.73.62.93.17,2.28.28,4,0"/>
    </g>
    <g id="Nose_Parts" data-name="Nose Parts">
      <path class="cls-3" d="M195.51,225.47c.17.21-1.78,1.45-3,4-.26.54-1.16,2.54-1,5,.27,4.11,3.31,6.75,3,7-.22.18-1.92-1.08-3-3-1.39-2.47-1.13-4.92-1-6,.13-1.07.41-3.18,2-5,1.24-1.42,2.85-2.18,3-2Z"/>
      <path class="cls-3" d="M232.43,224.95c-.17.21,1.78,1.45,3,4,.26.54,1.16,2.54,1,5-.27,4.11-3.31,6.75-3,7,.22.18,1.92-1.08,3-3,1.39-2.47,1.13-4.92,1-6-.13-1.07-.41-3.18-2-5-1.24-1.42-2.85-2.18-3-2Z"/>
      <path class="cls-6" d="M201.23,238.12c.75.21.65.42,2.09,1.11,1.63.78,3.95,1.56,4.18,1.11.19-.38-1.21-1.6-2.09-2.23-.46-.33-1.13-.8-2.09-1.11-3.23-1.05-6,.92-6.26,1.11-.59.43-1.12.97-1.04,1.11.16.3,2.65-1.82,5.22-1.11Z"/>
      <path class="cls-6" d="M224.34,238.74c.77.13.69.36,2.19.9,1.69.61,4.09,1.15,4.27.69.15-.4-1.36-1.47-2.3-2.01-.49-.28-1.2-.68-2.19-.9-3.32-.73-5.88,1.51-6.12,1.73-.54.49-1.02,1.08-.93,1.21.19.28,2.46-2.08,5.08-1.63Z"/>
    </g>
  </g>
</svg>