<?xml version="1.0" encoding="UTF-8" standalone="no"?>
<!-- Created with Inkscape (http://www.inkscape.org/) -->

<svg
   width="407mm"
   height="210mm"
   viewBox="0 0 407 210"
   version="1.1"
   id="svg1"
   inkscape:version="1.4 (86a8ad7, 2024-10-11)"
   sodipodi:docname="Background.svg"
   xmlns:inkscape="http://www.inkscape.org/namespaces/inkscape"
   xmlns:sodipodi="http://sodipodi.sourceforge.net/DTD/sodipodi-0.dtd"
   xmlns="http://www.w3.org/2000/svg"
   xmlns:svg="http://www.w3.org/2000/svg">
  <sodipodi:namedview
     id="namedview1"
     pagecolor="#ffffff"
     bordercolor="#000000"
     borderopacity="0.25"
     inkscape:showpageshadow="2"
     inkscape:pageopacity="0.0"
     inkscape:pagecheckerboard="0"
     inkscape:deskcolor="#d1d1d1"
     inkscape:document-units="mm"
     inkscape:zoom="0.7349537"
     inkscape:cx="769.43622"
     inkscape:cy="396.62362"
     inkscape:window-width="1920"
     inkscape:window-height="1027"
     inkscape:window-x="-8"
     inkscape:window-y="-8"
     inkscape:window-maximized="1"
     inkscape:current-layer="layer1" />
  <defs
     id="defs1">
    <filter
       inkscape:collect="always"
       style="color-interpolation-filters:sRGB"
       id="filter61"
       x="-0.026849628"
       y="-0.12141169"
       width="1.0536993"
       height="1.2428234">
      <feGaussianBlur
         inkscape:collect="always"
         stdDeviation="4.5711491"
         id="feGaussianBlur61" />
    </filter>
  </defs>
  <g
     inkscape:label="Layer 1"
     inkscape:groupmode="layer"
     id="layer1">
    <rect
       style="fill:#8dd35f;fill-opacity:1;fill-rule:evenodd;stroke-width:0.577972"
       id="rect52-0"
       width="406.79999"
       height="109.07998"
       x="-0.1016565"
       y="101.08583"
       inkscape:label="bottom background - rectangle"
       ry="0" />
    <path
       d="m 198.54708,209.95874 -2.56448,-0.81158 c -1.41047,-0.44637 -3.75511,-1.21366 -5.21031,-1.70509 -1.45521,-0.49143 -3.36021,-1.14734 -4.23334,-1.45757 -0.87312,-0.31022 -2.89718,-1.19616 -4.49791,-1.96875 -1.60073,-0.77258 -3.80339,-2.00265 -4.8948,-2.73347 -1.0914,-0.73083 -2.79069,-2.16439 -3.77618,-3.18568 -1.11795,-1.15857 -2.03836,-2.41441 -2.4474,-3.3393 -0.48909,-1.10593 -0.65411,-1.93404 -0.64977,-3.26079 0.004,-1.20739 0.17702,-2.1558 0.53904,-2.95382 0.29327,-0.64648 0.96556,-1.71804 1.49397,-2.38125 0.52841,-0.6632 1.38717,-1.60749 1.90836,-2.09841 0.52118,-0.49092 1.80448,-1.53272 2.85176,-2.3151 1.04728,-0.78239 1.9548,-1.42252 2.01671,-1.42252 0.0619,0 1.22911,-0.6707 2.59377,-1.49045 1.36466,-0.81975 3.37417,-1.94023 4.46558,-2.48996 1.0914,-0.54973 3.175,-1.55853 4.63021,-2.24177 1.4552,-0.68325 4.16091,-1.88387 6.01267,-2.66805 1.85177,-0.78418 5.48317,-2.2717 8.0698,-3.30561 2.58662,-1.0339 6.13169,-2.39368 7.87794,-3.02172 1.74625,-0.62805 4.54422,-1.62158 6.21771,-2.20785 1.67349,-0.58627 9.28273,-2.36759 16.32227,-5.47902 8.02034,-3.54494 19.40441,-6.96797 -0.27576,-6.41106 -6.37561,0.18042 -25.26994,-1.42289 -21.4968,0.47191 0.91555,0.45977 0.31953,1.79686 -0.19663,2.24226 -1.14748,0.99015 -1.55979,1.45783 -3.21662,2.13223 -2.03811,0.82959 -5.37104,2.10019 -7.40833,2.81909 -2.0373,0.71889 -6.02589,2.07889 -8.86355,3.02221 -2.83765,0.94332 -6.23093,2.06341 -7.54062,2.48909 -1.30969,0.42569 -4.10766,1.26173 -6.21771,1.85788 -2.11005,0.59614 -4.19364,1.19448 -4.63021,1.32964 -0.43656,0.13516 -2.93687,0.91209 -5.55625,1.72651 -2.61937,0.81443 -5.83406,1.81429 -7.14375,2.22193 -1.30968,0.40763 -3.57187,1.18076 -5.02708,1.71805 -1.45521,0.5373 -3.59833,1.32715 -4.7625,1.75521 -1.16417,0.42807 -2.32341,0.89482 -2.5761,1.03722 -0.25268,0.14241 -0.57478,0.25892 -0.71577,0.25892 -0.14099,0 -1.54159,0.54841 -3.11245,1.21869 -1.57085,0.67028 -4.5825,2.08005 -6.69255,3.13281 -2.11006,1.05277 -5.14615,2.71675 -6.74688,3.69775 -1.60073,0.98099 -3.85159,2.45849 -5.00192,3.28333 -1.15033,0.82484 -3.23665,2.63081 -4.63626,4.01326 -1.39961,1.38244 -2.99559,3.19923 -3.54662,4.03729 -0.55104,0.83807 -1.30602,2.18808 -1.67774,3.00003 -0.37172,0.81195 -0.83948,2.09079 -1.03946,2.84187 -0.19998,0.75108 -0.36359,1.84185 -0.36359,2.42393 0,0.58208 0.16587,1.68139 0.3686,2.4429 0.20273,0.76151 0.66918,1.92237 1.03656,2.57969 l 0.66797,1.19512 m 129.15392,-55.69479 c 0,-0.0728 -0.0595,-0.13229 -0.13229,-0.13229 -0.0728,0 -0.1323,0.0595 -0.1323,0.13229 0,0.0728 0.0595,0.13229 0.1323,0.13229 0.0728,0 0.13229,-0.0595 0.13229,-0.13229 z m 0.26458,-0.52917 c 0,-0.0728 -0.0595,-0.13229 -0.13229,-0.13229 -0.36868,0 0.13229,0.50279 0.13229,0.13229 z"
       style="fill:#deb887;fill-opacity:0.69"
       id="path1"
       sodipodi:nodetypes="cssssssssssssssssssssssssssssssssssssssssssssssscssssssss"
       inkscape:label="path" />
    <rect
       style="mix-blend-mode:normal;fill:#82cefa;fill-opacity:1;fill-rule:evenodd;stroke-width:0.593036;filter:url(#filter61)"
       id="rect52"
       width="408.59998"
       height="90.359978"
       x="0.16916668"
       y="0.1908333"
       inkscape:label="sky background - rectangle"
       transform="matrix(0.99471372,0,0,1.0105296,8.8157575e-4,-1.1977377)" />
    <path
       style="opacity:1;fill:#44aa00;fill-opacity:0.74000001;stroke:#d2c5bc;stroke-width:0.37;stroke-dasharray:none;stroke-opacity:0.876033;paint-order:fill markers stroke"
       d="m 267.02305,156.66818 c -7.15576,-0.33685 -16.92909,-1.28024 -19.67595,-1.89927 -1.99826,-0.45032 -2.10051,-0.60381 -1.70815,-2.56408 0.0738,-0.36895 0.0378,-0.5524 -0.78595,-0.67627 -0.70697,-0.10631 -1.99413,-0.16873 -4.28994,-0.26686 -2.871,-0.12272 -10.291,-0.33045 -16.48889,-0.46162 -11.13017,-0.23557 -11.26422,-0.22979 -10.89,0.46946 0.20839,0.38937 0.37889,0.79199 0.37889,0.8947 0,1.06762 -18.13962,1.31278 -29.2283,0.39502 -26.31852,-2.17827 -44.5717,-7.37612 -44.5717,-12.69241 0,-2.38912 1.38309,-3.48708 10.98,-8.71646 7.45047,-4.05979 13.03346,-7.67675 17.1,-11.07829 2.82128,-2.35991 5.76,-5.45128 5.76,-6.05918 0,-0.6315 -36.81373,1.11445 -61.73999,2.92813 -32.094077,2.33522 -71.681611,6.7669 -102.9339548,11.52308 -6.5379636,0.99498 -8.31437657,1.16098 -8.54448454,0.79842 -0.159778,-0.25175 -0.2929849,-12.65804 -0.2960169,-27.56954 l -0.0055,-27.111691 4.40999984,0.22064 c 6.8592874,0.34318 10.4497534,0.85917 16.2899964,2.34101 11.640908,2.95366 24.866005,8.72949 37.115253,16.20945 2.356612,1.43905 4.710258,2.86801 5.230326,3.17545 0.942697,0.55729 0.960829,0.54522 5.939994,-3.9531 18.768607,-16.95605 34.364507,-27.450437 49.878747,-33.563071 17.14213,-6.754027 35.56272,-8.115332 53.39564,-3.945999 14.55541,3.403047 27.31255,9.187127 41.39038,18.76638 l 5.03038,3.42291 4.86962,-1.6775 c 9.3085,-3.20662 16.11045,-4.48379 25.56962,-4.8011 16.50803,-0.553753 30.69107,2.75367 45.34965,10.57537 8.00295,4.27031 17.7469,11.30886 24.76251,17.88723 l 1.89217,1.774241 6.02784,-2.891931 c 10.05038,-4.82181 20.12056,-8.29373 29.19415,-10.06535 4.46889,-0.87255 5.71206,-0.96174 13.73368,-0.98533 6.86726,-0.0202 9.73375,0.11881 12.94714,0.62782 5.80742,0.91989 12.81629,2.78261 18.23879,4.84723 l 4.63407,1.76443 v 20.007541 c 0,11.00416 -0.094,20.10141 -0.20876,20.21613 -0.11485,0.11472 -3.84085,-0.52327 -8.28,-1.41776 -16.26073,-3.27653 -32.56121,-6.08516 -49.08174,-8.45694 -4.9376,-0.70886 -5.43094,-0.84797 -6.12,-1.72562 -7.32783,-7.67935 2.62044,3.65032 5.12834,5.8107 3.82138,3.11077 7.04887,5.02688 15.30437,9.08596 4.24934,2.08934 7.99981,4.10127 8.33438,4.47096 2.3136,2.5565 -4.83838,4.8423 -26.45659,8.45557 -20.12802,3.36421 -38.19723,5.27019 -56.34,5.94287 -10.65393,0.39502 -12.23209,0.3927 -21.24001,-0.0313 z"
       id="path2-4"
       sodipodi:nodetypes="ssssssssssssssssscsssssssscsssscssssscssssssssssss"
       inkscape:label="mountains and house" />
    <path
       d="m 315.47475,147.89863 c 0.0886,-0.14339 -0.13514,-0.31736 -0.49724,-0.38658 -0.38088,-0.0728 -0.66008,-0.002 -0.66243,0.16819 -0.002,0.17871 -0.0889,0.1603 -0.22039,-0.047 -0.1475,-0.23249 -0.4198,-0.27176 -0.85584,-0.12341 -0.35173,0.11966 -1.17529,0.15404 -1.83013,0.0764 l -1.19063,-0.14117 0.71283,-0.63018 c 1.8892,-1.67016 1.77711,-3.47086 -0.21606,-3.47086 -1.26034,0 -1.42032,-0.20996 -0.67437,-0.88504 1.08097,-0.97826 3.25118,-0.43764 3.86408,0.96257 l 0.3714,0.84851 0.0216,-3.10886 c 0.0172,-2.47058 0.0973,-3.10885 0.39015,-3.10885 0.55749,0 0.68977,0.61303 0.68977,3.19664 0,2.25106 0.28485,3.04292 0.63467,1.7643 0.40362,-1.47526 1.83801,-2.2318 3.18643,-1.68063 l 0.74511,0.30456 -1.02634,0.71297 c -1.5537,1.07931 -1.76586,1.5559 -1.29472,2.9084 0.63316,1.81762 0.54445,2.31876 -0.41046,2.31876 -0.44613,0 -1.05581,0.13094 -1.35485,0.29098 -0.30762,0.16463 -0.47373,0.17777 -0.38256,0.0302 z"
       style="fill:#225500"
       id="path1-2-0-6"
       sodipodi:nodetypes="cscssscsssscssssscsssscc"
       inkscape:label="stem" />
    <path
       style="opacity:0.984277;fill:#ff8080;fill-opacity:0.738292;stroke:none;stroke-width:0.370001;stroke-dasharray:none;stroke-opacity:0.876033;paint-order:fill markers stroke"
       d="m 282.41303,133.87451 c -5.29173,-2.58523 -3.24933,-4.24133 -1.53,-3.87 0.35539,-2.00728 4.08207,-0.005 3.6,2.79 0.78664,-2.85266 4.50221,-3.78545 4.5,-1.8 0.38775,0.88335 1.22151,1.01309 -0.63,3.24 l 2.52,2.52 c -0.28409,2.51618 -2.1097,1.33271 -3.51,1.17 l 0.45,2.97 c -2.1201,1.70592 -2.37051,-0.59462 -2.88,-2.34 -0.56044,1.2155 -3.21699,2.48135 -5.13,0.09 -0.58535,-1.68321 1.32011,-1.87193 3.06,-2.16 -3.63621,0.0886 -8.4435,-3.98021 -0.45,-2.61 z"
       id="path60-7"
       sodipodi:nodetypes="cccccccccccc" />
    <path
       style="opacity:0.984277;fill:#ffff00;fill-opacity:0.738292;stroke:none;stroke-width:0.229755;stroke-dasharray:none;stroke-opacity:0.876033;paint-order:fill markers stroke"
       d="m 312.98783,135.21494 c -3.60818,-1.46196 -2.21556,-2.39849 -1.04323,-2.1885 0.24232,-1.13513 2.78337,-0.003 2.45467,1.57775 0.53637,-1.61319 3.06984,-2.14068 3.06833,-1.0179 0.26439,0.49953 0.83289,0.5729 -0.42956,1.83223 l 1.71826,1.42507 c -0.1937,1.42291 -1.4385,0.75365 -2.3933,0.66164 l 0.30684,1.67954 c -1.4456,0.96471 -1.61634,-0.33626 -1.96374,-1.32328 -0.38214,0.68737 -2.19351,1.40322 -3.4979,0.0509 -0.39912,-0.95186 0.90012,-1.05858 2.08647,-1.22149 -2.47936,0.0501 -5.75723,-2.25082 -0.30684,-1.47596 z"
       id="path60-7-7"
       sodipodi:nodetypes="cccccccccccc" />
    <path
       style="opacity:0.984277;fill:#e9c6af;fill-opacity:0.738292;stroke:none;stroke-width:0.229755;stroke-dasharray:none;stroke-opacity:0.876033;paint-order:fill markers stroke"
       d="m 302.46895,141.29037 c -3.60818,-1.46196 -2.21556,-2.39849 -1.04323,-2.1885 0.24232,-1.13513 2.78337,-0.003 2.45467,1.57775 0.53637,-1.61319 3.06984,-2.14068 3.06833,-1.0179 0.26439,0.49953 0.83289,0.5729 -0.42956,1.83223 l 1.71826,1.42507 c -0.1937,1.42291 -1.4385,0.75365 -2.3933,0.66164 l 0.30684,1.67954 c -1.4456,0.96471 -1.61634,-0.33626 -1.96374,-1.32328 -0.38214,0.68737 -2.19351,1.40322 -3.4979,0.0509 -0.39912,-0.95186 0.90012,-1.05858 2.08647,-1.22149 -2.47936,0.0501 -5.75723,-2.25082 -0.30684,-1.47596 z"
       id="path60-7-7-9"
       sodipodi:nodetypes="cccccccccccc" />
    <path
       id="path2"
       style="display:inline;opacity:1;fill:#225500"
       inkscape:label="house gate"
       d="m 234.72469,94.8955 c -17.72583,-0.0409 -33.50193,14.60185 -37.04993,37.29643 -0.83361,5.33213 -0.4724,18.95175 0.52916,19.95331 0.27144,0.27134 7.68668,0.47327 10.23607,0.27853 2.76825,-0.21146 20.92679,-0.0672 32.32102,0.25683 1.21138,0.0359 4.02652,0.62668 5.41156,0.47594 0.76289,0.74035 11.6849,2.06841 15.31638,1.02836 1.32732,-0.38014 4.07797,-3.80985 5.34282,-6.66212 7.78283,-17.55038 -0.29642,-40.85595 -16.98449,-48.99391 -5.04336,-2.459404 -10.15936,-3.62192 -15.12259,-3.63337 z m -4.97231,1.778702 c 3.47179,-0.09559 6.97528,0.587425 10.36888,2.136304 0.61687,0.28155 1.23839,0.511597 1.38131,0.511597 1.30392,0 7.91068,5.563877 10.83913,9.128127 8.88,10.80797 13.04208,30.69338 9.1488,43.71102 -0.35735,1.21387 -0.91145,1.03261 -1.99885,1.09451 -3.36538,0.22265 -6.71213,-0.14691 -10.05933,-0.47904 -0.17073,-0.0543 -1.95656,-0.44698 -2.34407,-0.31311 3.76438,-8.75364 1.35499,-30.90882 -4.30258,-38.91804 -0.28195,-0.39919 -2.1972,-2.58458 -2.86288,-3.21685 -9.90726,-9.55062 -22.32137,-3.56201 -26.54566,12.80593 -1.78364,6.91003 -2.54433,17.04031 -1.77871,23.68021 0.13424,1.16416 0.32118,2.77152 0.41548,3.57188 0.0943,0.80037 0.0729,1.33146 -0.0475,1.17977 -0.34684,-0.43674 -8.5876,0.39485 -12.2468,-0.19172 -2.9875,-0.4789 -2.71077,-17.99029 0.43977,-27.84326 5.19355,-16.24225 17.19378,-26.515881 29.59302,-26.857278 z m 0.74363,23.653858 c 5.85638,0.0618 11.96878,4.96896 13.702,16.43258 0.56315,4.04833 0.30761,8.10898 -0.10076,12.14965 -0.11231,1.11126 -0.34748,4.10125 -0.46891,4.09625 -0.14338,-0.006 -0.31479,-0.0473 -0.4578,-0.0596 4.76879,-31.85502 -12.64976,-32.16409 -13.17889,-32.13729 -9.74809,0.49306 -15.6789,14.42414 -12.63024,29.66744 0.13432,0.97262 0.21247,1.65613 0.11937,1.84847 -0.003,0.007 -0.26317,0.006 -0.26717,-0.002 -0.0172,-0.0309 -0.007,-0.13357 -10e-4,-0.19947 0.0221,-0.24653 -1.07413,-6.89344 -1.04903,-9.71982 0.0124,-5.44394 1.0963,-11.27719 4.15582,-15.9458 2.28248,-3.94653 6.16964,-6.17264 10.17664,-6.13037 z"
       sodipodi:nodetypes="sscsccssssssssccccsscssssssscscccccccccscc" />
    <path
       d="m 172.71145,150.08455 c 0.0886,-0.14339 -0.13514,-0.31736 -0.49724,-0.38658 -0.38088,-0.0728 -0.66008,-0.002 -0.66243,0.16819 -0.002,0.17871 -0.0889,0.1603 -0.22039,-0.047 -0.1475,-0.23249 -0.4198,-0.27176 -0.85584,-0.12341 -0.35173,0.11966 -1.17529,0.15404 -1.83013,0.0764 l -1.19063,-0.14117 0.71283,-0.63018 c 1.8892,-1.67016 1.77711,-3.47086 -0.21606,-3.47086 -1.26034,0 -1.42032,-0.20996 -0.67437,-0.88504 1.08097,-0.97826 3.25118,-0.43764 3.86408,0.96257 l 0.3714,0.84851 0.0216,-3.10886 c 0.0172,-2.47058 0.0973,-3.10885 0.39015,-3.10885 0.55749,0 0.68977,0.61303 0.68977,3.19664 0,2.25106 0.28485,3.04292 0.63467,1.7643 0.40362,-1.47526 1.83801,-2.2318 3.18643,-1.68063 l 0.74511,0.30456 -1.02634,0.71297 c -1.5537,1.07931 -1.76586,1.5559 -1.29472,2.9084 0.63316,1.81762 0.54445,2.31876 -0.41046,2.31876 -0.44613,0 -1.05581,0.13094 -1.35485,0.29098 -0.30762,0.16463 -0.47373,0.17777 -0.38256,0.0302 z"
       style="fill:#225500"
       id="path1-2"
       sodipodi:nodetypes="cscssscsssscssssscsssscc"
       inkscape:label="stem" />
    <path
       d="m 285.42929,148.61827 c 0.0886,-0.14339 -0.13514,-0.31736 -0.49724,-0.38658 -0.38088,-0.0728 -0.66008,-0.002 -0.66243,0.16819 -0.002,0.17871 -0.0889,0.1603 -0.22039,-0.047 -0.1475,-0.23249 -0.4198,-0.27176 -0.85584,-0.12341 -0.35173,0.11966 -1.17529,0.15404 -1.83013,0.0764 l -1.19063,-0.14117 0.71283,-0.63018 c 1.8892,-1.67016 1.77711,-3.47086 -0.21606,-3.47086 -1.26034,0 -1.42032,-0.20996 -0.67437,-0.88504 1.08097,-0.97826 3.25118,-0.43764 3.86408,0.96257 l 0.3714,0.84851 0.0216,-3.10886 c 0.0172,-2.47058 0.0973,-3.10885 0.39015,-3.10885 0.55749,0 0.68977,0.61303 0.68977,3.19664 0,2.25106 0.28485,3.04292 0.63467,1.7643 0.40362,-1.47526 1.83801,-2.2318 3.18643,-1.68063 l 0.74511,0.30456 -1.02634,0.71297 c -1.5537,1.07931 -1.76586,1.5559 -1.29472,2.9084 0.63316,1.81762 0.54445,2.31876 -0.41046,2.31876 -0.44613,0 -1.05581,0.13094 -1.35485,0.29098 -0.30762,0.16463 -0.47373,0.17777 -0.38256,0.0302 z"
       style="fill:#225500"
       id="path1-2-0"
       sodipodi:nodetypes="cscssscsssscssssscsssscc"
       inkscape:label="stem" />
    <path
       d="m 304.81804,151.55836 c 0.0625,-0.11037 -0.0953,-0.24427 -0.3505,-0.29755 -0.26848,-0.056 -0.46528,-0.002 -0.46694,0.12946 -0.001,0.13755 -0.0627,0.12338 -0.15535,-0.0362 -0.10397,-0.17895 -0.29592,-0.20918 -0.60328,-0.095 -0.24793,0.0921 -0.82845,0.11857 -1.29004,0.0588 l -0.83927,-0.10866 0.50247,-0.48506 c 1.33168,-1.28555 1.25267,-2.67157 -0.1523,-2.67157 -0.8884,0 -1.00117,-0.16161 -0.47536,-0.68123 0.76197,-0.75299 2.29174,-0.33686 2.72376,0.7409 l 0.2618,0.65311 0.0152,-2.39294 c 0.0121,-1.90164 0.0686,-2.39293 0.27501,-2.39293 0.39297,0 0.48621,0.47186 0.48621,2.46051 0,1.73267 0.20079,2.34218 0.44738,1.35801 0.28451,-1.13553 1.2956,-1.71786 2.24609,-1.29361 l 0.52522,0.23442 -0.72346,0.54879 c -1.09519,0.83076 -1.24474,1.1976 -0.91264,2.23864 0.44631,1.39905 0.38378,1.78479 -0.28933,1.78479 -0.31447,0 -0.74423,0.10079 -0.95502,0.22397 -0.21684,0.12672 -0.33393,0.13683 -0.26966,0.0232 z"
       style="fill:#225500;stroke-width:0.736592"
       id="path1-2-0-0"
       sodipodi:nodetypes="cscssscsssscssssscsssscc"
       inkscape:label="stem" />
    <path
       d="m 47.235102,50.707591 c 4.966039,-1.233574 3.465146,-2.795257 5.32521,-1.621039 4.21891,2.66328 15.362542,2.825095 20.288948,-2.101346 h 4.08902 c 3.34376,0 4.35423,-0.09226 5.54422,-0.506215 9.50486,-3.306404 6.73141,-13.331672 -3.5451,-12.81456 L 77.05854,31.90542 c 0,-6.891741 -9.031588,-11.121071 -15.242618,-7.137843 l -1.12269,-1.28492 C 59.320322,7.936953 37.011992,3.4196213 28.286053,16.920353 c -1.818744,2.81395 -2.252029,4.245512 -2.273434,7.511356 0.06567,3.588445 -0.09516,2.565693 -2.965091,2.378436 -4.567451,-0.273201 -8.504551,2.188225 -9.657988,6.038055 l -2.441974,1.10918 c -4.627056,0.30052 -7.57548,2.589843 -7.57548,5.88203 0,5.050643 6.411691,7.354603 19.036484,6.840523 2.856673,0.02771 3.375198,-0.959454 5.364092,0.866867 3.7399,3.434198 12.58129,4.870078 19.46244,3.160787 z"
       style="fill:#f9f9f9"
       id="path57"
       sodipodi:nodetypes="sccssssssssssssssss"
       inkscape:label="cloud one" />
    <path
       d="m 360.61493,49.28866 c 3.74569,-0.967649 2.61362,-2.192676 4.0166,-1.271587 3.18215,2.089149 11.58735,2.216081 15.30315,-1.648353 h 3.08418 c 2.52206,0 3.28422,-0.07237 4.18178,-0.397089 7.16914,-2.593633 5.07724,-10.457725 -2.67393,-10.052088 l -1.41714,-1.379816 c 0,-5.406069 -6.81217,-8.72367 -11.4969,-5.599118 l -0.84681,-1.007926 c -1.03553,-12.194471 -17.86182,-15.737989 -24.44345,-5.147649 -1.3718,2.207339 -1.69861,3.330295 -1.71476,5.892111 0.0496,2.814874 -0.0718,2.0126 -2.23645,1.86571 -3.44505,-0.214306 -6.41465,1.716503 -7.28463,4.736414 l -1.84189,0.870071 c -3.49,0.235736 -5.71389,2.031543 -5.71389,4.614024 0,3.961861 4.83609,5.76915 14.35847,5.365891 2.15468,0.02174 2.54577,-0.752621 4.04592,0.679994 2.82086,2.693878 9.48957,3.820222 14.67975,2.479407 z"
       style="fill:#f9f9f9;stroke-width:0.769196"
       id="path57-9"
       sodipodi:nodetypes="sccssssssssssssssss"
       inkscape:label="cloud 3" />
    <path
       d="m 175.60439,49.260738 c 3.74569,-0.967649 2.61362,-2.192676 4.0166,-1.271587 3.18215,2.089149 11.58735,2.216081 15.30315,-1.648353 h 3.08418 c 2.52206,0 3.28422,-0.07237 4.18178,-0.397089 7.16914,-2.593633 5.07724,-10.457725 -2.67393,-10.052088 l -1.41714,-1.379816 c 0,-5.406069 -6.81217,-8.72367 -11.4969,-5.599118 l -0.84681,-1.007926 C 184.71979,15.71029 167.8935,12.166772 161.31187,22.757112 c -1.3718,2.207339 -1.69861,3.330295 -1.71476,5.892111 0.0496,2.814874 -0.0718,2.0126 -2.23645,1.86571 -3.44505,-0.214306 -6.41465,1.716503 -7.28463,4.736414 l -1.84189,0.870071 c -3.49,0.235736 -5.71389,2.031543 -5.71389,4.614024 0,3.961861 4.83609,5.76915 14.35847,5.365891 2.15468,0.02174 2.54577,-0.752621 4.04592,0.679994 2.82086,2.693878 9.48957,3.820222 14.67975,2.479407 z"
       style="fill:#f9f9f9;stroke-width:0.769196"
       id="path57-9-5"
       sodipodi:nodetypes="sccssssssssssssssss"
       inkscape:label="cloud2" />
    <path
       style="opacity:0.984277;fill:#ffff00;fill-opacity:0.738292;stroke:none;stroke-width:0.370001;stroke-dasharray:none;stroke-opacity:0.876033;paint-order:fill markers stroke"
       d="m 169.65,135.27 c -5.29173,-2.58523 -3.24933,-4.24133 -1.53,-3.87 0.35539,-2.00728 4.08207,-0.005 3.6,2.79 0.78664,-2.85266 4.50221,-3.78545 4.5,-1.8 0.38775,0.88335 1.22151,1.01309 -0.63,3.24 l 2.52,2.52 c -0.28409,2.51618 -2.1097,1.33271 -3.51,1.17 l 0.45,2.97 c -2.1201,1.70592 -2.37051,-0.59462 -2.88,-2.34 -0.56044,1.2155 -3.21699,2.48135 -5.13,0.09 -0.58535,-1.68321 1.32011,-1.87193 3.06,-2.16 -3.63621,0.0886 -8.4435,-3.98021 -0.45,-2.61 z"
       id="path59"
       sodipodi:nodetypes="cccccccccccc" />
    <path
       style="opacity:0.984277;fill:#d45500;fill-opacity:0.738292;stroke:none;stroke-width:0.370001;stroke-dasharray:none;stroke-opacity:0.876033;paint-order:fill markers stroke"
       d="m 185.8781,135.97004 c -5.29173,-2.58523 -3.24933,-4.24133 -1.53,-3.87 0.35539,-2.00728 4.08207,-0.005 3.6,2.79 0.78664,-2.85266 4.50221,-3.78545 4.5,-1.8 0.38775,0.88335 1.22151,1.01309 -0.63,3.24 l 2.52,2.52 c -0.28409,2.51618 -2.1097,1.33271 -3.51,1.17 l 0.45,2.97 c -2.1201,1.70592 -2.37051,-0.59462 -2.88,-2.34 -0.56044,1.2155 -3.21699,2.48135 -5.13,0.09 -0.58535,-1.68321 1.32011,-1.87193 3.06,-2.16 -3.63621,0.0886 -8.4435,-3.98021 -0.45,-2.61 z"
       id="path60"
       sodipodi:nodetypes="cccccccccccc" />
    <path
       d="m 188.87591,150.59367 c 0.0886,-0.14339 -0.13514,-0.31736 -0.49724,-0.38658 -0.38088,-0.0728 -0.66008,-0.002 -0.66243,0.16819 -0.002,0.17871 -0.0889,0.1603 -0.22039,-0.047 -0.1475,-0.23249 -0.4198,-0.27176 -0.85584,-0.12341 -0.35173,0.11966 -1.17529,0.15404 -1.83013,0.0764 l -1.19063,-0.14117 0.71283,-0.63018 c 1.8892,-1.67016 1.77711,-3.47086 -0.21606,-3.47086 -1.26034,0 -1.42032,-0.20996 -0.67437,-0.88504 1.08097,-0.97826 3.25118,-0.43764 3.86408,0.96257 l 0.3714,0.84851 0.0216,-3.10886 c 0.0172,-2.47058 0.0973,-3.10885 0.39015,-3.10885 0.55749,0 0.68977,0.61303 0.68977,3.19664 0,2.25106 0.28485,3.04292 0.63467,1.7643 0.40362,-1.47526 1.83801,-2.2318 3.18643,-1.68063 l 0.74511,0.30456 -1.02634,0.71297 c -1.5537,1.07931 -1.76586,1.5559 -1.29472,2.9084 0.63316,1.81762 0.54445,2.31876 -0.41046,2.31876 -0.44613,0 -1.05581,0.13094 -1.35485,0.29098 -0.30762,0.16463 -0.47373,0.17777 -0.38256,0.0302 z"
       style="fill:#225500"
       id="path61"
       sodipodi:nodetypes="cscssscsssscssssscsssscc"
       inkscape:label="stem" />
    <path
       id="path62"
       style="opacity:1;fill:#44aa00;fill-opacity:0.828671;stroke:none;stroke-width:0.275968;stroke-dasharray:none;stroke-opacity:0.881119;paint-order:fill markers stroke"
       d="m 56.226001,173.80438 c -1.227587,1.69785 -2.479827,4.44975 -1.721925,6.42893 0.210337,1.0833 0.813882,2.37861 1.530762,3.46192 3.845114,-2.81107 0.244754,-9.84534 0.191163,-9.89085 z m 5.079714,1.25958 c -3.285399,0.11843 -3.433312,8.72848 -0.831665,8.80651 -0.232877,-3.06252 1.304756,-4.54801 1.770631,-4.29353 1.185805,0.64773 -0.161912,-4.01936 -0.431396,-4.46714 -0.1768,-0.0373 -0.345993,-0.0517 -0.50757,-0.0458 z m -11.71546,0.91923 2.295777,6.14658 2.678835,2.19017 c -0.816345,-6.76984 -4.974612,-8.33675 -4.974612,-8.33675 z" />
    <path
       id="path62-6"
       style="fill:#44aa00;fill-opacity:0.828671;stroke:none;stroke-width:0.275968;stroke-dasharray:none;stroke-opacity:0.881119;paint-order:fill markers stroke"
       d="m 75.019495,147.25208 c -1.227587,1.69785 -2.479827,4.44975 -1.721925,6.42893 0.210337,1.0833 0.813882,2.37861 1.530762,3.46192 3.845114,-2.81107 0.244754,-9.84534 0.191163,-9.89085 z m 5.079714,1.25958 c -3.285399,0.11843 -3.433312,8.72848 -0.831665,8.80651 -0.232877,-3.06252 1.304756,-4.54801 1.770631,-4.29353 1.185805,0.64773 -0.161912,-4.01936 -0.431396,-4.46714 -0.1768,-0.0373 -0.345993,-0.0517 -0.50757,-0.0458 z m -11.71546,0.91923 2.295777,6.14658 2.678835,2.19017 c -0.816345,-6.76984 -4.974612,-8.33675 -4.974612,-8.33675 z" />
    <path
       id="path62-6-4"
       style="fill:#44aa00;fill-opacity:0.828671;stroke:none;stroke-width:0.275968;stroke-dasharray:none;stroke-opacity:0.881119;paint-order:fill markers stroke"
       d="m 21.36283,187.71167 c -1.22759,1.69785 -2.47983,4.44975 -1.721928,6.42893 0.210337,1.0833 0.813882,2.37861 1.530758,3.46192 3.84512,-2.81107 0.24476,-9.84534 0.19117,-9.89085 z m 5.07971,1.25958 c -3.2854,0.11843 -3.43331,8.72848 -0.83166,8.80651 -0.23288,-3.06252 1.30475,-4.54801 1.77063,-4.29353 1.1858,0.64773 -0.16192,-4.01936 -0.4314,-4.46714 -0.1768,-0.0373 -0.34599,-0.0517 -0.50757,-0.0458 z m -11.715459,0.91923 2.295777,6.14658 2.678835,2.19017 c -0.816345,-6.76984 -4.974612,-8.33675 -4.974612,-8.33675 z" />
    <path
       id="path62-6-4-7"
       style="fill:#44aa00;fill-opacity:0.828671;stroke:none;stroke-width:0.275968;stroke-dasharray:none;stroke-opacity:0.881119;paint-order:fill markers stroke"
       d="m 240.86325,186.14167 c -1.22759,1.69785 -2.47983,4.44975 -1.72193,6.42893 0.21034,1.0833 0.81388,2.37861 1.53076,3.46192 3.84512,-2.81107 0.24476,-9.84534 0.19117,-9.89085 z m 5.07971,1.25958 c -3.2854,0.11843 -3.43331,8.72848 -0.83166,8.80651 -0.23288,-3.06252 1.30475,-4.54801 1.77063,-4.29353 1.1858,0.64773 -0.16192,-4.01936 -0.4314,-4.46714 -0.1768,-0.0373 -0.34599,-0.0517 -0.50757,-0.0458 z m -11.71546,0.91923 2.29578,6.14658 2.67883,2.19017 c -0.81634,-6.76984 -4.97461,-8.33675 -4.97461,-8.33675 z" />
    <path
       id="path62-6-4-7-9"
       style="fill:#44aa00;fill-opacity:0.828671;stroke:none;stroke-width:0.275968;stroke-dasharray:none;stroke-opacity:0.881119;paint-order:fill markers stroke"
       d="m 298.42742,181.7125 c -1.22759,1.69785 -2.47983,4.44975 -1.72193,6.42893 0.21034,1.0833 0.81388,2.37861 1.53076,3.46192 3.84512,-2.81107 0.24476,-9.84534 0.19117,-9.89085 z m 5.07971,1.25958 c -3.2854,0.11843 -3.43331,8.72848 -0.83166,8.80651 -0.23288,-3.06252 1.30475,-4.54801 1.77063,-4.29353 1.1858,0.64773 -0.16192,-4.01936 -0.4314,-4.46714 -0.1768,-0.0373 -0.34599,-0.0517 -0.50757,-0.0458 z m -11.71546,0.91923 2.29578,6.14658 2.67883,2.19017 c -0.81634,-6.76984 -4.97461,-8.33675 -4.97461,-8.33675 z" />
    <path
       id="path62-6-4-7-9-9"
       style="fill:#44aa00;fill-opacity:0.828671;stroke:none;stroke-width:0.202829;stroke-dasharray:none;stroke-opacity:0.881119;paint-order:fill markers stroke"
       d="m 356.19954,182.33708 c -0.95843,1.17472 -1.9361,3.07872 -1.34438,4.44808 0.16422,0.74952 0.63543,1.64573 1.19513,2.39525 3.00204,-1.94494 0.19109,-6.81184 0.14925,-6.84333 z m 3.96594,0.87148 c -2.56505,0.0819 -2.68052,6.03911 -0.64931,6.0931 -0.18182,-2.11891 1.01867,-3.1467 1.3824,-2.97063 0.92581,0.44815 -0.12641,-2.78094 -0.33681,-3.09075 -0.13803,-0.0258 -0.27013,-0.0358 -0.39628,-0.0317 z m -9.14674,0.63601 1.79241,4.25272 2.09147,1.51535 c -0.63735,-4.68395 -3.88388,-5.76807 -3.88388,-5.76807 z" />
    <path
       id="path62-6-4-7-9-9-7"
       style="fill:#44aa00;fill-opacity:0.828671;stroke:none;stroke-width:0.202829;stroke-dasharray:none;stroke-opacity:0.881119;paint-order:fill markers stroke"
       d="m 389.63288,165.8075 c -0.95843,1.17472 -1.9361,3.07872 -1.34438,4.44808 0.16422,0.74952 0.63543,1.64573 1.19513,2.39525 3.00204,-1.94494 0.19109,-6.81184 0.14925,-6.84333 z m 3.96594,0.87148 c -2.56505,0.0819 -2.68052,6.03911 -0.64931,6.0931 -0.18182,-2.11891 1.01867,-3.1467 1.3824,-2.97063 0.92581,0.44815 -0.12641,-2.78094 -0.33681,-3.09075 -0.13803,-0.0258 -0.27013,-0.0358 -0.39628,-0.0317 z m -9.14674,0.63601 1.79241,4.25272 2.09147,1.51535 c -0.63735,-4.68395 -3.88388,-5.76807 -3.88388,-5.76807 z" />
    <path
       id="path62-6-4-7-9-9-7-1"
       style="fill:#44aa00;fill-opacity:0.828671;stroke:none;stroke-width:0.202829;stroke-dasharray:none;stroke-opacity:0.881119;paint-order:fill markers stroke"
       d="m 338.80831,168.10625 c -0.95843,1.17472 -1.9361,3.07872 -1.34438,4.44808 0.16422,0.74952 0.63543,1.64573 1.19513,2.39525 3.00204,-1.94494 0.19109,-6.81184 0.14925,-6.84333 z m 3.96594,0.87148 c -2.56505,0.0819 -2.68052,6.03911 -0.64931,6.0931 -0.18182,-2.11891 1.01867,-3.1467 1.3824,-2.97063 0.92581,0.44815 -0.12641,-2.78094 -0.33681,-3.09075 -0.13803,-0.0258 -0.27013,-0.0358 -0.39628,-0.0317 z m -9.14674,0.63601 1.79241,4.25272 2.09147,1.51535 c -0.63735,-4.68395 -3.88388,-5.76807 -3.88388,-5.76807 z" />
    <path
       id="path62-6-4-7-9-9-7-1-0"
       style="fill:#44aa00;fill-opacity:0.828671;stroke:none;stroke-width:0.202829;stroke-dasharray:none;stroke-opacity:0.881119;paint-order:fill markers stroke"
       d="m 110.29829,163.07083 c -0.95843,1.17472 -1.9361,3.07872 -1.34438,4.44808 0.16422,0.74952 0.63543,1.64573 1.19513,2.39525 3.00204,-1.94494 0.19109,-6.81184 0.14925,-6.84333 z m 3.96594,0.87148 c -2.56505,0.0819 -2.68052,6.03911 -0.64931,6.0931 -0.18182,-2.11891 1.01867,-3.1467 1.3824,-2.97063 0.92581,0.44815 -0.12641,-2.78094 -0.33681,-3.09075 -0.13803,-0.0258 -0.27013,-0.0358 -0.39628,-0.0317 z m -9.14674,0.63601 1.79241,4.25272 2.09147,1.51535 c -0.63735,-4.68395 -3.88388,-5.76807 -3.88388,-5.76807 z" />
    <path
       id="path62-6-4-7-9-9-7-1-0-7"
       style="fill:#44aa00;fill-opacity:0.828671;stroke:none;stroke-width:0.202829;stroke-dasharray:none;stroke-opacity:0.881119;paint-order:fill markers stroke"
       d="m 102.89497,181.50833 c -0.95843,1.17472 -1.9361,3.07872 -1.34438,4.44808 0.16422,0.74952 0.63543,1.64573 1.19513,2.39525 3.00204,-1.94494 0.19109,-6.81184 0.14925,-6.84333 z m 3.96594,0.87148 c -2.56505,0.0819 -2.68052,6.03911 -0.64931,6.0931 -0.18182,-2.11891 1.01867,-3.1467 1.3824,-2.97063 0.92581,0.44815 -0.12641,-2.78094 -0.33681,-3.09075 -0.13803,-0.0258 -0.27013,-0.0358 -0.39628,-0.0317 z m -9.14674,0.63601 1.79241,4.25272 2.09147,1.51535 c -0.63735,-4.68395 -3.88388,-5.76807 -3.88388,-5.76807 z" />
    <path
       id="path62-6-4-7-9-9-7-1-0-7-1"
       style="fill:#44aa00;fill-opacity:0.828671;stroke:none;stroke-width:0.202829;stroke-dasharray:none;stroke-opacity:0.881119;paint-order:fill markers stroke"
       d="m 22.62788,151.59833 c -0.95843,1.17472 -1.9361,3.07872 -1.34438,4.44808 0.16422,0.74952 0.63543,1.64573 1.19513,2.39525 3.00204,-1.94494 0.19109,-6.81184 0.14925,-6.84333 z m 3.96594,0.87148 c -2.56505,0.0819 -2.68052,6.03911 -0.64931,6.0931 -0.18182,-2.11891 1.01867,-3.1467 1.3824,-2.97063 0.92581,0.44815 -0.12641,-2.78094 -0.33681,-3.09075 -0.13803,-0.0258 -0.27013,-0.0358 -0.39628,-0.0317 z m -9.14674,0.63601 1.79241,4.25272 2.09147,1.51535 c -0.63735,-4.68395 -3.88388,-5.76807 -3.88388,-5.76807 z" />
    <path
       id="path62-6-4-7-9-9-7-1-0-7-1-5"
       style="fill:#44aa00;fill-opacity:0.828671;stroke:none;stroke-width:0.202829;stroke-dasharray:none;stroke-opacity:0.881119;paint-order:fill markers stroke"
       d="m 56.11955,150.54833 c -0.95843,1.17472 -1.9361,3.07872 -1.34438,4.44808 0.16422,0.74952 0.63543,1.64573 1.19513,2.39525 3.00204,-1.94494 0.19109,-6.81184 0.14925,-6.84333 z m 3.96594,0.87148 c -2.56505,0.0819 -2.68052,6.03911 -0.64931,6.0931 -0.18182,-2.11891 1.01867,-3.1467 1.3824,-2.97063 0.92581,0.44815 -0.12641,-2.78094 -0.33681,-3.09075 -0.13803,-0.0258 -0.27013,-0.0358 -0.39628,-0.0317 z m -9.14674,0.63601 1.79241,4.25272 2.09147,1.51535 c -0.63735,-4.68395 -3.88388,-5.76807 -3.88388,-5.76807 z" />
  </g>
</svg>
