<?xml version="1.0" encoding="UTF-8" standalone="no"?>
<!-- Created with Inkscape (http://www.inkscape.org/) -->

<svg
   width="73.314812mm"
   height="116.42133mm"
   viewBox="0 0 73.314812 116.42133"
   version="1.1"
   id="svg1"
   xml:space="preserve"
   sodipodi:docname="frontFacing-kind-teletubbie.svg"
   inkscape:version="1.4 (86a8ad7, 2024-10-11)"
   xmlns:inkscape="http://www.inkscape.org/namespaces/inkscape"
   xmlns:sodipodi="http://sodipodi.sourceforge.net/DTD/sodipodi-0.dtd"
   xmlns="http://www.w3.org/2000/svg"
   xmlns:svg="http://www.w3.org/2000/svg"><sodipodi:namedview
     id="namedview1"
     pagecolor="#ffffff"
     bordercolor="#000000"
     borderopacity="0.25"
     inkscape:showpageshadow="2"
     inkscape:pageopacity="0.0"
     inkscape:pagecheckerboard="0"
     inkscape:deskcolor="#d1d1d1"
     inkscape:document-units="mm"
     inkscape:zoom="1.4142136"
     inkscape:cx="25.455844"
     inkscape:cy="178.54446"
     inkscape:window-width="1920"
     inkscape:window-height="1027"
     inkscape:window-x="-8"
     inkscape:window-y="1072"
     inkscape:window-maximized="1"
     inkscape:current-layer="layer1" /><defs
     id="defs1" /><g
     inkscape:label="Layer 1"
     inkscape:groupmode="layer"
     id="layer1"
     transform="translate(-57.27459,-61.863082)"><path
       id="path1"
       style="fill:#33ab00;fill-opacity:1"
       d="m 93.758101,61.863407 c -0.39735,0 -0.424588,0.06956 -0.961698,2.448947 -0.23973,1.06202 -0.907657,3.965629 -1.484147,6.452319 -0.79585,3.43289 -1.038191,4.646126 -1.007691,5.039486 0.02783,0.35905 0.271794,1.044298 0.794784,2.232938 0.41502,0.94326 0.754476,1.759326 0.754476,1.813326 0,0.054 -0.123916,0.09818 -0.275436,0.09818 -0.51316,0 -2.837203,0.464543 -3.776513,0.754993 -3.326354,1.0286 -6.547529,3.073313 -8.41499,5.341793 -1.330086,1.61571 -2.081305,2.941797 -2.708362,4.782137 -0.158866,0.46626 -0.30121,0.862233 -0.31626,0.879533 -0.01505,0.01727 -0.492433,-0.385606 -1.060917,-0.895036 -1.245748,-1.11633 -2.038184,-1.538304 -3.023071,-1.609204 -2.085699,-0.15022 -2.988666,1.099389 -2.992066,4.139799 -0.0018,1.63419 0.200943,3.170736 0.628386,4.759916 0.79188,2.944106 1.910431,4.789976 4.039546,6.665736 1.830969,1.61305 3.457172,2.16554 4.69067,1.59319 0.303425,-0.14078 0.336434,-0.14082 0.424264,0 0.296648,0.47565 1.495132,1.78445 2.249991,2.45722 l 0.872299,0.7772 -1.136365,0.56483 c -3.389029,1.68419 -6.867467,4.21949 -9.787,7.13342 -3.815982,3.80863 -6.199351,7.35514 -8.80308,13.0979 -0.786986,1.73577 -0.871382,1.87408 -1.771468,2.90732 -2.579367,2.96093 -3.399166,4.37506 -3.418396,5.89628 -0.01189,0.94105 0.201675,1.45897 0.824756,2.00194 0.981582,0.85504 2.88851,0.85198 4.413684,-0.008 0.230942,-0.13018 0.6911,-0.46862 1.02216,-0.75189 l 0.601513,-0.5147 0.416512,0.38447 c 1.041513,0.96298 2.581693,0.61713 3.222026,-0.72347 0.209886,-0.43941 0.450569,-1.61907 0.455269,-2.2319 l 0.0036,-0.47697 1.794722,-1.50069 c 2.648186,-2.21556 2.638714,-2.20761 2.668054,-2.20761 0.01491,0 -0.111545,0.39206 -0.281119,0.87126 -0.806618,2.27945 -1.546674,5.56557 -1.774569,7.88169 -0.159678,1.62281 -0.07285,5.40108 0.160197,6.97736 0.545584,3.69024 1.585561,6.99898 3.759977,11.96205 0.681277,1.555 3.103014,6.80643 3.624068,7.85844 0.212938,0.42992 0.244257,0.56818 0.136426,0.60048 -0.07702,0.023 -0.556978,0.29202 -1.066601,0.59789 -1.633005,0.98012 -2.679993,2.23268 -2.999301,3.58738 -0.199572,0.84672 -0.125982,1.54878 0.231511,2.20917 0.301835,0.55757 1.125454,1.27573 1.891357,1.64848 0.634027,0.30857 2.151215,0.71248 3.082499,0.82062 h 5.17e-4 c 2.632797,0.30543 5.800526,-0.0854 7.824846,-0.96582 2.05697,-0.8946 3.260528,-2.05885 3.804418,-3.68041 0.19902,-0.59275 0.201785,-2.07109 0.0057,-2.78536 -0.13939,-0.50772 -0.128183,-0.57632 0.564307,-3.43803 0.38862,-1.60598 1.028035,-4.26555 1.420585,-5.91023 0.39254,-1.64469 0.738445,-2.99037 0.768945,-2.99051 0.03047,-1.5e-4 0.521263,1.95978 1.090373,4.3558 0.56912,2.39603 1.197287,5.01371 1.396297,5.8167 0.35196,1.42012 0.358256,1.48033 0.227376,2.2133 -0.4018,2.25021 0.102165,3.72241 1.754415,5.12578 1.37924,1.17147 3.280843,1.90528 5.763473,2.22416 2.72485,0.35001 5.86333,-0.0154 7.50445,-0.87385 0.73274,-0.38328 1.4408,-1.03278 1.75855,-1.61334 0.25417,-0.46434 0.28916,-0.63468 0.28216,-1.37769 -0.006,-0.64534 -0.0623,-0.96708 -0.2372,-1.34824 -0.54594,-1.18955 -1.57362,-2.24705 -3.01842,-3.10678 -0.44831,-0.26678 -0.86451,-0.50022 -0.92501,-0.51832 -0.064,-0.0192 0.0576,-0.38409 0.29094,-0.87334 1.24119,-2.60253 3.3896,-7.29101 4.03541,-8.80668 2.3668,-5.55469 3.32257,-9.43045 3.45147,-13.99606 0.096,-3.3993 -0.22407,-5.9316 -1.18184,-9.35705 -0.38923,-1.39205 -0.62516,-2.09484 -1.25005,-3.7207 -0.0691,-0.17977 -0.0652,-0.18052 0.0842,-0.0171 0.82364,0.90082 2.47832,2.45958 3.45767,3.25718 l 1.20303,0.97978 0.0589,0.95137 c 0.0325,0.52323 0.13756,1.17984 0.23306,1.45933 0.42797,1.25238 1.37382,1.87503 2.45257,1.61438 0.42144,-0.10183 1.0895,-0.58043 1.187,-0.85059 0.0368,-0.102 0.25895,0.0314 0.8015,0.48213 1.44745,1.20244 3.13688,1.67611 4.51446,1.26555 1.02124,-0.30437 1.8035,-1.34126 1.8035,-2.39106 0,-1.39832 -1.12486,-3.33211 -3.49332,-6.00584 -0.87791,-0.99107 -1.06235,-1.26535 -1.42575,-2.11925 -2.24954,-5.2859 -5.00003,-9.54369 -8.54315,-13.22607 -1.3178,-1.36959 -4.04605,-3.751 -5.48597,-4.78885 -1.36512,-0.98393 -3.82872,-2.48288 -5.11804,-3.11351 -0.50473,-0.24687 -0.91777,-0.47019 -0.91777,-0.49609 0,-0.0259 0.34464,-0.35587 0.76584,-0.73381 0.66646,-0.59801 1.66504,-1.69761 2.17817,-2.3983 0.16163,-0.22076 0.16266,-0.22066 0.52451,-0.0486 0.85813,0.4081 2.31917,0.12996 3.51245,-0.6687 0.94481,-0.63236 2.27694,-1.85216 2.88561,-2.64221 1.79249,-2.32662 2.86396,-5.957236 2.87476,-9.741006 0.003,-1.19307 -0.0381,-1.695999 -0.1788,-2.164209 -0.38589,-1.28403 -1.06007,-1.890287 -2.18281,-1.963187 -1.22303,-0.07938 -2.19584,0.370394 -3.71089,1.714624 -0.50319,0.44646 -0.92501,0.752563 -0.94981,0.689363 -0.0245,-0.06253 -0.24014,-0.622181 -0.47904,-1.243851 -1.02434,-2.66555 -2.87587,-5.113921 -5.05654,-6.686931 -2.76816,-1.99679 -5.884828,-3.244818 -9.102288,-3.644738 -0.49288,-0.06123 -0.912977,-0.121976 -0.933277,-0.134876 -0.02029,-0.01295 0.151749,-0.460898 0.381889,-0.995288 0.23015,-0.5344 0.59449,-1.435148 0.80977,-2.001428 l 0.391191,-1.029395 -0.214458,-0.995805 c -0.64786,-3.00403 -2.867992,-12.612347 -2.955892,-12.793017 -0.0729,-0.14983 -0.192557,-0.211874 -0.407727,-0.211874 z m -0.0186,1.863969 c 0.06124,-0.08804 0.197645,0.523177 1.574064,6.572726 0.63734,2.80117 1.158172,5.23801 1.157552,5.41569 -0.0013,0.37396 -0.233335,1.109273 -0.467155,1.480013 -0.24266,0.38475 -1.223058,2.956132 -1.188558,3.117122 0.02233,0.10402 0.421603,0.195237 1.551843,0.353467 2.42059,0.3389 3.982333,1.19764 5.941753,2.14974 2.35073,1.14223 4.48134,2.364123 5.84047,4.196643 1.0468,1.41141 1.63015,2.540082 2.23966,4.332552 0.48196,1.41735 0.61052,1.695504 0.7829,1.695504 0.0454,0 0.32084,-0.272272 0.61236,-0.605132 0.76091,-0.8688 1.89671,-1.838586 2.60036,-2.220536 0.5385,-0.29228 0.6897,-0.329695 1.33222,-0.329695 0.7184,0 0.72807,0.0034 1.11362,0.393257 0.51979,0.525593 0.75305,1.3741 0.7737,2.690754 0.007,0.438307 0.0114,0.928493 -0.0332,1.475917 -0.22833,2.8042 -0.84697,5.028536 -1.94252,6.982002 -1.07378,1.91465 -2.85236,3.56953 -4.61419,4.29328 -0.77412,0.31801 -1.22979,0.27084 -1.96577,-0.20361 -0.62584,-0.40344 -0.49758,-0.4671 -1.27021,0.63252 -0.55889,0.79541 -2.08235,2.35099 -2.84427,2.90422 -0.39906,0.28975 -0.57647,0.48307 -0.56017,0.61185 0.0174,0.13811 0.38739,0.35911 1.38545,0.82682 2.83698,1.32949 5.59461,3.1651 8.22947,5.47874 4.71388,4.13919 7.78557,8.587 10.4443,14.6414 0.81522,1.85638 0.97288,1.86717 2.08155,3.11927 1.79978,2.03262 2.89857,3.71638 3.19567,4.89686 0.14826,0.5882 0.14814,0.69422 -0.005,1.16582 -0.0924,0.28525 -0.28704,0.64533 -0.43253,0.80047 -0.59541,0.63494 -1.87422,0.74837 -2.99827,0.26561 -0.76934,-0.33041 -1.89486,-1.18891 -2.51923,-1.92081 l -0.49919,-0.58446 -0.47284,0.47181 c -0.66042,0.65916 -0.0787,1.10742 -0.76791,1.10742 -0.45963,0 -0.7943,-0.0496 -1.01596,-0.54674 -0.17634,-0.39544 -0.21954,-0.81831 -0.31574,-1.49861 l -0.20258,-1.43144 -1.75958,-1.62884 c -2.48735,-2.67086 -3.50761,-2.94467 -4.44004,-4.89273 -0.49419,-1.03248 -3.85925,-6.46947 -4.06228,-6.68899 -0.16092,-0.17399 -0.80181,-0.10771 -0.95033,0.1049 -0.0926,0.13258 0.25727,1.14407 1.38028,3.15485 1.90668,3.41395 2.95845,5.55214 3.84731,8.03 1.96753,5.48483 2.34441,10.86899 1.15652,16.5716 -0.81387,3.90706 -2.23785,7.26513 -6.56653,16.3437 -0.46744,0.98035 -0.64699,1.9686 -0.64699,2.0314 0,0.0628 0.36866,0.45437 0.90227,0.73226 1.29982,0.6769 2.31446,1.76767 2.80035,2.66237 0.62192,1.14518 0.38473,1.99998 -0.37724,2.86494 -1.04507,1.18634 -3.56636,1.45787 -6.65489,1.21284 -3.83708,-0.30442 -6.187165,-1.00379 -7.254335,-2.99465 -0.33884,-0.63214 -0.314817,-0.66734 -0.355017,-1.51515 -0.03078,-0.64949 0.05102,-1.13854 0.162264,-1.56321 0.1169,-0.44596 -0.180314,-0.76628 -0.250114,-1.03405 -0.05321,-0.20408 -0.35524,-2.84411 -1.11156,-6.00428 -0.75633,-3.16016 -1.800922,-6.11206 -1.881022,-6.42235 -0.18514,-0.71702 -0.636443,-1.47647 -0.952913,-1.1343 -0.1183,0.12789 -0.783466,3.55585 -2.78691,10.93784 -2.466922,9.08975 -0.85705,3.52372 -0.7059,4.08864 0.17521,0.65484 0.24131,1.21292 0.08785,1.81022 -0.28027,1.09086 -1.024584,1.99888 -2.279964,2.75229 -1.29555,0.77752 -2.683048,1.14631 -4.859135,1.29139 l -2.700611,0.17984 c -2.265414,0.15104 -3.040583,-1.1537 -4.337203,-2.14664 -0.410238,-0.31416 -0.137976,-0.14708 -0.137976,-0.93483 0,-0.73926 0.399583,-0.41369 0.65319,-0.89968 0.588966,-1.12864 0.727393,-2.23628 2.270663,-3.01222 0.288678,-0.14515 0.433414,-0.6005 0.531234,-0.6749 0.212497,-0.16153 0.541992,-0.10737 -1.222148,-3.86901 -3.345404,-7.13333 -4.722953,-10.65596 -5.459098,-13.79141 -1.852826,-7.8917 -1.001838,-14.40111 3.097485,-22.53454 0.300273,-0.59577 1.040811,-2.23827 1.72806,-3.45715 0.687249,-1.21889 1.294494,-2.37057 1.294494,-2.44947 0,-0.19079 -0.613888,-0.6165 -0.837158,-0.6165 -0.229509,0 -0.52409,0.50904 -1.674833,2.57762 -1.078722,1.93912 -2.04985,3.20091 -2.632914,4.47983 -0.389166,0.85361 -0.501688,0.82369 -1.787488,2.00247 -1.371613,1.25745 -2.447088,2.52847 -3.618384,3.69899 l -0.749825,0.74931 -0.294039,1.1281 c -0.333283,1.27833 -0.06916,1.58585 -0.516764,1.98748 -0.440298,0.39507 -0.8557,0.40118 -1.28726,0.0139 -0.270659,-0.24286 -0.501161,-0.41054 -0.7059,-1.22422 -0.06575,-0.2613 -0.40971,-0.009 -0.82734,0.55191 -0.943748,1.26812 -2.280524,1.9847 -3.569291,2.05 -1.402297,0.0711 -1.861083,-0.57774 -1.852083,-1.87224 0.0084,-1.20094 0.542556,-2.3117 2.658545,-4.7036 1.109471,-1.25414 2.294794,-2.65514 2.638564,-3.47009 1.822239,-4.31984 3.336987,-7.25697 5.797904,-10.20844 3.669565,-4.40104 8.205818,-8.00512 12.89577,-10.11618 0.594285,-0.2675 1.110617,-0.78122 1.147217,-0.86682 0.0476,-0.11132 -0.05081,-0.50231 -0.458328,-0.80739 -1.302731,-0.97525 -2.557641,-2.25547 -3.178451,-3.29778 l -0.392545,-0.66894 -0.742127,0.22689 c -0.736807,0.22526 -0.944158,0.46465 -1.651929,0.26446 -1.130394,-0.31973 -2.480173,-1.8954 -3.717259,-3.35396 -1.874777,-2.210406 -3.275434,-5.600018 -3.142307,-9.119558 0.06567,-1.73612 0.413602,-2.495416 1.257288,-2.889306 0.426771,-0.19925 0.981262,-0.04753 1.601845,0.21172 0.630587,0.26343 2.27738,1.530942 2.823677,2.252172 0.626739,0.82742 0.963767,0.715081 1.411052,-0.690159 0.670949,-2.10792 1.322039,-3.240372 2.36722,-4.624322 0.885568,-1.1726 1.566554,-1.895669 2.54472,-2.650079 2.781492,-2.14523 5.884766,-3.326978 9.934716,-3.799988 0.51723,-0.06041 0.76212,-0.171158 0.78512,-0.325638 0.0154,-0.10347 -0.428105,-1.226508 -0.869055,-2.262628 -0.44096,-1.03612 -0.847837,-2.074749 -0.904337,-2.307869 -0.08879,-0.36601 -0.03086,-0.732561 0.42633,-2.684591 0.29121,-1.24335 0.889575,-3.828566 1.329635,-5.745386 0.44006,-1.91682 0.828496,-3.570057 0.862996,-3.673677 0.0091,-0.0273 0.01606,-0.05409 0.02481,-0.06666 z m 0.329774,21.311051 c -4.20152,-0.01837 -7.726571,1.217573 -10.46559,3.778283 -2.506098,2.34295 -4.047074,5.111707 -4.210983,9.022847 -0.09246,2.206333 0.72517,5.145093 1.579181,6.682473 1.933337,3.48038 6.165326,5.51398 11.258666,6.03608 1.29855,0.13311 3.485017,0.0291 4.940267,-0.23461 3.007714,-0.54503 5.307574,-1.64305 7.385074,-3.52588 1.96543,-1.78126 2.91281,-3.62416 3.26492,-6.35 0.15301,-1.184446 0.0649,-3.792132 -0.16588,-4.906682 -0.37187,-1.79588 -1.18343,-3.58158 -2.28617,-5.0307 -0.70872,-0.93133 -2.4443,-2.490278 -3.40547,-3.058728 -2.474377,-1.46338 -4.926705,-2.400083 -7.894015,-2.413083 z m -0.25691,0.916016 c 0.898122,-0.0094 1.791641,0.0266 2.397786,0.111105 2.69848,0.37621 5.426099,1.674882 7.328229,3.489192 2.33072,2.22311 3.47187,4.917408 3.61064,8.525578 0.16778,4.362682 -1.47383,7.580122 -4.92787,9.658322 -1.63745,0.98521 -3.700148,1.72228 -5.635828,2.01383 -1.22215,0.18407 -3.874757,0.18413 -5.203817,0 -4.32084,-0.59859 -8.00208,-2.81595 -9.68313,-5.8322 -1.017114,-1.82498 -1.431525,-4.090323 -1.188558,-6.499343 0.353029,-3.50028 1.529106,-5.942621 3.882968,-8.065141 1.924625,-1.73546 4.246905,-2.811205 6.994405,-3.239595 0.624225,-0.09735 1.527052,-0.152383 2.425175,-0.161748 z m -22.364129,4.945192 c -0.07295,-0.03245 -0.268125,0.01636 -0.32012,0.03427 -0.461719,0.15898 -0.745262,1.619889 -0.654978,3.255859 0.09904,1.794583 0.506031,3.916485 1.21134,5.634085 0.56111,1.366441 1.356535,2.472441 2.111021,3.370881 0.699158,0.83256 1.25284,1.40817 1.952893,1.69321 0.556369,0.22656 1.293819,0.17878 1.521634,-0.0256 0.259792,-0.2331 0.424379,-0.67855 0.412859,-1.79004 -0.01246,-1.20215 -0.298545,-2.13218 -0.940992,-4.067488 -0.722608,-2.17678 -1.913391,-4.613857 -2.975292,-6.125487 -0.628157,-0.894197 -1.670763,-1.816782 -2.217115,-1.934646 z m 44.805134,0.13305 c -0.0713,-0.0028 -0.14902,0.01196 -0.23668,0.04186 -2.39896,0.81841 -5.70357,7.845348 -5.73247,12.189955 -0.006,0.95374 0.0236,1.17652 0.18759,1.40146 0.18449,0.25307 0.22554,0.26446 0.76584,0.21446 0.71477,-0.0662 1.29707,-0.36726 1.99988,-1.03405 0.53421,-0.50684 1.75786,-0.90124 2.21394,-1.64031 1.0813,-1.75221 1.73775,-4.388102 2.0579,-6.727732 0.17237,-1.25968 0.13574,-4.145983 -0.10073,-4.639854 -0.0779,-0.162785 -0.33281,-0.753814 -0.53748,-0.683616 -0.26734,0.09169 -0.61779,0.882548 -0.61779,0.877829 z m -44.562652,0.877983 c 0.03689,0.03208 0.368367,0.267556 0.709517,0.594796 0.478404,0.45889 0.814639,0.938446 1.470194,2.095996 1.271711,2.24553 2.308381,4.910501 2.704745,6.95255 0.16275,0.83852 0.218158,2.26728 0.0987,2.54661 -0.03505,0.0819 -0.09413,0.14556 -0.131258,0.14056 -1.762524,-0.22182 -4.205059,-3.41452 -4.802291,-7.291543 -0.364013,-2.363044 -0.42164,-5.362463 -0.04961,-5.038969 z m 44.409172,0.05374 c 0.17744,0.15923 0.24447,1.915603 0.11937,3.133143 -0.37043,3.60521 -2.13834,7.407149 -4.04264,8.694049 -0.60152,0.40649 -0.99106,0.50657 -1.09451,0.28163 -0.10917,-0.23739 -0.063,-1.58283 0.0811,-2.36678 0.41169,-2.239242 1.35693,-4.842712 2.51354,-6.923092 0.77636,-1.39644 0.98132,-1.68514 1.60456,-2.25671 0.47104,-0.432 0.75015,-0.62364 0.81855,-0.56224 z M 93.987545,130.17961 c -9.006469,0.0547 -11.759223,0.18909 -11.963641,0.28269 -0.142607,0.0651 -0.134062,-0.25157 -0.266884,-0.0747 l -0.756339,1.16384 -0.111897,6.37998 0.730003,6.05258 -0.158434,-0.0274 c 0.144339,0.13933 0.777801,0.56971 0.893273,0.61291 v -5.2e-4 c 0.115471,0.0432 5.206129,0.44468 11.483779,0.43468 l 11.554095,-0.39228 0.34313,-0.30799 0.34313,-0.30799 0.44935,-6.07454 0.0752,-6.40246 -0.54883,-1.00879 -0.40799,-0.40075 z m -11.359514,1.00928 H 93.8382 c 10.72674,0 11.21756,0.007 11.3838,0.17208 0.15783,0.15654 0.17363,0.72768 0.17363,6.2575 0,5.40607 -0.0188,6.10119 -0.16536,6.2327 -0.1479,0.13271 -1.32438,0.14779 -11.383285,0.14779 H 82.628031 l -0.163297,-0.20929 c -0.143743,-0.18414 -0.163298,-0.92976 -0.163298,-6.19548 0,-5.26573 0.01956,-6.01187 0.163298,-6.19601 z"
       sodipodi:nodetypes="ssssssscsssscsscsscccsssscssccscccsssssssssssccscssssssssssscsssssssssscccsscssssssssssssssscssssccscccsssssscsssssssssssssssscsssscssscccsscccsssssssssssssscsscsssssccsssscssssssssssccsssscssssssscccsssssssssssscsssscsssssssssscsssssssssssssssssssssssscsscsscsssssssscsscsssscsccsccccsccccccccccccscsssccsccsccscc" /><path
       style="fill:#44aa00;fill-opacity:1;fill-rule:nonzero;stroke:none;stroke-width:1.22392;stroke-dasharray:none;stroke-opacity:0.0413223;paint-order:fill markers stroke"
       d="m 300.04321,670.41083 c -6.4055,-0.99177 -10.44417,-2.61726 -13.33475,-5.36701 -2.47784,-2.35711 -2.67696,-2.82278 -2.67696,-6.26041 0,-2.91674 0.41729,-4.37188 1.94416,-6.7795 2.01741,-3.18112 6.74128,-7.06276 11.1519,-9.1636 1.56209,-0.74404 2.55118,-1.69299 2.55118,-2.44767 0,-0.67788 -2.86831,-7.43284 -6.37402,-15.011 -17.76875,-38.41007 -22.34203,-52.98145 -23.3427,-74.37433 -1.09165,-23.3381 5.03432,-43.92789 22.42651,-75.37698 4.42488,-8.00119 4.91309,-9.95474 2.48781,-9.95474 -1.47265,0 -3.70822,3.64375 -12.02347,19.59711 -5.7734,11.07663 -5.79234,11.10248 -12.7129,17.34803 -3.81198,3.44017 -8.78935,7.75764 -11.06082,9.59437 -4.02722,3.25645 -4.14027,3.43825 -4.54486,7.30924 -0.56327,5.38899 -2.00083,8.59263 -4.23731,9.44294 -2.4471,0.93039 -4.65943,-0.53921 -5.73982,-3.81283 l -0.81782,-2.478 -3.65824,5.8576 c -4.48963,7.1888 -12.6154,7.21069 -17.34346,4.76571 -2.27824,-1.17812 -4.14649,-5.81088 -3.57036,-8.691 0.76794,-3.83896 5.47,-10.3539 10.9778,-16.76698 4.56343,-5.31349 6.33324,-8.3845 10.81947,-17.68819 1.68797,-3.50057 3.26448,-7.17462 4.93477,-10.2678 7.61972,-14.11081 15.44013,-24.0127 25.98738,-34.40619 12.23499,-12.05663 22.07827,-19.27679 35.96142,-26.3782 4.11282,-2.10377 7.47786,-4.13358 7.47786,-4.51071 0,-0.37713 -2.69429,-3.36757 -6.1432,-6.46331 -3.44758,-3.09455 -6.7392,-6.96108 -7.56254,-8.33179 -0.82328,-1.37061 -1.58127,-2.60311 -1.6837,-2.73934 -0.10243,-0.13621 -1.29423,0.43711 -2.64844,1.27406 -2.94244,1.81852 -6.61416,1.5876 -10.02926,-0.63075 l -2.20687,-1.43352 2.88765,0.43523 c 3.52294,0.53098 4.6802,-0.28218 5.24929,-3.68847 1.08021,-6.46557 -2.79257,-19.90204 -9.23293,-32.96643 -6.25345,-12.68525 -13.80801,-19.12217 -16.2328,-14.59143 -3.13427,5.8564 -0.25144,24.59021 5.54775,36.10052 2.55587,5.07291 2.16335,5.71376 -0.76038,1.01504 -6.91109,-11.1068 -11.60487,-33.22452 -5.83699,-39.80583 1.91702,-2.18737 4.33516,-3.22613 7.11464,-2.61566 2.54612,0.55922 4.66957,-1.87608 12.46865,9.19602 0.99912,1.41842 1.74386,-0.07 2.46686,-0.12595 1.26489,-0.098 2.37214,-0.27436 4.00574,-4.81663 2.54093,-7.0651 4.18623,-9.58848 7.78421,-14.44969 7.7046,-10.40965 18.96284,-18.08963 32.32808,-22.05308 3.90542,-1.15815 15.39221,-3.45873 17.26942,-3.45873 1.17052,0 1.13486,1.93852 -1.87494,-5.54934 -1.68378,-4.18894 -4.93228,-13.92379 -4.93228,-14.66923 0,-1.35821 10.65733,-44.46422 11.06066,-44.86754 0.22579,-0.22579 10.23002,30.03012 10.13918,42.46563 l 0.47172,5.6126 -1.94828,4.84278 c -1.46094,3.63144 -3.89918,8.62415 -3.88432,9.76086 l 0.0198,1.51654 4.57139,0.66731 c 9.80284,1.43097 16.24046,3.81048 23.85996,7.56271 15.04042,7.40667 24.81623,18.17269 30.49659,34.10558 0.99389,2.78777 1.38547,4.49395 1.70167,4.83088 0.32939,0.35098 1.97578,-2.26553 5.11003,-5.21401 8.2969,-7.80513 13.30452,-9.83805 16.80765,-5.12487 0.32839,3.3344 -2.81974,3.90163 -6.53746,7.74725 -8.61907,8.91559 -16.23791,25.23483 -17.59263,39.23928 -1.04458,10.79836 6.87634,6.36899 12.50787,3.22928 4.87511,-2.718 8.52467,-4.49084 -2.80258,5.67757 -0.13281,0.11922 -3.50367,1.53203 -5.15616,2.50046 -3.355,1.96615 -7.30002,2.36193 -9.30298,0.84696 -2.21225,-1.67326 -3.05325,-1.44347 -5.62702,2.06272 -1.35654,1.84797 -4.58009,5.57775 -7.37133,8.18446 -2.79124,2.6067 -4.81987,4.30581 -4.81987,4.7112 0,0.4054 3.03591,1.5766 6.12284,3.12236 13.76701,6.89374 27.20534,17.21296 38.56597,28.12275 15.52684,14.91065 22.98903,28.73047 31.47148,48.47192 1.80152,4.19274 3.6155,6.90326 6.97022,10.90245 6.31282,7.52557 12.56825,15.44292 13.58645,19.24987 2.02427,7.56854 -4.47441,13.50376 -12.53065,9.6038 -1.64569,-0.79667 -7.62994,-3.47717 -9.84137,-5.52457 -3.44541,-3.18984 -3.72454,-5.66366 -4.06773,-4.58465 -1.0495,3.29973 -1.75646,4.40369 -3.15024,4.91929 -3.77679,1.39712 -5.80616,-1.08058 -6.82357,-8.33109 l -0.70857,-5.04953 -7.94578,-7.12011 c -10.35364,-9.27776 -15.51097,-15.83977 -22.43533,-28.54596 -6.58149,-12.07701 -7.93845,-14.14095 -9.29714,-14.14095 -2.31068,0 -1.41434,2.64333 4.8377,14.26642 14.30691,26.59781 21.00269,43.34388 21.72428,64.66449 0.83821,24.76666 -5.54337,39.26391 -25.40986,81.51512 -3.40275,7.23681 -6.18681,13.58219 -6.18681,14.10085 0,0.51866 0.84189,1.45353 1.87087,2.07748 11.30373,6.85442 15.63984,12.45876 14.1701,18.31464 -1.75386,6.98796 -14.85646,11.40179 -29.38466,9.89872 -15.19745,-1.57231 -24.06189,-6.13456 -27.64114,-14.22605 -1.15826,-2.61843 -1.2875,-3.90234 -0.89638,-8.9049 0.4468,-5.71483 0.32697,-6.38417 -5.36656,-29.97563 -3.20297,-13.27165 -6.25752,-24.56422 -6.7879,-25.0946 -2.48201,-2.482 -2.79108,-1.5155 -12.33203,38.56444 -2.64611,11.11586 -2.89599,12.85227 -2.30074,15.9874 2.61076,13.75054 -8.90871,22.60819 -30.9977,23.83504 -3.36756,0.18703 -7.94874,0.0574 -10.18041,-0.28818 z m 99.35306,-125.71045 c 0.94131,-0.71882 1.50368,-3.01849 1.92766,-24.27017 l 0.48882,-24.50207 -1.65271,-1.55265 -1.65271,-1.55264 -44.03227,0.20275 -44.03227,0.20275 -1.30013,1.60607 c -1.22514,1.51343 -1.30014,2.99271 -1.30014,25.64332 l 0.70711,22.26946 1.86556,1.41261 c 1.29587,0.98123 5.69613,2.47068 44.35036,2.45163 33.43247,-0.0165 43.80421,-1.27989 44.63072,-1.91106 z m -29.7711,-128.53277 c 11.3588,-2.34433 19.42588,-7.11472 27.29058,-14.97942 7.63451,-7.63451 10.42283,-15.02508 10.42283,-28.8349 0,-8.34452 -0.95221,-14.64814 -3.3388,-20.25956 -2.10959,-4.96013 -5.32596,-9.37476 -10.19779,-14.24728 -5.31798,-5.31873 -6.98258,-6.41356 -12.45765,-9.03617 -8.59728,-4.11819 -13.65138,-6.05994 -24.17899,-6.46948 -7.22815,-0.28118 -10.07038,-0.0903 -15.55561,1.0445 -15.71578,3.25143 -28.8346,12.8006 -35.1921,25.61627 -3.69469,7.44788 -4.69634,11.54846 -5.16492,21.14434 -0.46142,9.44901 0.59021,15.69467 3.77593,22.42526 5.36789,11.34097 19.60564,20.08445 36.48946,23.8321 6.00916,1.33383 20.91917,1.24784 28.10706,-0.23566 z"
       id="path49"
       sodipodi:nodetypes="sssssssssssssssscsssssssssssssscsssssssssssssssssscsscssssssssssssssssssssssssscsssssssssssssssssssscccccsscsssssssssscssssss"
       transform="scale(0.26458333)" /><text
       xml:space="preserve"
       style="font-size:4.93889px;text-align:start;writing-mode:lr-tb;direction:ltr;text-anchor:start;white-space:pre;inline-size:16.4015;display:inline;fill:#33ab00;fill-opacity:1;fill-rule:nonzero;stroke:none;stroke-width:0.476001;stroke-dasharray:none;stroke-opacity:0.0413223;paint-order:fill markers stroke"
       x="85.873695"
       y="136.01347"
       id="text49"><tspan
         x="85.873695"
         y="136.01347"
         id="tspan2"><tspan
           dx="0 2.987932 1.9919546 2.7708912 4.6181512 2.7853603 2.3657475"
           style="stroke-width:0.476"
           id="tspan1">Pramesh</tspan></tspan></text><text
       xml:space="preserve"
       style="font-size:4.9389px;text-align:start;writing-mode:lr-tb;direction:ltr;text-anchor:start;fill:#33ab00;fill-opacity:1;fill-rule:nonzero;stroke:none;stroke-width:0.476001;stroke-dasharray:none;stroke-opacity:0.0413223;paint-order:fill markers stroke"
       x="84.564079"
       y="136.57472"
       id="text50"><tspan
         sodipodi:role="line"
         id="tspan50"
         style="stroke-width:0.476"
         x="84.564079"
         y="136.57472"></tspan></text><text
       xml:space="preserve"
       style="font-size:4.9389px;text-align:start;writing-mode:lr-tb;direction:ltr;text-anchor:start;fill:#33ab00;fill-opacity:1;fill-rule:nonzero;stroke:none;stroke-width:0.476001;stroke-dasharray:none;stroke-opacity:0.0413223;paint-order:fill markers stroke"
       x="83.815727"
       y="137.13599"
       id="text51"><tspan
         sodipodi:role="line"
         id="tspan51"
         style="stroke-width:0.476"
         x="83.815727"
         y="137.13599"></tspan><tspan
         sodipodi:role="line"
         style="stroke-width:0.476"
         id="tspan52"
         x="83.815727"
         y="143.30962" /></text><text
       xml:space="preserve"
       style="font-size:4.9389px;text-align:start;writing-mode:lr-tb;direction:ltr;text-anchor:start;fill:#33ab00;fill-opacity:1;fill-rule:nonzero;stroke:none;stroke-width:0.476001;stroke-dasharray:none;stroke-opacity:0.0413223;paint-order:fill markers stroke"
       x="84.376984"
       y="137.88435"
       id="text53"><tspan
         id="tspan53"
         style="stroke-width:0.476"
         sodipodi:role="line"
         x="84.376984"
         y="137.88435"></tspan></text><path
       style="fill:#ececec;fill-opacity:1;fill-rule:nonzero;stroke:#d2bbbc;stroke-width:1.27212;stroke-dasharray:none;stroke-opacity:0.878788;paint-order:fill markers stroke"
       d="m 338.55288,412.96466 c -22.77778,-5.88717 -35.42148,-22.00352 -33.92281,-43.2399 0.89446,-12.67464 4.82042,-21.59142 13.2,-29.98028 8.48526,-8.49467 17.96674,-12.789 31.27603,-14.16548 25.76916,-2.66509 48.56665,11.84219 54.03284,34.38404 1.66331,6.85926 1.66323,19.1638 -1.5e-4,24.70305 -4.29961,14.3181 -16.13359,24.56551 -33.05289,28.62152 -8.74518,2.09646 -22.72619,1.95327 -31.53302,-0.32295 z"
       id="path56"
       transform="scale(0.26458333)" /><path
       style="fill:#ececec;fill-opacity:1;fill-rule:nonzero;stroke:#d2bbbc;stroke-width:1.27212;stroke-dasharray:none;stroke-opacity:0.878788;paint-order:fill markers stroke"
       d="m 284.7625,391.41244 c -8.5443,-6.18946 -14.34469,-21.81764 -14.2672,-38.44055 l 0.027,-5.78246 3.3318,3.58095 c 6.60296,7.09673 14.81509,26.78572 15.53147,37.23748 0.43966,6.41457 -0.0104,6.74598 -4.62303,3.40458 z"
       id="path57"
       transform="scale(0.26458333)" /><path
       style="fill:#ececec;fill-opacity:1;fill-rule:nonzero;stroke:#d2bbbc;stroke-width:1.27212;stroke-dasharray:none;stroke-opacity:0.878788;paint-order:fill markers stroke"
       d="m 420.10821,392.41543 c -0.70859,-1.84654 0.96638,-11.48797 3.16414,-18.21336 3.00786,-9.20442 8.21746,-19.31511 11.89923,-23.09381 l 3.12934,-3.21173 0.53535,2.82843 c 0.29445,1.55564 0.22989,5.66202 -0.14346,9.1253 -1.3979,12.96719 -7.8333,26.76009 -14.92759,31.99409 -2.64875,1.95419 -3.09927,2.02454 -3.65701,0.57108 z"
       id="path58"
       transform="scale(0.26458333)" /><path
       style="fill:#ececec;fill-opacity:1;fill-rule:nonzero;stroke:#d2bbbc;stroke-width:1.27212;stroke-dasharray:none;stroke-opacity:0.878788;paint-order:fill markers stroke"
       d="m 311.90974,543.00017 c -0.56026,-1.46002 -0.56026,-44.38625 0,-45.84627 0.38447,-1.0019 4.65033,-1.11849 40.92381,-1.11849 22.27203,0 41.48896,0.19887 42.7043,0.44194 l 2.20971,0.44194 v 23.1454 23.14541 l -4.34636,0.45428 c -2.39051,0.24986 -21.60744,0.45429 -42.70431,0.45429 -34.32513,0 -38.40307,-0.1176 -38.78715,-1.1185 z"
       id="path59"
       transform="scale(0.26458333)" /></g></svg>
