<?xml version="1.0" encoding="UTF-8" standalone="no"?>
<!-- Created with Inkscape (http://www.inkscape.org/) -->

<svg
   width="73.314812mm"
   height="116.42159mm"
   viewBox="0 0 73.314812 116.42159"
   version="1.1"
   id="svg1"
   xml:space="preserve"
   inkscape:version="1.4 (86a8ad7, 2024-10-11)"
   sodipodi:docname="frontFacing-kind-teletubbie.svg"
   xmlns:inkscape="http://www.inkscape.org/namespaces/inkscape"
   xmlns:sodipodi="http://sodipodi.sourceforge.net/DTD/sodipodi-0.dtd"
   xmlns="http://www.w3.org/2000/svg"
   xmlns:svg="http://www.w3.org/2000/svg"><sodipodi:namedview
     id="namedview1"
     pagecolor="#ffffff"
     bordercolor="#000000"
     borderopacity="0.25"
     inkscape:showpageshadow="2"
     inkscape:pageopacity="0.0"
     inkscape:pagecheckerboard="0"
     inkscape:deskcolor="#d1d1d1"
     inkscape:document-units="mm"
     inkscape:zoom="1.4142136"
     inkscape:cx="53.740115"
     inkscape:cy="204.00031"
     inkscape:window-width="1920"
     inkscape:window-height="1027"
     inkscape:window-x="-8"
     inkscape:window-y="1072"
     inkscape:window-maximized="1"
     inkscape:current-layer="layer1" /><defs
     id="defs1" /><g
     inkscape:label="Layer 1"
     inkscape:groupmode="layer"
     id="layer1"
     transform="translate(-57.27459,-61.862891)"><path
       id="path1"
       style="fill:#33ab00;fill-opacity:1"
       d="m 93.758101,61.862891 v 5.16e-4 c -0.39735,0 -0.424588,0.06956 -0.961698,2.448947 -0.23973,1.06202 -0.907657,3.965629 -1.484147,6.452319 -0.79585,3.43289 -1.038191,4.646126 -1.007691,5.039486 0.02783,0.35905 0.271794,1.044298 0.794784,2.232938 0.41502,0.94326 0.754476,1.759326 0.754476,1.813326 0,0.054 -0.123916,0.09818 -0.275436,0.09818 -0.51316,0 -2.837203,0.464543 -3.776513,0.754993 -3.326354,1.0286 -6.547529,3.073313 -8.41499,5.341793 -1.330086,1.61571 -2.081305,2.941797 -2.708362,4.782137 -0.158866,0.46626 -0.30121,0.862233 -0.31626,0.879533 -0.01505,0.01727 -0.492433,-0.385606 -1.060917,-0.895036 -1.245748,-1.11633 -2.038184,-1.538304 -3.023071,-1.609204 -2.085699,-0.15022 -2.988666,1.099389 -2.992066,4.139799 -0.0018,1.63419 0.200943,3.170736 0.628386,4.759916 0.79188,2.944106 1.910431,4.789976 4.039546,6.665736 1.830969,1.61306 3.457172,2.16554 4.69067,1.59319 0.303425,-0.14078 0.336434,-0.14082 0.424264,0 0.296648,0.47566 1.495132,1.78445 2.249991,2.45722 l 0.872299,0.7772 -1.136365,0.56483 c -3.389029,1.68419 -6.867467,4.21949 -9.787,7.13342 -3.815982,3.80863 -6.199351,7.35514 -8.80308,13.0979 -0.786986,1.73577 -0.871382,1.87408 -1.771468,2.90732 -2.579367,2.96093 -3.399166,4.37506 -3.418396,5.89628 -0.01189,0.94105 0.201675,1.45897 0.824756,2.00194 0.981582,0.85504 2.88851,0.85171 4.413684,-0.008 0.230942,-0.13018 0.6911,-0.46862 1.02216,-0.75189 l 0.601513,-0.51469 0.416512,0.38447 c 1.041513,0.96298 2.581693,0.61713 3.222026,-0.72347 0.209886,-0.43941 0.450569,-1.61908 0.455269,-2.23191 l 0.0036,-0.47645 1.794722,-1.5012 c 2.648186,-2.21556 2.638714,-2.2071 2.668054,-2.2071 0.01491,0 -0.111545,0.39154 -0.281119,0.87074 -0.806618,2.27945 -1.546674,5.56557 -1.774569,7.88169 -0.159678,1.62281 -0.07285,5.40159 0.160197,6.97787 0.545584,3.69024 1.585561,6.99848 3.759977,11.96155 0.681277,1.555 3.103014,6.80694 3.624068,7.85895 0.212938,0.42992 0.244257,0.56818 0.136426,0.60048 -0.07702,0.023 -0.556978,0.29151 -1.066601,0.59738 -1.633005,0.98012 -2.679993,2.23267 -2.999301,3.58737 -0.199572,0.84672 -0.125982,1.54878 0.231511,2.20917 0.301835,0.55757 1.125454,1.27625 1.891357,1.649 0.634027,0.30857 2.151215,0.71196 3.082499,0.8201 h 5.17e-4 c 2.632797,0.30543 5.800526,-0.0849 7.824846,-0.96531 2.05697,-0.8946 3.260528,-2.05936 3.804418,-3.68092 0.19902,-0.59275 0.20177,-2.07109 0.0057,-2.78536 -0.13939,-0.50772 -0.128183,-0.5758 0.564307,-3.43751 0.38862,-1.60598 1.028035,-4.26556 1.420585,-5.91024 0.39254,-1.64469 0.738445,-2.99037 0.768945,-2.99051 0.03047,-1.5e-4 0.521263,1.95979 1.090373,4.35581 0.56912,2.39603 1.197287,5.01371 1.396297,5.8167 0.35196,1.42012 0.358256,1.48033 0.227376,2.2133 -0.4018,2.25021 0.102165,3.7219 1.754415,5.12527 1.37924,1.17147 3.280843,1.90579 5.763473,2.22467 2.72485,0.35001 5.86333,-0.0154 7.50445,-0.87385 0.73274,-0.38328 1.4408,-1.0333 1.75855,-1.61386 0.25417,-0.46434 0.28916,-0.63416 0.28216,-1.37717 -0.006,-0.64534 -0.0623,-0.96708 -0.2372,-1.34824 -0.54594,-1.18955 -1.57362,-2.24706 -3.01842,-3.10679 -0.44831,-0.26678 -0.86451,-0.50021 -0.92501,-0.51831 -0.064,-0.0192 0.0576,-0.3846 0.29094,-0.87385 1.24119,-2.60253 3.3896,-7.29051 4.03541,-8.80618 2.3668,-5.55469 3.32257,-9.43096 3.45147,-13.99657 0.096,-3.3993 -0.22407,-5.9316 -1.18184,-9.35705 -0.38923,-1.39205 -0.62516,-2.09432 -1.25005,-3.72018 -0.0691,-0.17977 -0.0652,-0.18099 0.0842,-0.0176 0.82364,0.90082 2.47832,2.45956 3.45767,3.25716 l 1.20303,0.97979 0.0589,0.95136 c 0.0325,0.52323 0.13756,1.17985 0.23306,1.45934 0.42797,1.25238 1.37382,1.87502 2.45257,1.61437 0.42144,-0.10183 1.0895,-0.58043 1.187,-0.85059 0.0368,-0.102 0.25895,0.0314 0.8015,0.48214 1.44745,1.20244 3.13688,1.67612 4.51446,1.26556 1.02124,-0.30437 1.8035,-1.34127 1.8035,-2.39107 0,-1.39832 -1.12486,-3.33211 -3.49332,-6.00584 -0.87791,-0.99107 -1.06235,-1.26535 -1.42575,-2.11925 -2.24954,-5.2859 -5.00003,-9.54368 -8.54315,-13.22606 -1.3178,-1.36959 -4.04605,-3.75101 -5.48597,-4.78886 -1.36512,-0.98393 -3.82872,-2.48287 -5.11804,-3.1135 -0.50473,-0.24687 -0.91777,-0.4702 -0.91777,-0.4961 0,-0.0259 0.34464,-0.35586 0.76584,-0.7338 0.66646,-0.59801 1.66504,-1.69762 2.17817,-2.39831 0.16163,-0.22076 0.16266,-0.22063 0.52451,-0.0486 0.85813,0.4081 2.31917,0.12997 3.51245,-0.66869 0.94481,-0.63236 2.27694,-1.85217 2.88561,-2.64222 1.79249,-2.32662 2.86396,-5.957232 2.87476,-9.741002 0.003,-1.19307 -0.0381,-1.695999 -0.1788,-2.164209 -0.38589,-1.28403 -1.06007,-1.890288 -2.18281,-1.963188 -1.22303,-0.07938 -2.19584,0.370394 -3.71089,1.714624 -0.50319,0.44646 -0.92501,0.752564 -0.94981,0.689364 -0.0245,-0.06253 -0.24014,-0.622182 -0.47904,-1.243852 -1.02434,-2.66555 -2.87587,-5.11392 -5.05654,-6.68693 -2.76816,-1.99679 -5.884828,-3.244819 -9.102288,-3.644739 -0.49288,-0.06123 -0.912977,-0.121976 -0.933277,-0.134876 -0.02029,-0.01295 0.151749,-0.460898 0.381889,-0.995288 0.23015,-0.5344 0.59449,-1.435148 0.80977,-2.001428 l 0.391191,-1.029395 -0.214458,-0.995804 c -0.64786,-3.00403 -2.867992,-12.612348 -2.955892,-12.793018 -0.0729,-0.14983 -0.192557,-0.211873 -0.407727,-0.211873 z m -0.958597,18.718754 c -0.0028,0.0026 2.94e-4,0.02282 -0.01964,0.01189 0.0053,-0.0042 0.01484,-0.0076 0.01964,-0.01189 z m 1.012858,5.372798 c 0.898122,-0.0094 1.791641,0.0266 2.397786,0.111105 2.69848,0.37621 5.402712,1.815199 7.304842,3.629509 2.33072,2.22311 3.49526,4.777091 3.63403,8.385261 0.16778,4.362682 -1.47383,7.580122 -4.92787,9.658322 -1.63745,0.98521 -3.700151,1.72228 -5.635831,2.01383 -1.22215,0.18407 -3.874757,0.18413 -5.203817,0 -4.32084,-0.59859 -8.00208,-2.81595 -9.68313,-5.8322 -1.017114,-1.82498 -1.431525,-4.090323 -1.188558,-6.499343 0.353029,-3.50028 1.529106,-5.942621 3.882968,-8.065141 1.924625,-1.73546 4.246905,-2.811205 6.994405,-3.239595 0.624225,-0.09735 1.527052,-0.152383 2.425175,-0.161748 z m -22.186243,5.933488 c 0.01993,-0.0048 0.04134,0.0025 0.0646,0.02274 0.03689,0.03208 0.368367,0.267556 0.709517,0.594796 0.478404,0.45889 0.814639,0.938446 1.470194,2.095996 1.271711,2.24553 2.308381,4.910498 2.704745,6.952547 0.16275,0.83852 0.21816,2.26728 0.0987,2.54661 -0.03505,0.0819 -0.09413,0.14556 -0.131258,0.14056 -1.762524,-0.22182 -4.205059,-3.41452 -4.802291,-7.29154 -0.341262,-2.215354 -0.413084,-4.990078 -0.114205,-5.061707 z m 44.473771,0.07648 c 0.17744,0.15923 0.24447,1.915603 0.11937,3.133143 -0.37043,3.60521 -2.13834,7.407146 -4.04264,8.694046 -0.60152,0.40649 -0.90921,0.48318 -1.01266,0.25824 -0.10917,-0.23739 -0.14482,-1.55944 -7.2e-4,-2.34339 0.41169,-2.23924 1.35693,-4.842709 2.51354,-6.923089 0.77636,-1.39644 0.98132,-1.68514 1.60456,-2.25671 0.47104,-0.432 0.75015,-0.62364 0.81855,-0.56224 z m -9.22424,1.161687 c 0.005,0.01094 0.0114,0.02108 0.016,0.03204 0.0114,0.02675 0.0178,0.05633 0.0289,0.0832 -0.016,-0.03808 -0.0286,-0.07731 -0.045,-0.115238 z M 81.005391,107.1764 c 0.117443,0.12269 0.233933,0.23975 0.359152,0.36277 -0.12318,-0.1216 -0.243569,-0.24021 -0.359152,-0.36277 z m 2.408639,2.49753 c 4.03e-4,0.002 0.01602,0.0179 0.01602,0.0196 0,9.3e-4 -0.0107,0.007 -0.01085,0.008 0.0012,-0.006 -0.0059,-0.0206 -0.0052,-0.0274 z m -0.785999,21.51496 H 93.8382 c 10.72674,0 11.21756,0.007 11.3838,0.17208 0.15783,0.15654 0.17363,0.72768 0.17363,6.2575 0,5.40607 -0.0188,6.10119 -0.16536,6.2327 -0.1479,0.13271 -1.32438,0.14779 -11.383285,0.14779 H 82.628031 l -0.163297,-0.20929 c -0.143743,-0.18414 -0.163298,-0.92976 -0.163298,-6.19548 0,-5.26573 0.01956,-6.01187 0.163298,-6.19601 z m -18.138427,7.10241 0.01757,0.0532 c -0.0083,-0.0145 -0.01953,-0.0236 -0.03101,-0.032 z m 29.634883,18.40146 c 0.01007,0.01 0.01808,0.0129 0.02842,0.0233 0.0046,0.005 0.02292,0.0684 0.02894,0.0791 -0.01821,-0.0372 -0.03825,-0.0675 -0.05736,-0.10232 z m 14.346413,12.64781 c -0.002,0.0118 -0.0129,0.0556 -0.0139,0.0636 -2.3e-4,-0.003 -0.007,-0.009 -0.007,-0.0119 0,-0.003 0.02,-0.0473 0.0207,-0.0517 z m 1.59835,1.3317 c 0.12801,0.0888 0.24967,0.17786 0.36949,0.27285 -0.12254,-0.0908 -0.23675,-0.18058 -0.36949,-0.27285 z"
       sodipodi:nodetypes="ccsssssscssssccscsscccssssccsccscccsssssscssssccscsssssssssssccsccsssscscccssssssssssssscsscscscssccscccscccccsssssssssscsssssscsscssscssccsccccccscscscscsccscccccccsccccsccccsccccc" /><text
       xml:space="preserve"
       style="font-size:4.93889px;text-align:start;writing-mode:lr-tb;direction:ltr;text-anchor:start;white-space:pre;inline-size:16.4015;fill:#33ab00;fill-opacity:1;fill-rule:nonzero;stroke:none;stroke-width:0.476001;stroke-dasharray:none;stroke-opacity:0.0413223;paint-order:fill markers stroke"
       x="85.873695"
       y="136.01347"
       id="text49"><tspan
         x="85.873695"
         y="136.01347"
         id="tspan2"><tspan
           dx="0 2.987932 1.9919546 2.7708912 4.6181512 2.7853603 2.3657475"
           style="stroke-width:0.476"
           id="tspan1">Pramesh</tspan></tspan></text><text
       xml:space="preserve"
       style="font-size:4.9389px;text-align:start;writing-mode:lr-tb;direction:ltr;text-anchor:start;fill:#33ab00;fill-opacity:1;fill-rule:nonzero;stroke:none;stroke-width:0.476001;stroke-dasharray:none;stroke-opacity:0.0413223;paint-order:fill markers stroke"
       x="84.564079"
       y="136.57472"
       id="text50"><tspan
         sodipodi:role="line"
         id="tspan50"
         style="stroke-width:0.476"
         x="84.564079"
         y="136.57472"></tspan></text><text
       xml:space="preserve"
       style="font-size:4.9389px;text-align:start;writing-mode:lr-tb;direction:ltr;text-anchor:start;fill:#33ab00;fill-opacity:1;fill-rule:nonzero;stroke:none;stroke-width:0.476001;stroke-dasharray:none;stroke-opacity:0.0413223;paint-order:fill markers stroke"
       x="83.815727"
       y="137.13599"
       id="text51"><tspan
         sodipodi:role="line"
         id="tspan51"
         style="stroke-width:0.476"
         x="83.815727"
         y="137.13599"></tspan><tspan
         sodipodi:role="line"
         style="stroke-width:0.476"
         id="tspan52"
         x="83.815727"
         y="143.30962" /></text><text
       xml:space="preserve"
       style="font-size:4.9389px;text-align:start;writing-mode:lr-tb;direction:ltr;text-anchor:start;white-space:pre;inline-size:15.9511;fill:#33ab00;fill-opacity:1;fill-rule:nonzero;stroke:none;stroke-width:0.476001;stroke-dasharray:none;stroke-opacity:0.0413223;paint-order:fill markers stroke"
       x="84.376984"
       y="137.88435"
       id="text53"><tspan
         x="84.376984"
         y="137.88435"
         id="tspan4"><tspan
           dx="0 2.9879379 1.9919586 2.7708964 4.6181607 2.7853661 2.3657532"
           style="stroke-width:0.476"
           id="tspan3">Pramesh</tspan></tspan></text><path
       style="fill:#c8c4b7;fill-opacity:1;fill-rule:nonzero;stroke:#d2bbbc;stroke-width:1.79906;stroke-dasharray:none;stroke-opacity:0.878788;paint-order:fill markers stroke"
       d="m 283.49767,389.87893 c -9.54056,-6.07652 -13.93084,-24.32122 -12.8196,-37.93497 L 271,348 l 2.85116,3 c 3.69734,3.89035 12.66355,21.17415 14.65659,29.05059 1.76801,6.98716 1.47141,13.44941 -0.005,13.44941 -0.54842,0 -2.49943,-2.0251 -5.00521,-3.62107 z"
       id="path53"
       transform="scale(0.26458333)"
       sodipodi:nodetypes="sscssss" /><path
       style="fill:#c8c4b7;fill-opacity:1;fill-rule:nonzero;stroke:#d2bbbc;stroke-width:1.79906;stroke-dasharray:none;stroke-opacity:0.878788;paint-order:fill markers stroke"
       d="m 338,412.6317 c -14.18046,-4.07881 -25.13738,-12.58283 -30.08468,-23.34967 -2.57245,-5.59846 -2.88603,-7.37016 -2.88182,-16.28203 0.005,-11.3268 1.74268,-17.82261 6.96197,-26.03046 13.2502,-20.8373 44.9899,-27.92202 68.63376,-15.31998 4.10663,2.18881 8.73289,6.08892 12.56402,10.33438 2.96381,3.28435 5.45175,6.77537 6.85508,9.84065 5.14344,11.23473 5.70654,25.92852 1.42349,37.14442 -4.15006,10.86764 -16.06599,20.1685 -30.69613,23.95955 C 362.5889,415.04997 345.8813,414.89864 338,412.6317 Z"
       id="path54"
       transform="scale(0.26458333)"
       sodipodi:nodetypes="sscsssssss" /><path
       style="fill:#c8c4b7;fill-opacity:1;fill-rule:nonzero;stroke:#d2bbbc;stroke-width:1.79906;stroke-dasharray:none;stroke-opacity:0.878788;paint-order:fill markers stroke"
       d="m 420.5,388.43269 c 0,-9.71966 9.01446,-31.86066 15.41306,-37.85701 L 438.5,348.15137 v 7.56898 c 0,14.51608 -7.8354,32.41009 -16.13715,36.85305 -0.8141,0.43569 -1.27548,0.5832 -1.53537,0.10639 -0.28433,-0.52167 -0.32748,-1.79063 -0.32748,-4.2471 z"
       id="path55"
       transform="scale(0.26458333)"
       sodipodi:nodetypes="sscssss" /><path
       style="fill:#c8c4b7;fill-opacity:1;fill-rule:nonzero;stroke:#d2bbbc;stroke-width:1.27212;stroke-dasharray:none;stroke-opacity:0.878788;paint-order:fill markers stroke"
       d="m 95.429179,309.18185 c -0.189006,-0.49254 -0.259523,-11.07512 -0.156705,-23.51683 l 0.186941,-22.6213 h 42.779965 42.77996 v 23.33453 23.33452 l -42.62326,0.1823 c -33.87558,0.14489 -42.693781,-10e-4 -42.966901,-0.71322 z"
       id="path56"
       transform="matrix(0.26458333,0,0,0.26458333,57.27459,61.862891)" /></g></svg>
