<?xml version="1.0" encoding="UTF-8" standalone="no"?>
<!-- Created with Inkscape (http://www.inkscape.org/) -->

<svg
   width="126.98566mm"
   height="242.3945mm"
   viewBox="0 0 126.98566 242.3945"
   version="1.1"
   id="svg1"
   xml:space="preserve"
   inkscape:version="1.4 (86a8ad7, 2024-10-11)"
   sodipodi:docname="sideFacing-angryy-teletubbie.svg"
   xmlns:inkscape="http://www.inkscape.org/namespaces/inkscape"
   xmlns:sodipodi="http://sodipodi.sourceforge.net/DTD/sodipodi-0.dtd"
   xmlns="http://www.w3.org/2000/svg"
   xmlns:svg="http://www.w3.org/2000/svg"><sodipodi:namedview
     id="namedview1"
     pagecolor="#ffffff"
     bordercolor="#000000"
     borderopacity="0.25"
     inkscape:showpageshadow="2"
     inkscape:pageopacity="0.0"
     inkscape:pagecheckerboard="0"
     inkscape:deskcolor="#d1d1d1"
     inkscape:document-units="mm"
     inkscape:zoom="1.0393815"
     inkscape:cx="325.1934"
     inkscape:cy="313.16702"
     inkscape:window-width="1920"
     inkscape:window-height="1027"
     inkscape:window-x="-8"
     inkscape:window-y="-8"
     inkscape:window-maximized="1"
     inkscape:current-layer="layer1"
     showgrid="false" /><defs
     id="defs1" /><g
     inkscape:label="Layer 1"
     inkscape:groupmode="layer"
     id="layer1"
     transform="translate(-44.62,-27.840661)"><path
       style="fill:#800080;fill-opacity:1;stroke-width:0.590729"
       d="m 84.916303,106.22954 c -1.480348,-0.37644 -2.787633,-1.1214 -2.557525,-1.45742 0.05646,-0.0824 0.02388,-0.10592 -0.07234,-0.0523 -0.20909,0.11663 -0.917509,-0.61123 -1.364487,-1.40193 -0.348859,-0.61713 -0.44602,-1.11694 -0.141615,-0.72849 0.136435,0.17411 0.160873,0.17695 0.111954,0.013 -0.03439,-0.11536 -0.193905,-0.22714 -0.354424,-0.2484 -0.573327,-0.0759 -0.714433,-0.19262 -1.07867,-0.89193 -0.450348,-0.86462 -0.659264,-2.756233 -0.342466,-3.100727 0.470862,-0.512019 0.782846,-0.269836 1.236676,0.959985 0.240772,0.652462 0.487471,1.213582 0.548224,1.246942 0.09878,0.0542 4.239747,-1.642481 9.126046,-3.739308 4.239413,-1.819233 4.401331,-1.844332 4.735419,-0.734035 0.201613,0.670032 0.10995,2.564561 -0.197615,4.084393 -0.220895,1.09155 -1.247539,3.05115 -2.012925,3.84214 -1.774485,1.83386 -5.205918,2.82608 -7.636254,2.20806 z m 1.072684,-0.17892 c -0.158356,-0.0373 -0.417484,-0.0373 -0.575841,0 -0.158355,0.0374 -0.02879,0.0679 0.287921,0.0679 0.316712,0 0.446276,-0.0306 0.28792,-0.0679 z m 1.970882,0.0126 c 0,0.0698 -0.196574,-0.0546 -0.315341,-0.0117 -0.131248,0.0474 -0.09226,0.0826 0.0994,0.0897 0.173438,0.007 0.215941,-0.14778 0.215941,-0.078 z m -4.726687,-0.70876 c 0,-0.0308 -0.129564,-0.14776 -0.287919,-0.25983 -0.260951,-0.1847 -0.266772,-0.17944 -0.06212,0.0561 0.214929,0.24733 0.35004,0.32598 0.35004,0.20378 z m 4.713631,-0.74497 c 2.460884,-0.59133 3.910084,-1.95921 4.65392,-4.39278 0.348769,-1.141045 0.459404,-2.824104 0.185642,-2.824104 -0.0846,0 -1.583845,0.622035 -3.331647,1.382299 -1.747802,0.760264 -4.123355,1.772235 -5.279007,2.248815 -2.357991,0.97243 -2.320893,0.91661 -1.408333,2.119 0.591684,0.77961 1.607374,1.32989 2.777985,1.50507 1.279473,0.19148 1.456965,0.18865 2.40144,-0.0383 z m -7.839625,-2.73411 c -0.07319,0 -0.112259,-0.2498 -0.249459,-0.40832 -0.231327,-0.26726 -0.235388,-0.25853 -0.05584,0.1201 0.193712,0.40854 0.555374,0.28822 0.305312,0.28822 z m 13.932557,-0.9471 c -0.141366,0 -0.09151,-0.0833 -0.0994,0.0897 -0.0071,0.15653 0.03174,0.24422 0.08641,0.19488 0.05467,-0.0493 0.140912,-0.28458 0.01299,-0.28458 z m -13.583088,-0.60567 c -0.162491,-0.14555 -0.181388,-0.1285 -0.0921,0.0831 0.06181,0.14643 0.153779,0.22884 0.204433,0.18312 0.05068,-0.0457 1.06e-4,-0.16552 -0.112333,-0.26624 z m 13.908712,-0.739927 c -0.04564,-0.10208 -0.08298,-0.01856 -0.08298,0.1856 0,0.20416 0.03734,0.287677 0.08298,0.1856 0.04564,-0.10208 0.04564,-0.26912 0,-0.3712 z m -10.058417,-0.08268 c -0.05068,-0.04572 -0.183415,-9.4e-5 -0.295015,0.10138 -0.161278,0.14664 -0.14238,0.163695 0.0921,0.08312 0.16226,-0.05576 0.25357,-0.138783 0.202916,-0.184498 z m 1.895154,-0.675102 c 0,-0.09894 -0.273332,-0.05955 -0.437475,0.02336 -0.255636,0.129109 -0.236019,0.146834 0.140275,0.126746 0.241492,-0.01289 0.2972,-0.05121 0.2972,-0.150101 z m 8.332842,-0.649948 c 0.165423,0 -0.07859,-0.06222 -0.08194,0.182774 -0.0034,0.244992 0.03078,0.363192 0.07584,0.262666 0.04507,-0.100526 -0.159331,-0.44544 0.0061,-0.44544 z m -14.834716,0.13721 c -0.05068,-0.04571 -0.183415,-9.4e-5 -0.295021,0.10138 -0.161278,0.146641 -0.14238,0.163696 0.09211,0.08312 0.162254,-0.05576 0.25357,-0.138783 0.202916,-0.184498 z m 14.833091,-0.79892 c -0.141366,0 -0.09151,-0.08326 -0.0994,0.08971 -0.0071,0.156523 0.03175,0.244219 0.08641,0.19488 0.05467,-0.04934 0.140913,-0.284587 0.01299,-0.284587 z m -2.251225,-1.393168 c 0,-0.04083 -0.148074,-0.0027 -0.329052,0.08469 -0.180978,0.08741 -0.329051,0.192336 -0.329051,0.233168 0,0.04083 0.148073,0.0028 0.329051,-0.08469 0.180978,-0.08741 0.329052,-0.192336 0.329052,-0.233168 z m 2.251225,0.05685 c -0.141366,0 -0.09151,-0.08326 -0.0994,0.08971 -0.0071,0.156523 0.03175,0.244219 0.08641,0.19488 0.05467,-0.04934 0.140913,-0.284587 0.01299,-0.284587 z m -1.012929,-0.537404 c -0.05065,-0.04571 -0.183412,-9.4e-5 -0.295016,0.10138 -0.161279,0.146641 -0.14238,0.163696 0.0921,0.08312 0.162258,-0.05576 0.25357,-0.138783 0.202914,-0.184499 z"
       id="path1"
       sodipodi:nodetypes="sccsscssssssssssscssscsssssssscssssssccsssssssssssccssssscsscsssssssssscsscsssssscscssssssssss" /><path
       id="path1-9"
       style="fill:#800080"
       d="m 117.81296,27.840678 c -2.8426,9.22e-4 -3.14653,0.03593 -4.56613,0.525549 -10.9906,3.790687 -11.84531,12.40147 -9.88165,19.868796 1.92958,7.337727 6.61558,13.549446 3.14615,15.457211 l -6.10816,1.982308 -2.466512,0.780314 c -13.52062,4.275921 -22.039661,14.141111 -24.962301,28.90728 -1.18264,5.975074 -1.240342,6.081174 -4.227132,7.758184 -4.2049,2.36096 -5.707753,5.23034 -5.327323,10.17096 0.95578,12.41287 12.932149,22.99239 31.587219,27.90269 1.44019,0.37909 1.543096,-0.0865 -1.484664,6.71638 -15.98952,35.92597 -19.365112,55.65478 -11.829252,69.1379 l 0.664042,1.18856 -1.172022,4.01577 c -1.84477,6.32114 -3.147046,12.69214 -4.282426,20.94911 l -0.218074,1.5875 -2.127002,0.17622 c -5.27373,0.43761 -10.763538,4.10663 -12.903088,8.62325 l -0.84491,1.78387 v 2.11666 2.11667 l 0.714168,1.21543 c 2.18216,3.71189 8.433179,5.70621 19.978109,6.3748 l 5.346444,0.31006 4.046264,-0.31264 c 9.22613,-0.71223 11.41074,-1.8288 12.09435,-6.18257 1.25335,-7.98232 5.79995,-18.31953 10.0149,-22.77018 l 0.68884,-0.72761 h 3.16157 3.16104 l 2.8174,2.71198 c 3.26479,3.14254 6.80381,5.73054 10.27431,7.51375 2.86446,1.47181 2.81765,1.36349 1.12706,2.6045 -9.44455,6.93294 -9.24801,17.41174 0.36794,19.60138 1.14855,0.26141 2.87182,0.33755 5.97948,0.26355 l 4.36562,-0.10438 2.77813,-0.65939 c 9.52072,-2.25957 18.42424,-7.67645 20.90725,-12.72016 l 0.86506,-1.75648 -0.0196,-2.1792 c -0.033,-3.72594 -1.32568,-6.51542 -5.34955,-11.54296 -2.92059,-3.64908 -3.76547,-5.07118 -4.65294,-7.83363 -1.49952,-4.66757 -0.94738,-12.55727 0.91002,-13.00437 5.19701,-1.25099 9.50976,-7.17359 10.41745,-14.30559 l 0.31058,-2.43861 -0.49041,-3.54087 -0.49041,-3.54035 0.57051,-3.57756 c 3.0904,-19.38281 -1.73224,-35.631 -14.85439,-50.04604 -4.29217,-4.71507 -11.56453,-9.95089 -15.46573,-11.13421 -0.89366,-0.27107 -0.75125,-0.60207 1.33015,-3.08818 5.68399,-6.78919 9.07548,-12.98352 10.98435,-20.06338 l 0.68057,-2.52542 0.0145,-5.15938 0.0145,-5.159376 -0.57205,-2.248958 c -3.28272,-18.464173 -17.54874,-27.231729 -29.90072,-30.428394 -0.11605,-0.03003 -0.1304,-0.14599 -0.0721,-0.21967 1.40269,-8.75145 12.70714,-12.105059 9.14314,-24.273649 -1.37431,-4.692252 -5.26843,-8.869274 -9.60975,-10.308414 -1.41861,-0.470265 -1.773,-0.509936 -4.58267,-0.509013 z m 0.0951,9.474357 c 1.86969,0.009 3.75357,1.241285 4.71186,3.082499 0.65911,1.266428 0.81233,3.66119 0.33848,5.287533 -0.43925,1.5076 -2.21259,3.277847 -3.72794,3.721736 -1.36491,0.399822 -1.97844,0.368427 -3.30368,-0.168982 -1.37925,-0.559315 -2.44059,-1.55021 -3.1197,-2.914034 -0.44936,-0.902382 -0.51418,-1.257925 -0.51418,-2.819466 0,-1.641095 0.0514,-1.889599 0.62683,-3.043225 1.03437,-2.073605 2.75204,-3.156854 4.98833,-3.146061 z m -30.068967,41.834139 1.527038,0.159163 c 1.65192,-0.06593 2.747427,0.814013 3.948597,1.684652 1.60752,1.165176 3.228229,2.628168 4.936649,4.800224 2.442963,3.105923 4.152763,7.168464 5.276683,11.627714 l 0.78083,3.009123 0.48937,3.50883 c 0.37034,2.65489 -0.0364,3.69324 -0.0816,5.11183 -0.0355,1.11464 0.1645,2.73815 -0.39843,4.63744 -0.77168,2.60355 -1.93746,5.33201 -3.35122,7.58765 -3.290726,5.25033 -8.277132,7.63267 -13.363522,9.43095 -4.99787,1.76699 -8.210534,1.09861 -11.699544,-2.84685 -0.0919,-0.10393 -0.543217,-0.27528 -0.460437,-0.39585 0.0556,-0.0809 -0.865111,-0.7877 -0.765328,-0.82527 1.640196,-0.61751 8.189607,-6.18832 12.555605,-6.72707 1.841527,-0.22724 4.013665,3.46712 4.244272,2.77667 1.112066,-3.32961 -2.363223,-4.99051 -3.082141,-4.56016 -0.262062,0.15687 -2.668032,-0.12541 -2.849322,-0.032 -0.29932,0.15422 -0.749507,0.47861 -1.747007,0.70945 -2.655881,0.61461 -4.701282,2.99694 -6.354591,3.91683 -1.530366,0.85148 -2.729971,0.75293 -3.799311,0.42399 -0.20082,-0.0899 -0.798876,-0.21855 -0.984436,-0.29714 -0.10897,-0.0461 -0.426476,0.22364 -0.524516,0.15968 -2.51952,-1.6435 -4.400949,-5.10463 -3.224609,-5.03018 0.27424,0.0174 0.960807,-0.30206 1.958537,-0.28009 1.44772,0.0319 3.573876,0.0174 6.294706,-1.13637 1.05813,-0.44869 -7.478938,-2.72938 -7.712708,-2.80551 l -2.144055,-0.93689 -0.109554,-1.52239 0.192753,-1.20354 0.54467,-1.32861 c 0.34707,-0.84691 1.578776,-1.55665 3.049426,-2.45721 7.35962,-4.5067 5.528833,-16.101586 9.679513,-22.234819 1.44548,-2.135902 3.563872,-4.689974 7.173722,-4.924247 z m 47.725257,54.882436 2.04535,0.55966 c 19.54002,5.34596 33.55977,32.38087 29.82505,57.51277 l -0.66352,4.46432 0.39894,2.47789 c 1.271,7.89852 -1.18185,15.00642 -6.00894,17.41186 -5.13441,2.55859 -8.91316,-1.60852 -9.79113,-10.79728 -0.0408,-0.4268 -0.3222,-0.92814 -0.63769,-1.13636 l -0.56431,-0.37259 -0.39584,0.39584 c -0.21759,0.21759 -0.48075,0.96709 -0.58497,1.66553 -0.51758,3.46881 -1.88269,4.67788 -2.85203,2.52646 l -0.56637,-1.25677 0.0289,-2.38125 0.0289,-2.38125 0.93069,-3.04271 c 2.60599,-8.52149 2.07461,-15.01613 -1.87172,-22.87612 -4.68419,-9.3296 -16.6923,-21.28098 -17.90433,-17.8201 l -0.24857,0.71055 4.50981,4.44883 c 7.42661,7.32537 11.46521,13.47868 13.35422,20.34759 l 0.57516,2.09238 v 3.83646 3.83646 l -0.56793,1.98437 c -0.31244,1.0914 -0.82721,2.87734 -1.1436,3.96875 l -0.57515,1.98438 -0.0171,3.0427 -0.0171,3.04271 0.5979,1.50534 c 1.04626,2.63362 3.25064,3.93994 5.09581,3.01945 1.05015,-0.52391 1.03249,-0.5251 1.03249,0.0465 0,2.01824 3.01584,5.85528 5.3604,6.81974 0.68856,0.28325 1.2526,0.59699 1.25315,0.69711 5.5e-4,0.10011 -0.17147,0.93355 -0.3824,1.85209 -0.61652,2.68484 -0.76458,5.46937 -0.42685,8.03413 0.72479,5.50414 1.83478,7.71274 7.57266,15.0673 6.99574,8.96682 -0.53975,17.99198 -17.44648,20.89536 h -5.1e-4 c -6.30861,1.08337 -12.67499,0.16403 -14.30146,-2.06499 l -0.54622,-0.74827 0.0279,-1.52549 c 0.074,-4.0318 3.56774,-8.02441 9.50278,-10.85877 1.48437,-0.70888 2.77149,-1.47849 2.86029,-1.70997 0.22039,-0.57432 -0.25436,-1.73891 -0.709,-1.73891 -6.66188,0 -17.9848,-8.9533 -25.14524,-19.88303 -2.00531,-3.06091 -2.66831,-3.50264 -3.43338,-2.28771 -0.42527,0.67533 1.39664,5.15943 3.13986,7.72821 l 0.69918,1.03094 -2.73161,-0.15916 c -14.40596,-0.83726 -29.114419,-11.72605 -32.224909,-23.85643 -0.42163,-1.64428 -0.738836,-3.28804 -0.966866,-4.95835 1.1822,1.22658 7.109157,2.33916 14.585157,2.95279 3.57751,0.29365 12.632018,0.1352 13.320118,-0.23306 l 0.50333,-0.26923 0.14572,-7.74785 c 0.16687,-8.90075 0.62418,-12.85444 2.58744,-22.36194 0.45558,-2.20625 0.54754,-3.16125 0.35709,-3.70417 l -0.25632,-0.73122 -2.50785,-0.0579 c -4.8694,-0.11191 -14.193568,-0.62943 -17.711068,-0.9834 -3.20427,-0.32246 -4.776111,-0.42182 -5.262211,0.0868 2.52486,-6.99806 5.803767,-15.05117 10.146667,-24.90701 l 2.301669,-5.22397 0.701253,0.19172 c 7.18313,1.96287 23.62626,-1.56546 33.1835,-7.1205 z m -48.295248,38.59248 c 0.15243,1.31905 7.265286,2.44454 19.048968,2.83703 l 4.23333,0.14108 -0.0522,0.46561 c -0.0285,0.25606 -0.35267,1.95209 -0.72037,3.76927 -1.59313,7.87327 -2.37138,15.58582 -2.22622,22.05861 l 0.0884,3.93774 -6.61458,-0.15038 c -6.518518,-0.14842 -10.02476,-0.49242 -15.15773,-1.48569 -2.2659,-0.43847 -3.842961,-0.43713 -4.294311,0.15037 -0.96761,-8.36233 0.682903,-17.71792 5.694743,-31.72364 z m -2.190047,49.73856 c 0.38092,0.0598 1.02991,0.76989 2.45463,2.20969 5.6854,5.74558 12.289695,9.48709 21.069515,11.93674 l 1.2268,0.34261 -1.65933,2.29857 c -3.85676,5.34192 -6.55982,11.71507 -8.267197,19.49287 l -0.717786,3.2706 -0.667143,0.262 c -0.36694,0.14401 -1.738702,0.4975 -3.048392,0.78548 l -2.38125,0.52348 -6.35,0.0801 c -6.98588,0.0882 -7.686137,0.0567 -11.868527,-0.53588 -5.01786,-0.71091 -9.131233,-2.38158 -10.249503,-4.16254 l -0.532784,-0.84801 0.145211,-1.1529 c 0.60784,-4.81477 6.7792,-8.73177 13.33562,-8.4646 l 2.267562,0.0925 0.33848,-0.66146 c 0.19237,-0.37594 0.339898,-1.59791 0.342098,-2.83083 0.009,-4.87282 1.658856,-14.17586 3.715536,-20.94705 0.35259,-1.16081 0.46554,-1.75117 0.84646,-1.69137 z"
       sodipodi:nodetypes="csscccsssscccccccccccccccscccccsscccscccssscccccssscccccscssscssssssscscscccsssssccssssssscccsscccccssccscccssccsscccccscccccccccccccssssssscccccscssscccscscccscccsccccccccccscccsccsscccccccccscccccscsscscc" /><path
       style="fill:#a7ac93;fill-opacity:0.738292;stroke:#d2d1bc;stroke-width:0.370091;stroke-opacity:0.876033;paint-order:fill markers stroke"
       d="m 93.64009,205.12544 c -1.584,-0.16448 -4.4718,-0.56451 -6.41733,-0.88897 -1.94553,-0.32445 -4.01103,-0.52039 -4.59,-0.43541 l -1.05267,0.1545 v -4.0516 c 0,-4.70361 0.43126,-8.23029 1.6319,-13.34502 0.73237,-3.1199 3.54895,-12.38176 3.99808,-13.14703 0.0802,-0.13659 0.69359,-0.0194 1.36317,0.26033 1.81233,0.75724 8.94889,1.59589 15.77276,1.85353 3.31875,0.12529 6.03409,0.26548 6.03409,0.31152 0,0.046 -0.32934,1.68104 -0.73186,3.63334 -1.31808,6.39283 -2.14814,14.23827 -2.14814,20.30339 v 5.74624 l -5.49,-0.0479 c -3.0195,-0.0263 -6.786,-0.18246 -8.37,-0.34693 z"
       id="path6" /><path
       style="fill:#a7ac93;fill-opacity:0.738292;stroke:#d2d1bc;stroke-width:0.370091;stroke-opacity:0.876033;paint-order:fill markers stroke"
       d="m 129.17879,119.21026 c -0.49567,-1.2071 -0.19068,-4.99221 0.61636,-7.6492 1.97667,-6.50778 6.0694,-12.342021 10.10061,-14.398593 0.77861,-0.397216 1.48108,-0.722209 1.56106,-0.722209 0.45889,0 0.51836,3.634292 0.0988,6.037632 -1.1925,6.8308 -5.34065,13.79103 -9.71415,16.29948 -2.15857,1.23806 -2.32118,1.2645 -2.66267,0.43289 z"
       id="path7" /><path
       style="fill:#e2e3e3;fill-opacity:0.738292;stroke:#d2d1bc;stroke-width:0.370091;stroke-opacity:0.876033;paint-order:fill markers stroke"
       d="m 80.16224,131.23493 c -2.29375,-1.31186 -4.45847,-3.31618 -5.16433,-4.10271 -0.62995,-0.70195 2.630571,-1.19048 1.01759,-0.90266 -0.567011,0.10118 6.835559,-5.11831 9.820236,-5.78194 0.857241,-0.1906 1.46639,-0.51105 2.09884,-0.27683 1.92641,0.71345 3.01541,3.14898 3.488164,2.44448 0.597042,-0.88971 0.201333,-6.07745 -7.33599,-4.12501 -3.584419,0.9285 -5.56313,4.73316 -9.34666,4.73522 -3.18429,0.002 -3.76755,-0.28627 -5.19217,-2.56383 -0.70831,-1.13238 -1.28783,-2.26643 -1.28783,-2.52013 0,-0.33714 0.84765,-0.47092 3.15,-0.49715 3.826,-0.0436 4.91808,-0.31143 5.0513,-1.23887 0.0882,-0.61383 -0.3551,-0.81237 -3.41999,-1.5318 -1.93672,-0.4546 -4.04781,-1.05428 -4.69131,-1.33262 -1.08762,-0.47043 -1.17,-0.62794 -1.17,-2.23712 0,-1.9832 0.67612,-2.91227 3.50595,-4.81763 3.79514,-2.55531 4.31444,-3.43059 5.64066,-9.507298 1.78908,-8.197522 2.34373,-9.772645 4.62884,-13.14536 14.53727,-21.456271 42.4874,37.497208 5.55864,47.115918 -2.81629,0.73355 -4.64058,1.26412 -6.35194,0.28534 z"
       id="path8"
       sodipodi:nodetypes="ssssssscssssssssssss" /><path
       style="fill:#ececec;fill-opacity:0.738292;stroke:#d2d1bc;stroke-width:0.370091;stroke-opacity:0.876033;paint-order:fill markers stroke"
       d="m 95.26009,204.90614 c -0.891,-0.0706 -4.09425,-0.45452 -7.11834,-0.8532 -3.02408,-0.39867 -5.65658,-0.62707 -5.85,-0.50753 -0.5469,0.338 -0.42301,-7.4236 0.18263,-11.44157 0.56495,-3.74806 1.56065,-7.73002 3.53164,-14.12358 1.39835,-4.53602 0.80074,-4.21799 6.19407,-3.29632 3.50685,0.59928 11.99932,1.31632 15.59036,1.31632 1.22631,0 2.22964,0.0704 2.22964,0.15646 0,0.0861 -0.23611,1.27891 -0.52469,2.65079 -1.44018,6.84634 -2.35531,15.36131 -2.35531,21.91527 v 4.43748 l -5.13,-0.0629 c -2.8215,-0.0346 -5.859,-0.12064 -6.75,-0.19122 z"
       id="path9" /><path
       style="fill:#ececec;fill-opacity:0.738292;stroke:#d2c5bc;stroke-width:0.0925229;stroke-opacity:0.876033;paint-order:fill markers stroke"
       d="m 129.52784,119.41276 c -0.37492,-0.47238 -0.46022,-2.82993 -0.17176,-4.7475 0.7899,-5.25107 3.7769,-11.21931 7.43217,-14.850003 0.65231,-0.647931 1.47594,-1.358699 1.94222,-1.676096 0.82792,-0.563552 2.36878,-1.383903 2.59938,-1.383903 0.19347,0 0.27182,0.73779 0.25805,2.429999 -0.0202,2.484663 -0.37441,4.474873 -1.28141,7.200003 -1.39045,4.17766 -3.66519,7.96924 -6.24706,10.41272 -1.00571,0.9518 -1.83372,1.54109 -3.12762,2.22591 -0.96566,0.5111 -1.24545,0.58859 -1.40397,0.38887 z"
       id="path12"
       sodipodi:nodetypes="ssssssssss" /><path
       style="fill:#800080;fill-opacity:0.738292;stroke:#d2c5bc;stroke-width:0.185046;stroke-opacity:0.876033;paint-order:fill markers stroke"
       d="m 137.47009,266.44455 c -2.99576,-0.36296 -5.21464,-1.20286 -6.13839,-2.32352 -0.46694,-0.56648 -0.52161,-0.76657 -0.52161,-1.90912 0,-4.17169 3.20796,-7.93878 9.48157,-11.13415 3.03568,-1.54618 3.27533,-1.81388 2.67065,-2.98321 -0.23274,-0.45007 -0.40351,-0.53422 -1.305,-0.643 -4.51188,-0.54449 -10.53222,-4.2549 -16.33722,-10.06884 -2.74998,-2.75422 -4.33063,-4.60416 -6.46159,-7.56246 -0.85576,-1.188 -1.97763,-2.7434 -2.49305,-3.45646 -1.00514,-1.39055 -1.50494,-1.77727 -2.06659,-1.59901 -0.6114,0.19405 -0.78572,0.86499 -0.50461,1.94211 0.48313,1.85118 1.788,4.59455 3.30937,6.95766 l 0.27317,0.4243 -1.78835,-0.12349 c -2.82129,-0.19482 -5.28171,-0.59778 -7.6752,-1.25705 -11.39257,-3.13796 -21.31932,-11.54856 -24.59629,-20.83958 -0.52973,-1.50192 -1.58049,-6.02485 -1.43376,-6.17157 0.0386,-0.0386 0.59363,0.11987 1.2335,0.35206 3.81046,1.3827 11.24458,2.26399 19.02328,2.25514 5.17489,-0.006 7.48516,-0.15714 7.84144,-0.51342 0.11946,-0.11946 0.24007,-2.55793 0.32792,-6.62982 0.22045,-10.2178 0.5149,-13.02694 2.34486,-22.37086 0.69831,-3.56557 0.81569,-5.17719 0.40631,-5.57839 -0.0882,-0.0865 -2.38791,-0.24602 -5.11041,-0.35458 -5.45922,-0.21768 -12.43587,-0.63581 -15.18407,-0.91002 -0.97574,-0.0974 -2.49449,-0.17701 -3.375,-0.17701 -0.88051,0 -1.60093,-0.0712 -1.60093,-0.15826 0,-0.21626 2.01519,-5.52613 3.5947,-9.47174 1.22569,-3.0618 5.50019,-13.09286 7.59614,-17.82604 l 0.95916,-2.16604 0.99,0.24286 c 1.64292,0.40303 6.21292,0.47641 9.16482,0.14717 8.07909,-0.90111 17.03644,-3.6634 23.44825,-7.23104 l 2.10307,-1.17018 1.67693,0.4795 c 3.25838,0.93172 6.33649,2.35144 9.06543,4.18127 11.5879,7.77003 19.8073,23.17763 21.33237,39.98842 0.34727,3.82786 0.12071,10.08106 -0.51859,14.31408 l -0.51653,3.41999 0.32178,2.07001 c 1.39302,8.96153 -1.5198,16.47657 -7.0539,18.19897 -1.32749,0.41317 -1.80121,0.42331 -3.00966,0.0644 -2.59292,-0.77002 -4.51811,-4.37631 -5.32954,-9.98342 -0.24984,-1.72638 -0.3222,-1.93393 -0.83589,-2.39758 -0.53232,-0.48044 -0.58036,-0.49131 -0.89869,-0.20323 -0.37673,0.34094 -0.58703,0.9281 -0.89927,2.51082 -0.26476,1.34207 -0.82375,2.56156 -1.28806,2.81005 -0.46389,0.24827 -0.97099,-0.19628 -1.42584,-1.24998 -0.2734,-0.63334 -0.33668,-1.23366 -0.33668,-3.1942 0,-2.30356 0.0332,-2.52369 0.72411,-4.80008 1.31213,-4.32324 1.67124,-6.45615 1.68967,-10.03579 0.0177,-3.43864 -0.15667,-4.76445 -1.0024,-7.62112 -1.8797,-6.34921 -6.44889,-13.46198 -12.56472,-19.55923 -3.88868,-3.87687 -6.71253,-5.56381 -7.60747,-4.54465 -0.79534,0.90573 -0.83455,0.84884 3.8559,5.59461 2.41374,2.44221 5.10136,5.33138 5.97249,6.42039 3.78764,4.73491 6.07869,8.98607 7.48313,13.88528 0.53805,1.87692 0.54929,1.99763 0.54929,5.89562 v 3.97947 l -1.05423,3.68982 c -1.04983,3.67438 -1.05478,3.70308 -1.18555,6.86416 l -0.13131,3.17435 0.54886,1.30632 c 0.30187,0.71848 0.76087,1.61226 1.02,1.98619 1.10259,1.59103 2.86521,2.16704 4.46534,1.45923 l 0.83689,-0.3702 v 0.59569 c 0,1.78977 2.76955,5.31002 5.13171,6.52269 0.81981,0.42086 1.34705,0.80341 1.34752,0.9777 5.3e-4,0.15748 -0.17595,1.08898 -0.39194,2.07 -0.56572,2.56947 -0.56121,7.11858 0.01,9.77973 0.81128,3.78158 1.84377,5.75153 5.8152,11.09527 1.38122,1.85851 2.66229,3.67504 2.84682,4.03674 1.15828,2.27041 1.43068,4.91524 0.7227,7.01684 -1.84072,5.4641 -9.05882,9.73499 -19.45661,11.51231 -2.48503,0.42477 -6.21221,0.59399 -8.0851,0.36708 z"
       id="path13" /><path
       style="fill:#800080;fill-opacity:0.738292;stroke:#d2c5bc;stroke-width:0.185046;stroke-opacity:0.876033;paint-order:fill markers stroke"
       d="m 79.60009,263.4636 c -8.47142,-0.7791 -13.43193,-2.36442 -14.95684,-4.78003 -0.40166,-0.63627 -0.44077,-0.83971 -0.33073,-1.72048 0.31994,-2.56068 2.58087,-5.2599 5.68643,-6.78877 2.53724,-1.24909 4.03798,-1.58611 7.23901,-1.62569 l 2.67787,-0.0331 0.27076,-0.51676 c 0.18355,-0.35032 0.3194,-1.43489 0.42181,-3.3674 0.26911,-5.07864 1.17778,-10.72588 2.66641,-16.57151 1.03476,-4.06331 1.46232,-5.38921 1.76954,-5.48742 0.12334,-0.0394 1.29784,0.96819 2.61,2.23915 1.31216,1.27097 3.07424,2.8468 3.91574,3.50185 4.4256,3.44505 9.67835,6.09658 15.50732,7.82792 1.22248,0.3631 2.27964,0.70966 2.34926,0.77012 0.0696,0.0605 -0.52528,1.04117 -1.322,2.17935 -4.02589,5.75135 -6.40304,11.34692 -8.26078,19.44511 -0.41944,1.82837 -0.78446,3.3504 -0.81117,3.38228 -0.0267,0.0319 -1.29147,0.36581 -2.81059,0.74208 l -2.76204,0.68412 -6.57,0.0927 c -3.6135,0.051 -6.894,0.0629 -7.29,0.0265 z"
       id="path14" /><g
       id="g1"
       transform="matrix(0.71937082,0,0,0.70958651,4.215884,14.895369)" /><path
       style="fill:#ff2a2a;fill-opacity:1;stroke:#d2c5bc;stroke-width:1.97816;stroke-opacity:0.876033;paint-order:fill markers stroke"
       d="m 317.79536,393.32818 c -9.29958,-4.70505 -14.74242,-7.9988 5.96136,-15.06812 l 27.38096,-9.34925 -0.70556,4.95283 c -0.15524,1.08973 -0.41609,1.998 -0.67,3.03036 -1.70812,6.94499 -5.01258,14.22326 -13.68467,16.90424 -2.57608,0.79639 -4.71541,1.35647 -6.62732,1.65579 -4.2424,0.66417 -7.36503,0.0445 -11.65477,-2.12585 z"
       id="path2"
       sodipodi:nodetypes="sscsssss"
       transform="scale(0.26458333)" /><path
       style="fill:#ffffff;fill-opacity:0.738292;stroke:#d2c5bc;stroke-width:0.174846;stroke-opacity:0.876033;paint-order:fill markers stroke"
       d="m 442.62422,187.44007 c -2.87779,-0.60438 -7.00987,-2.45635 -9.34713,-4.18933 -3.5799,-2.65433 -6.58674,-6.79748 -7.99677,-11.01883 -0.47245,-1.41442 -0.55075,-1.94029 -0.71427,-4.79707 -0.20906,-3.65254 0.009,-8.39602 0.46449,-10.11201 0.29213,-1.10014 2.14798,-5.07701 3.01604,-6.46299 3.24784,-5.18569 7.61517,-8.25329 13.35711,-9.382 1.01069,-0.19867 2.29192,-0.28925 4.03253,-0.28507 2.19658,0.005 2.78271,0.0677 4.21693,0.44916 3.56356,0.94784 6.55073,2.66133 9.33052,5.35215 4.73346,4.58196 6.6133,9.53917 6.62564,17.47206 0.009,5.53568 -0.92173,9.30696 -3.08893,12.52152 -2.5562,3.79156 -5.95928,6.8648 -9.60069,8.67017 -3.18902,1.58108 -7.60959,2.34632 -10.29547,1.78224 z"
       id="path3"
       transform="scale(0.26458333)" /><path
       style="fill:#ffffff;fill-opacity:0.738292;stroke:#d2c5bc;stroke-width:0.174846;stroke-opacity:0.876033;paint-order:fill markers stroke"
       d="m 442.96451,187.35221 c -2.34106,-0.43055 -6.6115,-2.25564 -9.09364,-3.88643 -1.68592,-1.10765 -4.39727,-3.88757 -5.67584,-5.81938 -1.24098,-1.87502 -2.39097,-4.1912 -2.88926,-5.81925 -0.67514,-2.20582 -0.87155,-9.35108 -0.35897,-13.05865 0.19731,-1.4271 0.59376,-2.55783 1.74878,-4.98774 3.06488,-6.44784 7.27348,-10.15487 13.4682,-11.86308 1.11169,-0.30655 1.95187,-0.38927 4.59213,-0.45212 2.91433,-0.0694 3.37338,-0.0406 4.67716,0.29282 6.8366,1.74853 12.81183,7.34362 14.86807,13.92218 0.83334,2.66611 1.02556,4.32846 1.02575,8.87062 1.7e-4,4.39294 -0.15503,5.74576 -0.93842,8.17978 -1.75485,5.4523 -7.56123,11.40998 -13.09431,13.43549 -2.75913,1.01005 -6.43771,1.5337 -8.32965,1.18576 z"
       id="path4"
       transform="scale(0.26458333)" /></g></svg>
